{
.appVersion = "1342";
copyright = "(C)2006-2008 Das Ende der wildnis, (C)2007-2020 Gutenberg Labo, (C)2019-2020, Gutenberg Labo (https://github.com/Gutenberg-Labo), all rights reserved.";
customParameters = (
{
name = vendorID;
value = CLP;
},
{
name = license;
value = "This Font Software is licensed under the SIL Open Font License, Version 1.1. This license is available with a FAQ at: http://scripts.sil.org/OFL";
},
{
name = licenseURL;
value = "http://scripts.sil.org/OFL";
},
{
name = ROS;
value = "Adobe-Identity-0";
},
{
name = fsType;
value = (
);
},
{
name = "Use Typo Metrics";
value = 1;
},
{
name = "Disable Last Change";
value = 1;
},
{
name = "Use Line Breaks";
value = 1;
}
);
date = "2020-01-26 14:00:11 +0000";
designer = "Das Ende der Wildnis";
designerURL = "http://heiden.daynight.jp/";
familyName = Otomanopee;
featurePrefixes = (
{
automatic = 1;
code = "languagesystem DFLT dflt;
";
name = Languagesystems;
}
);
features = (
{
automatic = 1;
code = "feature sups;
feature frac;
feature ordn;
feature fwid;
feature hwid;
feature vert;
feature vkna;
feature vrt2;
feature cv01;
";
name = aalt;
},
{
automatic = 1;
code = "sub one by onesuperior;
sub two by twosuperior;
sub three by threesuperior;
sub four by foursuperior;
";
name = sups;
},
{
automatic = 1;
code = "sub one slash four by onequarter;
sub one slash two by onehalf;
sub three slash four by threequarters;
";
name = frac;
},
{
automatic = 1;
code = "sub [zero one two three four five six seven eight nine] [A a]' by ordfeminine;
sub [zero one two three four five six seven eight nine] [O o]' by ordmasculine;
";
name = ordn;
},
{
automatic = 1;
code = "sub A by A.full;
sub B by B.full;
sub C by C.full;
sub D by D.full;
sub E by E.full;
sub F by F.full;
sub G by G.full;
sub H by H.full;
sub I by I.full;
sub J by J.full;
sub K by K.full;
sub L by L.full;
sub M by M.full;
sub N by N.full;
sub O by O.full;
sub P by P.full;
sub Q by Q.full;
sub R by R.full;
sub S by S.full;
sub T by T.full;
sub U by U.full;

glyphs = (
{
glyphname = A;
layers = (
{
anchors = (
{
name = top;
position = "{380, 880}";
}
);
layerId = "F446C85F-564E-4F2C-825C-C389DAA66B11";
paths = (
{
closed = 1;
nodes = (
"591 -10 OFFCURVE",
"657 -4 OFFCURVE",
"735 10 CURVE",
"638 309 OFFCURVE",
"544 572 OFFCURVE",
"463 770 CURVE",
"399 770 OFFCURVE",
"336 765 OFFCURVE",
"287 760 CURVE",
"183 517 OFFCURVE",
"89 256 OFFCURVE",
"15 4 CURVE",
"135 -4 LINE",
"217 306 OFFCURVE",
"287 544 OFFCURVE",
"328 653 CURVE",
"378 513 OFFCURVE",
"462 223 OFFCURVE",
"521 -10 CURVE"
);
},
{
closed = 1;
nodes = (
"367 156 OFFCURVE",
"436 161 OFFCURVE",
"506 171 CURVE",
"491 253 LINE",
"461 250 OFFCURVE",
"420 249 OFFCURVE",
"380 249 CURVE SMOOTH",
"283 249 OFFCURVE",
"208 255 OFFCURVE",
"130 270 CURVE",
"125 163 LINE",
"182 158 OFFCURVE",
"239 156 OFFCURVE",
"289 156 CURVE SMOOTH"
);
}
);
width = 750;
}
);
leftKerningGroup = A;
rightKerningGroup = A;
unicode = 0041;
},
{
glyphname = AE;
layers = (
{
layerId = "F446C85F-564E-4F2C-825C-C389DAA66B11";
paths = (
{
closed = 1;
nodes = (
"229 183 OFFCURVE",
"384 494 OFFCURVE",
"480 663 CURVE",
"469 662 LINE",
"483 517 OFFCURVE",
"492 265 OFFCURVE",
"492 5 CURVE",
"694 5 OFFCURVE",
"855 1 OFFCURVE",
"949 -5 CURVE",
"954 98 LINE",
"682 87 LINE",
"679 175 OFFCURVE",
"677 425 OFFCURVE",
"677 669 CURVE",
"955 658 LINE",
"951 758 LINE",
"889 756 OFFCURVE",
"602 754 OFFCURVE",
"456 754 CURVE",
"308 540 OFFCURVE",
"134 245 OFFCURVE",
"15 8 CURVE",
"145 -8 LINE"
);
},
{
closed = 1;
nodes = (
"418 143 OFFCURVE",
"470 147 OFFCURVE",
"546 156 CURVE",
"560 230 LINE",
"428 238 OFFCURVE",
"339 251 OFFCURVE",
"242 277 CURVE",
"207 148 LINE",
"278 144 OFFCURVE",
"319 143 OFFCURVE",
"352 143 CURVE SMOOTH"
);
},
{
closed = 1;
nodes = (
"932 442 LINE",
"626 421 LINE",
"626 339 LINE",
"928 328 LINE"
);
}
);
width = 985;
}
);
leftKerningGroup = AE;
leftMetricsKey = A;
rightKerningGroup = E;
rightMetricsKey = E;
unicode = 00C6;
},
{
glyphname = B;
layers = (
{
layerId = "F446C85F-564E-4F2C-825C-C389DAA66B11";
paths = (
{
closed = 1;
nodes = (
"438 -5 OFFCURVE",
"604 93 OFFCURVE",
"604 228 CURVE SMOOTH",
"604 318 OFFCURVE",
"530 396 OFFCURVE",
"417 427 CURVE",
"513 466 OFFCURVE",
"561 521 OFFCURVE",
"561 592 CURVE SMOOTH",
"561 702 OFFCURVE",
"445 765 OFFCURVE",
"245 765 CURVE SMOOTH",
"189 765 OFFCURVE",
"122 760 OFFCURVE",
"50 752 CURVE",
"50 543 OFFCURVE",
"55 98 OFFCURVE",
"59 5 CURVE",
"110 -2 OFFCURVE",
"161 -5 OFFCURVE",
"202 -5 CURVE SMOOTH"
);
},
{
closed = 1;
nodes = (
"213 216 OFFCURVE",
"207 426 OFFCURVE",
"207 692 CURVE",
"311 692 OFFCURVE",
"399 634 OFFCURVE",
"399 565 CURVE SMOOTH",
"399 497 OFFCURVE",
"312 437 OFFCURVE",
"193 423 CURVE",
"195 370 LINE",
"313 362 OFFCURVE",
"427 275 OFFCURVE",
"427 193 CURVE SMOOTH",
"427 121 OFFCURVE",
"332 66 OFFCURVE",
"225 66 CURVE"
);
}
);
width = 624;
}
);
leftKerningGroup = H;
rightKerningGroup = B;
unicode = 0042;
},
{
glyphname = C;
layers = (
{
anchors = (
{
name = bottom;
position = "{360, 0}";
}
);
layerId = "F446C85F-564E-4F2C-825C-C389DAA66B11";
paths = (
{
closed = 1;
nodes = (
"497 -5 OFFCURVE",
"599 42 OFFCURVE",
"680 134 CURVE",
"587 207 LINE",
"549 138 OFFCURVE",
"476 87 OFFCURVE",
"417 87 CURVE SMOOTH",
"307 87 OFFCURVE",
"197 268 OFFCURVE",
"197 448 CURVE SMOOTH",
"197 585 OFFCURVE",
"261 673 OFFCURVE",
"359 673 CURVE SMOOTH",
"432 673 OFFCURVE",
"492 624 OFFCURVE",
"544 522 CURVE",
"587 545 OFFCURVE",
"632 585 OFFCURVE",
"680 641 CURVE",
"621 717 OFFCURVE",
"515 765 OFFCURVE",
"402 765 CURVE SMOOTH",
"185 765 OFFCURVE",
"20 589 OFFCURVE",
"20 359 CURVE SMOOTH",
"20 143 OFFCURVE",
"166 -5 OFFCURVE",
"378 -5 CURVE SMOOTH"
);
}
);
width = 690;
}
);
leftKerningGroup = O;
rightKerningGroup = C;
unicode = 0043;
},
{
glyphname = D;
layers = (
{
layerId = "F446C85F-564E-4F2C-825C-C389DAA66B11";
paths = (
{
closed = 1;
nodes = (
"493 -5 OFFCURVE",
"670 133 OFFCURVE",
"670 392 CURVE SMOOTH",
"670 637 OFFCURVE",
"511 765 OFFCURVE",
"205 765 CURVE SMOOTH",
"158 765 OFFCURVE",
"109 762 OFFCURVE",
"57 755 CURVE",
"52 603 OFFCURVE",
"50 291 OFFCURVE",
"50 0 CURVE",
"90 -3 OFFCURVE",
"133 -5 OFFCURVE",
"172 -5 CURVE SMOOTH"
);
},
{
closed = 1;
nodes = (
"227 239 OFFCURVE",
"230 594 OFFCURVE",
"233 684 CURVE",
"410 667 OFFCURVE",
"493 561 OFFCURVE",
"493 352 CURVE SMOOTH",
"493 155 OFFCURVE",
"417 78 OFFCURVE",
"227 78 CURVE"
);
}
);
width = 690;
}
);
leftKerningGroup = H;
rightKerningGroup = O;
unicode = 0044;
},
{
glyphname = Eth;
layers = (
{
components = (
{
name = D;
transform = "{1, 0, 0, 1, 60, 0}";
}
);
layerId = "F446C85F-564E-4F2C-825C-C389DAA66B11";
paths = (
{
closed = 1;
nodes = (
"409 346 LINE",
"406 426 LINE",
"14 439 LINE",
"10 333 LINE"
);
}
);
width = 750;
}
);
leftKerningGroup = Eth;
rightKerningGroup = O;
rightMetricsKey = D;
unicode = 00D0;
},
{
glyphname = E;
layers = (
{
anchors = (
{
name = top;
position = "{328, 880}";
}
);
layerId = "F446C85F-564E-4F2C-825C-C389DAA66B11";
paths = (
{
closed = 1;
nodes = (
"606 100 LINE",
"257 91 LINE",
"252 236 OFFCURVE",
"250 456 OFFCURVE",
"250 665 CURVE",
"607 655 LINE",
"603 760 LINE",
"480 755 OFFCURVE",
"196 750 OFFCURVE",
"50 750 CURVE",
"50 634 OFFCURVE",
"68 117 OFFCURVE",
"76 5 CURVE",
"326 5 OFFCURVE",
"531 1 OFFCURVE",
"602 -5 CURVE"
);
},
{
closed = 1;
nodes = (
"587 438 LINE",
"187 425 LINE",
"187 345 LINE",
"583 328 LINE"
);
}
);
width = 637;
}
);
leftKerningGroup = H;
rightKerningGroup = E;
unicode = 0045;
},
{
glyphname = F;
layers = (
{
layerId = "F446C85F-564E-4F2C-825C-C389DAA66B11";
paths = (
{
closed = 1;
nodes = (
"250 210 OFFCURVE",
"246 438 OFFCURVE",
"238 676 CURVE",
"576 665 LINE",
"580 760 LINE",
"484 755 OFFCURVE",
"241 750 OFFCURVE",
"59 750 CURVE",
"56 657 OFFCURVE",
"50 161 OFFCURVE",
"50 1 CURVE",
"250 -1 LINE"
);
},
{
closed = 1;
nodes = (
"565 464 LINE",
"191 462 LINE",
"197 387 LINE",
"558 366 LINE"
);
}
);
width = 610;
}
);
leftKerningGroup = H;
rightKerningGroup = F;
unicode = 0046;
},
{
glyphname = G;
layers = (
{
layerId = "F446C85F-564E-4F2C-825C-C389DAA66B11";
paths = (
{
closed = 1;
nodes = (
"472 -5 OFFCURVE",
"590 40 OFFCURVE",
"665 110 CURVE",
"665 217 OFFCURVE",
"660 346 OFFCURVE",
"654 388 CURVE",
"482 383 LINE",
"490 316 OFFCURVE",
"501 191 OFFCURVE",
"504 134 CURVE",
"498 105 OFFCURVE",
"460 83 OFFCURVE",
"415 83 CURVE SMOOTH",
"296 83 OFFCURVE",
"196 242 OFFCURVE",
"196 433 CURVE SMOOTH",
"196 587 OFFCURVE",
"262 678 OFFCURVE",
"373 678 CURVE SMOOTH",
"455 678 OFFCURVE",
"521 629 OFFCURVE",
"567 534 CURVE",
"613 565 OFFCURVE",
"656 604 OFFCURVE",
"700 654 CURVE",
"647 722 OFFCURVE",
"540 765 OFFCURVE",
"422 765 CURVE SMOOTH",
"188 765 OFFCURVE",
"20 597 OFFCURVE",
"20 363 CURVE SMOOTH",
"20 147 OFFCURVE",
"162 -5 OFFCURVE",
"363 -5 CURVE SMOOTH"
);
},
{
closed = 1;
nodes = (
"728 416 LINE",
"632 411 OFFCURVE",
"500 408 OFFCURVE",
"360 408 CURVE",
"363 332 LINE",
"422 327 OFFCURVE",
"562 324 OFFCURVE",
"725 324 CURVE"
);
}
);
width = 748;
}
);
leftKerningGroup = O;
rightKerningGroup = G;
unicode = 0047;
},
{
glyphname = H;
layers = (
{
layerId = "F446C85F-564E-4F2C-825C-C389DAA66B11";
paths = (
{
closed = 1;
nodes = (
"690 212 OFFCURVE",
"689 536 OFFCURVE",
"681 758 CURVE",
"622 758 OFFCURVE",
"563 756 OFFCURVE",
"505 752 CURVE",
"505 431 OFFCURVE",
"504 139 OFFCURVE",
"499 2 CURVE",
"560 -1 OFFCURVE",
"620 -2 OFFCURVE",
"690 -2 CURVE"
);
},
{
closed = 1;
nodes = (
"122 -2 OFFCURVE",
"181 -1 OFFCURVE",
"240 2 CURVE",
"232 206 OFFCURVE",
"228 461 OFFCURVE",
"228 752 CURVE",
"185 755 OFFCURVE",
"134 756 OFFCURVE",
"57 756 CURVE",
"51 581 OFFCURVE",
"50 279 OFFCURVE",
"50 -2 CURVE"
);
},
{
closed = 1;
nodes = (
"539 436 LINE",
"425 428 OFFCURVE",
"312 424 OFFCURVE",
"201 424 CURVE",
"210 337 LINE",
"283 332 OFFCURVE",
"377 330 OFFCURVE",
"531 330 CURVE"
);
}
);
width = 740;
}
);
leftKerningGroup = H;
rightKerningGroup = H;
unicode = 0048;
},
{
glyphname = I;
layers = (
{
anchors = (
{
name = top;
position = "{180, 880}";
}
);
layerId = "F446C85F-564E-4F2C-825C-C389DAA66B11";
paths = (
{
closed = 1;
nodes = (
"143 -1 OFFCURVE",
"218 -1 OFFCURVE",
"290 2 CURVE",
"281 104 OFFCURVE",
"276 233 OFFCURVE",
"276 415 CURVE SMOOTH",
"276 497 OFFCURVE",
"277 629 OFFCURVE",
"281 753 CURVE",
"255 756 OFFCURVE",
"218 757 OFFCURVE",
"182 757 CURVE SMOOTH",
"137 757 OFFCURVE",
"95 755 OFFCURVE",
"79 753 CURVE",
"81 699 OFFCURVE",
"82 577 OFFCURVE",
"82 493 CURVE SMOOTH",
"82 325 OFFCURVE",
"78 161 OFFCURVE",
"70 -1 CURVE"
);
}
);
width = 360;
}
);
leftKerningGroup = I;
rightKerningGroup = I;
unicode = 0049;
},
{
glyphname = J;
layers = (
{
layerId = "F446C85F-564E-4F2C-825C-C389DAA66B11";
paths = (
{
closed = 1;
nodes = (
"478 -5 OFFCURVE",
"536 106 OFFCURVE",
"536 582 CURVE SMOOTH",
"536 645 OFFCURVE",
"535 730 OFFCURVE",
"534 758 CURVE",
"467 758 OFFCURVE",
"400 756 OFFCURVE",
"333 752 CURVE",
"336 659 OFFCURVE",
"338 564 OFFCURVE",
"338 478 CURVE SMOOTH",
"338 155 OFFCURVE",
"310 79 OFFCURVE",
"227 79 CURVE SMOOTH",
"193 79 OFFCURVE",
"145 92 OFFCURVE",
"31 132 CURVE",
"10 54 LINE",
"86 16 OFFCURVE",
"178 -5 OFFCURVE",
"269 -5 CURVE SMOOTH"
);
}
);
width = 586;
}
);
leftKerningGroup = J;
rightKerningGroup = U;
unicode = 004A;
},
{
glyphname = K;
layers = (
{
layerId = "F446C85F-564E-4F2C-825C-C389DAA66B11";
paths = (
{
closed = 1;
nodes = (
"379 397 OFFCURVE",
"542 573 OFFCURVE",
"666 740 CURVE",
"530 770 LINE",
"401 573 OFFCURVE",
"279 417 OFFCURVE",
"141 273 CURVE",
"187 222 LINE"
);
},
{
closed = 1;
nodes = (
"226 1 LINE",
"226 218 OFFCURVE",
"228 547 OFFCURVE",
"235 753 CURVE",
"55 757 LINE",
"51 653 OFFCURVE",
"50 155 OFFCURVE",
"50 -1 CURVE"
);
},
{
closed = 1;
nodes = (
"556 -5 OFFCURVE",
"624 1 OFFCURVE",
"695 13 CURVE",
"626 188 OFFCURVE",
"536 375 OFFCURVE",
"454 513 CURVE",
"309 431 LINE",
"376 292 OFFCURVE",
"445 118 OFFCURVE",
"482 -5 CURVE"
);
}
);
width = 710;
}
);
leftKerningGroup = H;
rightKerningGroup = K;
unicode = 004B;
},
{
glyphname = L;
layers = (
{
layerId = "F446C85F-564E-4F2C-825C-C389DAA66B11";
paths = (
{
closed = 1;
nodes = (
"622 83 LINE",
"523 78 OFFCURVE",
"386 74 OFFCURVE",
"248 74 CURVE",
"255 271 OFFCURVE",
"258 560 OFFCURVE",
"258 756 CURVE",
"163 756 OFFCURVE",
"81 755 OFFCURVE",
"50 754 CURVE",
"50 519 OFFCURVE",
"55 275 OFFCURVE",
"67 0 CURVE",
"326 0 OFFCURVE",
"564 -2 OFFCURVE",
"625 -5 CURVE"
);
}
);
width = 640;
}
);
leftKerningGroup = H;
rightKerningGroup = L;
unicode = 004C;
},
{
glyphname = M;
layers = (
{
layerId = "F446C85F-564E-4F2C-825C-C389DAA66B11";
paths = (
{
closed = 1;
nodes = (
"143 580 LINE",
"198 438 OFFCURVE",
"264 282 OFFCURVE",
"334 131 CURVE",
"479 135 LINE",
"558 304 OFFCURVE",
"619 445 OFFCURVE",
"669 576 CURVE",
"669 411 OFFCURVE",
"665 200 OFFCURVE",
"658 -2 CURVE",
"720 -2 OFFCURVE",
"804 0 OFFCURVE",
"850 2 CURVE",
"844 185 OFFCURVE",
"842 578 OFFCURVE",
"842 760 CURVE",
"792 766 OFFCURVE",
"717 771 OFFCURVE",
"645 771 CURVE",
"571 574 OFFCURVE",
"509 422 OFFCURVE",
"448 290 CURVE",
"391 416 OFFCURVE",
"320 592 OFFCURVE",
"254 772 CURVE",
"199 772 OFFCURVE",
"133 767 OFFCURVE",
"59 759 CURVE",
"50 2 LINE",
"160 -2 LINE"
);
}
);
width = 900;
}
);
leftKerningGroup = H;
rightKerningGroup = H;
unicode = 004D;
},
{
glyphname = N;
layers = (
{
anchors = (
{
name = top;
position = "{372, 880}";
}
);
layerId = "F446C85F-564E-4F2C-825C-C389DAA66B11";
paths = (
{
closed = 1;
nodes = (
"152 549 LINE",
"220 452 OFFCURVE",
"301 329 OFFCURVE",
"515 -2 CURVE",
"566 -2 OFFCURVE",
"649 0 OFFCURVE",
"700 2 CURVE",
"710 753 LINE",
"674 756 OFFCURVE",
"636 757 OFFCURVE",
"594 757 CURVE",
"609 210 LINE",
"501 382 OFFCURVE",
"376 573 OFFCURVE",
"252 757 CURVE",
"168 757 OFFCURVE",
"105 756 OFFCURVE",
"67 753 CURVE",
"50 3 LINE",
"90 -1 OFFCURVE",
"125 -3 OFFCURVE",
"166 -3 CURVE"
);
}
);
width = 760;
}
);
leftKerningGroup = H;
rightKerningGroup = H;
unicode = 004E;
},
{
glyphname = O;
layers = (
{
anchors = (
{
name = top;
position = "{380, 880}";
}
);
layerId = "F446C85F-564E-4F2C-825C-C389DAA66B11";
paths = (
{
closed = 1;
nodes = (
"588 -5 OFFCURVE",
"740 158 OFFCURVE",
"740 380 CURVE SMOOTH",
"740 602 OFFCURVE",
"588 765 OFFCURVE",
"380 765 CURVE SMOOTH",
"172 765 OFFCURVE",
"20 602 OFFCURVE",
"20 380 CURVE SMOOTH",
"20 158 OFFCURVE",
"172 -5 OFFCURVE",
"380 -5 CURVE SMOOTH"
);
},
{
closed = 1;
nodes = (
"287 79 OFFCURVE",
"198 226 OFFCURVE",
"198 415 CURVE SMOOTH",
"198 575 OFFCURVE",
"262 681 OFFCURVE",
"359 681 CURVE SMOOTH",
"473 681 OFFCURVE",
"562 534 OFFCURVE",
"562 345 CURVE SMOOTH",
"562 185 OFFCURVE",
"498 79 OFFCURVE",
"401 79 CURVE SMOOTH"
);
}
);
width = 760;
}
);
leftKerningGroup = O;
rightKerningGroup = O;
unicode = 004F;
},
{
glyphname = Oslash;
layers = (
{
components = (
{
name = O;
}
);
layerId = "F446C85F-564E-4F2C-825C-C389DAA66B11";
paths = (
{
closed = 1;
nodes = (
"705 735 LINE",
"625 790 LINE",
"55 25 LINE",
"135 -30 LINE"
);
}
);
width = 760;
}
);
leftKerningGroup = O;
leftMetricsKey = O;
rightKerningGroup = O;
rightMetricsKey = O;
unicode = 00D8;
},
{
glyphname = OE;
layers = (
{
layerId = "F446C85F-564E-4F2C-825C-C389DAA66B11";
paths = (
{
closed = 1;
nodes = (
"547 -5 OFFCURVE",
"650 137 OFFCURVE",
"650 391 CURVE SMOOTH",
"650 636 OFFCURVE",
"554 765 OFFCURVE",
"370 765 CURVE SMOOTH",
"165 765 OFFCURVE",
"20 605 OFFCURVE",
"20 379 CURVE SMOOTH",
"20 155 OFFCURVE",
"162 -5 OFFCURVE",
"360 -5 CURVE SMOOTH"
);
},
{
closed = 1;
nodes = (
"272 82 OFFCURVE",
"196 222 OFFCURVE",
"196 419 CURVE SMOOTH",
"196 583 OFFCURVE",
"249 678 OFFCURVE",
"339 678 CURVE SMOOTH",
"448 678 OFFCURVE",
"524 538 OFFCURVE",
"524 341 CURVE SMOOTH",
"524 177 OFFCURVE",
"471 82 OFFCURVE",
"381 82 CURVE SMOOTH"
);
},
{
closed = 1;
nodes = (
"959 88 LINE",
"687 87 LINE",
"683 229 OFFCURVE",
"682 362 OFFCURVE",
"682 673 CURVE",
"960 672 LINE",
"958 770 LINE",
"814 764 OFFCURVE",
"468 755 OFFCURVE",
"375 755 CURVE",
"469 686 OFFCURVE",
"537 506 OFFCURVE",
"537 330 CURVE SMOOTH",
"537 177 OFFCURVE",
"486 89 OFFCURVE",
"350 5 CURVE",
"505 5 OFFCURVE",
"778 -2 OFFCURVE",
"954 -10 CURVE"
);
},
{
closed = 1;
nodes = (
"934 440 LINE",
"631 421 LINE",
"631 339 LINE",
"933 328 LINE"
);
}
);
width = 990;
}
);
leftKerningGroup = O;
leftMetricsKey = O;
rightKerningGroup = E;
rightMetricsKey = E;
unicode = 0152;
},
{
glyphname = P;
layers = (
{
layerId = "F446C85F-564E-4F2C-825C-C389DAA66B11";
paths = (
{
closed = 1;
nodes = (
"102 -2 OFFCURVE",
"162 -1 OFFCURVE",
"235 2 CURVE",
"235 257 OFFCURVE",
"228 559 OFFCURVE",
"219 687 CURVE",
"358 687 OFFCURVE",
"445 623 OFFCURVE",
"445 503 CURVE SMOOTH",
"445 387 OFFCURVE",
"334 340 OFFCURVE",
"201 327 CURVE",
"201 247 LINE",
"454 250 OFFCURVE",
"630 367 OFFCURVE",
"630 531 CURVE SMOOTH",
"630 681 OFFCURVE",
"483 766 OFFCURVE",
"249 766 CURVE SMOOTH",
"187 766 OFFCURVE",
"116 760 OFFCURVE",
"50 750 CURVE",
"54 641 OFFCURVE",
"55 271 OFFCURVE",
"55 -2 CURVE"
);
}
);
width = 650;
}
);
leftKerningGroup = H;
rightKerningGroup = P;
unicode = 0050;
},
{
glyphname = Thorn;
layers = (
{
layerId = "F446C85F-564E-4F2C-825C-C389DAA66B11";
paths = (
{
closed = 1;
nodes = (
"471 147 OFFCURVE",
"640 257 OFFCURVE",
"640 423 CURVE SMOOTH",
"640 574 OFFCURVE",
"500 645 OFFCURVE",
"204 645 CURVE",
"199 564 LINE",
"359 564 OFFCURVE",
"455 493 OFFCURVE",
"455 374 CURVE SMOOTH",
"455 270 OFFCURVE",
"382 226 OFFCURVE",
"211 226 CURVE",
"211 144 LINE"
);
},
{
closed = 1;
nodes = (
"90 -2 OFFCURVE",
"166 -1 OFFCURVE",
"228 2 CURVE",
"230 145 OFFCURVE",
"232 523 OFFCURVE",
"232 753 CURVE",
"191 755 OFFCURVE",
"101 757 OFFCURVE",
"50 757 CURVE",
"50 479 OFFCURVE",
"54 141 OFFCURVE",
"59 -2 CURVE"
);
}
);
width = 660;
}
);
leftKerningGroup = H;
unicode = 00DE;
},
{
glyphname = Q;
layers = (
{
layerId = "F446C85F-564E-4F2C-825C-C389DAA66B11";
paths = (
{
closed = 1;
nodes = (
"588 -5 OFFCURVE",
"740 158 OFFCURVE",
"740 380 CURVE SMOOTH",
"740 602 OFFCURVE",
"588 765 OFFCURVE",
"380 765 CURVE SMOOTH",
"172 765 OFFCURVE",
"20 602 OFFCURVE",
"20 380 CURVE SMOOTH",
"20 158 OFFCURVE",
"172 -5 OFFCURVE",
"380 -5 CURVE SMOOTH"
);
},
{
closed = 1;
nodes = (
"603 -41 OFFCURVE",
"683 -13 OFFCURVE",
"730 13 CURVE",
"674 156 OFFCURVE",
"545 259 OFFCURVE",
"422 259 CURVE SMOOTH",
"339 259 OFFCURVE",
"264 212 OFFCURVE",
"213 127 CURVE",
"297 83 LINE",
"321 137 OFFCURVE",
"354 165 OFFCURVE",
"395 165 CURVE SMOOTH",
"457 165 OFFCURVE",
"502 100 OFFCURVE",
"547 -53 CURVE"
);
},
{
closed = 1;
nodes = (
"287 79 OFFCURVE",
"198 226 OFFCURVE",
"198 415 CURVE SMOOTH",
"198 575 OFFCURVE",
"262 681 OFFCURVE",
"359 681 CURVE SMOOTH",
"473 681 OFFCURVE",
"562 534 OFFCURVE",
"562 345 CURVE SMOOTH",
"562 185 OFFCURVE",
"498 79 OFFCURVE",
"401 79 CURVE SMOOTH"
);
}
);
width = 760;
}
);
leftKerningGroup = O;
rightKerningGroup = O;
unicode = 0051;
},
{
glyphname = R;
layers = (
{
layerId = "F446C85F-564E-4F2C-825C-C389DAA66B11";
paths = (
{
closed = 1;
nodes = (
"490 -8 OFFCURVE",
"607 6 OFFCURVE",
"650 14 CURVE",
"619 92 OFFCURVE",
"488 308 OFFCURVE",
"434 370 CURVE",
"540 393 OFFCURVE",
"620 479 OFFCURVE",
"620 569 CURVE SMOOTH",
"620 692 OFFCURVE",
"470 765 OFFCURVE",
"246 765 CURVE SMOOTH",
"187 765 OFFCURVE",
"118 760 OFFCURVE",
"50 750 CURVE",
"53 582 OFFCURVE",
"55 285 OFFCURVE",
"55 2 CURVE",
"103 0 OFFCURVE",
"175 -2 OFFCURVE",
"235 -2 CURVE",
"235 264 OFFCURVE",
"228 568 OFFCURVE",
"219 687 CURVE",
"349 687 OFFCURVE",
"445 621 OFFCURVE",
"445 531 CURVE SMOOTH",
"445 446 OFFCURVE",
"358 393 OFFCURVE",
"211 390 CURVE",
"211 363 LINE",
"282 323 OFFCURVE",
"367 189 OFFCURVE",
"447 -10 CURVE"
);
}
);
width = 665;
}
);
leftKerningGroup = H;
rightKerningGroup = R;
unicode = 0052;
},
{
glyphname = S;
layers = (
{
layerId = "F446C85F-564E-4F2C-825C-C389DAA66B11";
paths = (
{
closed = 1;
nodes = (
"494 -5 OFFCURVE",
"635 108 OFFCURVE",
"635 241 CURVE SMOOTH",
"635 471 OFFCURVE",
"211 505 OFFCURVE",
"211 621 CURVE SMOOTH",
"211 650 OFFCURVE",
"237 682 OFFCURVE",
"289 682 CURVE SMOOTH",
"360 682 OFFCURVE",
"441 622 OFFCURVE",
"523 545 CURVE",
"561 576 OFFCURVE",
"607 623 OFFCURVE",
"631 668 CURVE",
"557 730 OFFCURVE",
"451 765 OFFCURVE",
"354 765 CURVE SMOOTH",
"183 765 OFFCURVE",
"62 655 OFFCURVE",
"62 546 CURVE SMOOTH",
"62 342 OFFCURVE",
"489 316 OFFCURVE",
"489 164 CURVE SMOOTH",
"489 114 OFFCURVE",
"444 88 OFFCURVE",
"396 88 CURVE SMOOTH",
"316 88 OFFCURVE",
"206 161 OFFCURVE",
"128 245 CURVE",
"83 201 OFFCURVE",
"46 156 OFFCURVE",
"15 112 CURVE",
"87 44 OFFCURVE",
"218 -5 OFFCURVE",
"328 -5 CURVE SMOOTH"
);
}
);
width = 650;
}
);
leftKerningGroup = S;
rightKerningGroup = S;
unicode = 0053;
},
{
glyphname = T;
layers = (
{
layerId = "F446C85F-564E-4F2C-825C-C389DAA66B11";
paths = (
{
closed = 1;
nodes = (
"486 203 OFFCURVE",
"483 525 OFFCURVE",
"479 699 CURVE",
"291 699 LINE",
"288 497 OFFCURVE",
"285 166 OFFCURVE",
"285 2 CURVE",
"349 0 OFFCURVE",
"435 -2 OFFCURVE",
"486 -2 CURVE"
);
},
{
closed = 1;
nodes = (
"225 660 OFFCURVE",
"487 663 OFFCURVE",
"755 668 CURVE",
"753 753 LINE",
"601 755 OFFCURVE",
"181 757 OFFCURVE",
"17 757 CURVE",
"15 660 LINE"
);
}
);
width = 770;
}
);
leftKerningGroup = T;
rightKerningGroup = T;
unicode = 0054;
},
{
glyphname = U;
layers = (
{
anchors = (
{
name = top;
position = "{410, 880}";
}
);
layerId = "F446C85F-564E-4F2C-825C-C389DAA66B11";
paths = (
{
closed = 1;
nodes = (
"620 -5 OFFCURVE",
"703 151 OFFCURVE",
"703 614 CURVE SMOOTH",
"703 667 OFFCURVE",
"702 717 OFFCURVE",
"700 756 CURVE",
"581 754 LINE",
"586 636 OFFCURVE",
"588 565 OFFCURVE",
"588 502 CURVE SMOOTH",
"588 203 OFFCURVE",
"544 99 OFFCURVE",
"416 99 CURVE SMOOTH",
"277 99 OFFCURVE",
"229 223 OFFCURVE",
"229 584 CURVE SMOOTH",
"229 636 OFFCURVE",
"230 692 OFFCURVE",
"232 753 CURVE",
"185 756 OFFCURVE",
"120 757 OFFCURVE",
"33 757 CURVE",
"31 728 OFFCURVE",
"30 682 OFFCURVE",
"30 629 CURVE SMOOTH",
"30 159 OFFCURVE",
"119 -5 OFFCURVE",
"372 -5 CURVE SMOOTH"
);
}
);
width = 733;
}
);
leftKerningGroup = U;
rightKerningGroup = U;
unicode = 0055;
},
{
glyphname = V;
layers = (
{
layerId = "F446C85F-564E-4F2C-825C-C389DAA66B11";
paths = (
{
closed = 1;
nodes = (
"463 0 LINE",
"567 240 OFFCURVE",
"661 503 OFFCURVE",
"735 758 CURVE",
"615 766 LINE",
"541 484 OFFCURVE",
"466 226 OFFCURVE",
"422 107 CURVE",
"373 244 OFFCURVE",
"289 531 OFFCURVE",
"229 770 CURVE",
"162 770 OFFCURVE",
"96 764 OFFCURVE",
"15 750 CURVE",
"108 464 OFFCURVE",
"203 197 OFFCURVE",
"287 -10 CURVE"
);
}
);
width = 750;
}
);
leftKerningGroup = V;
rightKerningGroup = V;
unicode = 0056;
},
{
glyphname = W;
layers = (
{
layerId = "F446C85F-564E-4F2C-825C-C389DAA66B11";
paths = (
{
closed = 1;
nodes = (
"430 277 OFFCURVE",
"495 526 OFFCURVE",
"540 748 CURVE",
"408 750 LINE",
"399 639 OFFCURVE",
"361 427 OFFCURVE",
"302 167 CURVE",
"278 301 OFFCURVE",
"247 545 OFFCURVE",
"226 770 CURVE",
"159 770 OFFCURVE",
"87 763 OFFCURVE",
"15 750 CURVE",
"51 488 OFFCURVE",
"103 224 OFFCURVE",
"165 -2 CURVE",
"340 -8 LINE"
);
},
{
closed = 1;
nodes = (
"735 -2 LINE",
"793 222 OFFCURVE",
"848 500 OFFCURVE",
"885 758 CURVE",
"777 766 LINE",
"772 640 OFFCURVE",
"738 382 OFFCURVE",
"696 167 CURVE",
"616 499 OFFCURVE",
"581 657 OFFCURVE",
"566 760 CURVE",
"520 760 OFFCURVE",
"464 756 OFFCURVE",
"408 750 CURVE",
"441 577 OFFCURVE",
"513 274 OFFCURVE",
"589 -8 CURVE"
);
}
);
width = 900;
}
);
leftKerningGroup = W;
rightKerningGroup = W;
unicode = 0057;
},
{
glyphname = X;
layers = (
{
layerId = "F446C85F-564E-4F2C-825C-C389DAA66B11";
paths = (
{
closed = 1;
nodes = (
"576 -6 OFFCURVE",
"655 -1 OFFCURVE",
"715 6 CURVE",
"571 256 OFFCURVE",
"385 546 OFFCURVE",
"230 762 CURVE",
"175 762 OFFCURVE",
"80 756 OFFCURVE",
"15 748 CURVE",
"182 508 OFFCURVE",
"365 230 OFFCURVE",
"510 -6 CURVE"
);
},
{
closed = 1;
nodes = (
"284 202 OFFCURVE",
"458 453 OFFCURVE",
"675 750 CURVE",
"565 760 LINE",
"349 469 OFFCURVE",
"169 212 OFFCURVE",
"35 5 CURVE",
"151 -5 LINE"
);
}
);
width = 730;
}
);
leftKerningGroup = X;
rightKerningGroup = X;
unicode = 0058;
},
{
glyphname = Y;
layers = (
{
anchors = (
{
name = top;
position = "{400, 880}";
}
);
layerId = "F446C85F-564E-4F2C-825C-C389DAA66B11";
paths = (
{
closed = 1;
nodes = (
"488 113 OFFCURVE",
"483 254 OFFCURVE",
"476 352 CURVE",
"363 517 OFFCURVE",
"270 667 OFFCURVE",
"217 770 CURVE",
"132 761 OFFCURVE",
"54 747 OFFCURVE",
"15 734 CURVE",
"68 648 OFFCURVE",
"184 483 OFFCURVE",
"294 340 CURVE",
"289 240 OFFCURVE",
"286 98 OFFCURVE",
"286 2 CURVE",
"334 0 OFFCURVE",
"421 -2 OFFCURVE",
"488 -2 CURVE"
);
},
{
closed = 1;
nodes = (
"567 460 OFFCURVE",
"685 628 OFFCURVE",
"755 743 CURVE",
"643 767 LINE",
"567 623 OFFCURVE",
"479 480 OFFCURVE",
"384 349 CURVE",
"460 323 LINE"
);
}
);
width = 770;
}
);
leftKerningGroup = Y;
rightKerningGroup = Y;
unicode = 0059;
},
{
glyphname = Z;
layers = (
{
layerId = "F446C85F-564E-4F2C-825C-C389DAA66B11";
paths = (
{
closed = 1;
nodes = (
"627 103 LINE",
"506 92 OFFCURVE",
"366 83 OFFCURVE",
"241 78 CURVE",
"431 373 OFFCURVE",
"532 535 OFFCURVE",
"615 682 CURVE",
"593 753 LINE",
"433 756 OFFCURVE",
"257 757 OFFCURVE",
"45 757 CURVE",
"52 657 LINE",
"163 668 OFFCURVE",
"313 678 OFFCURVE",
"421 682 CURVE",
"329 523 OFFCURVE",
"202 329 OFFCURVE",
"30 88 CURVE",
"52 2 LINE",
"234 -1 OFFCURVE",
"447 -2 OFFCURVE",
"630 -2 CURVE"
);
}
);
width = 660;
}
);
leftKerningGroup = Z;
rightKerningGroup = Z;
unicode = 005A;
},
{
glyphname = A.full;
layers = (
{
anchors = (
{
name = top;
position = "{413, 895.4}";
}
);
layerId = "F446C85F-564E-4F2C-825C-C389DAA66B11";
paths = (
{
closed = 1;
nodes = (
"400 149 OFFCURVE",
"472 155 OFFCURVE",
"546 165 CURVE",
"530 249 LINE",
"498 246 OFFCURVE",
"455 245 OFFCURVE",
"413 245 CURVE SMOOTH",
"311 245 OFFCURVE",
"233 251 OFFCURVE",
"151 267 CURVE",
"146 157 LINE",
"205 151 OFFCURVE",
"265 149 OFFCURVE",
"318 149 CURVE SMOOTH"
);
},
{
closed = 1;
nodes = (
"635 -21 OFFCURVE",
"704 -15 OFFCURVE",
"786 -1 CURVE",
"684 307 OFFCURVE",
"585 578 OFFCURVE",
"500 782 CURVE",
"433 782 OFFCURVE",
"367 776 OFFCURVE",
"316 771 CURVE",
"206 521 OFFCURVE",
"108 252 OFFCURVE",
"30 -7 CURVE",
"156 -15 LINE",
"242 304 OFFCURVE",
"316 549 OFFCURVE",
"359 661 CURVE",
"411 517 OFFCURVE",
"499 218 OFFCURVE",
"561 -21 CURVE"
);
}
);
width = 816;
}
);
leftKerningGroup = A;
rightKerningGroup = A;
unicode = FF21;
},
{
glyphname = B.full;
layers = (
{
layerId = "F446C85F-564E-4F2C-825C-C389DAA66B11";
paths = (
{
closed = 1;
nodes = (
"478 -15 OFFCURVE",
"652 85 OFFCURVE",
"652 224 CURVE SMOOTH",
"652 317 OFFCURVE",
"574 397 OFFCURVE",
"456 429 CURVE",
"556 470 OFFCURVE",
"607 526 OFFCURVE",
"607 599 CURVE SMOOTH",
"607 713 OFFCURVE",
"485 778 OFFCURVE",
"275 778 CURVE SMOOTH",
"216 778 OFFCURVE",
"146 772 OFFCURVE",
"70 764 CURVE",
"70 549 OFFCURVE",
"75 91 OFFCURVE",
"79 -5 CURVE",
"133 -12 OFFCURVE",
"187 -15 OFFCURVE",
"230 -15 CURVE SMOOTH"
);
},
{
closed = 1;
nodes = (
"241 210 OFFCURVE",
"235 428 OFFCURVE",
"235 702 CURVE",
"344 702 OFFCURVE",
"437 643 OFFCURVE",
"437 572 CURVE SMOOTH",
"437 501 OFFCURVE",
"345 440 OFFCURVE",
"220 425 CURVE",
"222 371 LINE",
"346 362 OFFCURVE",
"466 273 OFFCURVE",
"466 188 CURVE SMOOTH",
"466 114 OFFCURVE",
"374 58 OFFCURVE",
"254 56 CURVE"
);
}
);
width = 691;
}
);
leftKerningGroup = H;
rightKerningGroup = B;
unicode = FF22;
},
{
glyphname = C.full;
layers = (
{
anchors = (
{
name = bottom;
position = "{397, -11}";
}
);
layerId = "F446C85F-564E-4F2C-825C-C389DAA66B11";
paths = (
{
closed = 1;
nodes = (
"540 -15 OFFCURVE",
"647 33 OFFCURVE",
"733 128 CURVE",
"635 203 LINE",
"595 132 OFFCURVE",
"518 79 OFFCURVE",
"456 79 CURVE SMOOTH",
"341 79 OFFCURVE",
"225 266 OFFCURVE",
"225 451 CURVE SMOOTH",
"225 592 OFFCURVE",
"293 683 OFFCURVE",
"395 683 CURVE SMOOTH",
"472 683 OFFCURVE",
"535 632 OFFCURVE",
"590 527 CURVE",
"635 551 OFFCURVE",
"682 592 OFFCURVE",
"733 650 CURVE",
"671 728 OFFCURVE",
"559 778 OFFCURVE",
"441 778 CURVE SMOOTH",
"213 778 OFFCURVE",
"40 596 OFFCURVE",
"40 359 CURVE SMOOTH",
"40 137 OFFCURVE",
"193 -15 OFFCURVE",
"415 -15 CURVE SMOOTH"
);
}
);
width = 763;
}
);
leftKerningGroup = O;
rightKerningGroup = C;
unicode = FF23;
},
{
glyphname = D.full;
layers = (
{
layerId = "F446C85F-564E-4F2C-825C-C389DAA66B11";
paths = (
{
closed = 1;
nodes = (
"535 -15 OFFCURVE",
"721 127 OFFCURVE",
"721 393 CURVE SMOOTH",
"721 646 OFFCURVE",
"554 778 OFFCURVE",
"232 778 CURVE SMOOTH",
"183 778 OFFCURVE",
"131 774 OFFCURVE",
"77 767 CURVE",
"72 611 OFFCURVE",
"70 289 OFFCURVE",
"70 -10 CURVE",
"112 -13 OFFCURVE",
"157 -15 OFFCURVE",
"198 -15 CURVE SMOOTH"
);
},
{
closed = 1;
nodes = (
"255 236 OFFCURVE",
"259 601 OFFCURVE",
"262 694 CURVE",
"448 677 OFFCURVE",
"535 567 OFFCURVE",
"535 352 CURVE SMOOTH",
"535 149 OFFCURVE",
"455 70 OFFCURVE",
"255 70 CURVE"
);
}
);
width = 760;
}
);
leftKerningGroup = H;
rightKerningGroup = O;
unicode = FF24;
},
{
glyphname = E.full;
layers = (
{
anchors = (
{
name = top;
position = "{361.4, 895.4}";
}
);
layerId = "F446C85F-564E-4F2C-825C-C389DAA66B11";
paths = (
{
closed = 1;
nodes = (
"655 88 LINE",
"288 82 LINE",
"283 232 OFFCURVE",
"281 457 OFFCURVE",
"281 673 CURVE",
"656 668 LINE",
"652 772 LINE",
"523 766 OFFCURVE",
"224 761 OFFCURVE",
"71 761 CURVE",
"71 642 OFFCURVE",
"90 109 OFFCURVE",
"98 -6 CURVE",
"361 -6 OFFCURVE",
"576 -10 OFFCURVE",
"651 -16 CURVE"
);
},
{
closed = 1;
nodes = (
"635 440 LINE",
"215 426 LINE",
"215 344 LINE",
"631 327 LINE"
);
}
);
width = 704;
}
);
leftKerningGroup = H;
rightKerningGroup = E;
unicode = FF25;
},
{
glyphname = F.full;
layers = (
{
layerId = "F446C85F-564E-4F2C-825C-C389DAA66B11";
paths = (
{
closed = 1;
nodes = (
"279 205 OFFCURVE",
"274 440 OFFCURVE",
"266 685 CURVE",
"621 674 LINE",
"626 772 LINE",
"525 766 OFFCURVE",
"269 761 OFFCURVE",
"78 761 CURVE",
"75 668 OFFCURVE",
"68 154 OFFCURVE",
"68 -10 CURVE",
"279 -13 LINE"
);
},
{
closed = 1;
nodes = (
"610 467 LINE",
"217 464 LINE",
"223 387 LINE",
"602 366 LINE"
);
}
);
width = 676;
}
);
leftKerningGroup = H;
rightKerningGroup = F;
unicode = FF26;
},
{
glyphname = G.full;
layers = (
{
layerId = "F446C85F-564E-4F2C-825C-C389DAA66B11";
paths = (
{
closed = 1;
nodes = (
"515 -15 OFFCURVE",
"639 31 OFFCURVE",
"717 103 CURVE",
"717 213 OFFCURVE",
"712 346 OFFCURVE",
"706 389 CURVE",
"525 384 LINE",
"534 315 OFFCURVE",
"545 186 OFFCURVE",
"548 128 CURVE",
"542 98 OFFCURVE",
"502 75 OFFCURVE",
"455 75 CURVE SMOOTH",
"330 75 OFFCURVE",
"225 239 OFFCURVE",
"225 436 CURVE SMOOTH",
"225 594 OFFCURVE",
"294 688 OFFCURVE",
"411 688 CURVE SMOOTH",
"497 688 OFFCURVE",
"566 637 OFFCURVE",
"615 540 CURVE",
"663 572 OFFCURVE",
"708 612 OFFCURVE",
"754 663 CURVE",
"698 733 OFFCURVE",
"586 778 OFFCURVE",
"462 778 CURVE SMOOTH",
"217 778 OFFCURVE",
"41 604 OFFCURVE",
"41 363 CURVE SMOOTH",
"41 141 OFFCURVE",
"190 -15 OFFCURVE",
"400 -15 CURVE SMOOTH"
);
},
{
closed = 1;
nodes = (
"784 418 LINE",
"683 413 OFFCURVE",
"544 410 OFFCURVE",
"397 410 CURVE",
"400 332 LINE",
"462 326 OFFCURVE",
"609 323 OFFCURVE",
"780 323 CURVE"
);
}
);
width = 823;
}
);
leftKerningGroup = O;
rightKerningGroup = G;
unicode = FF27;
},
{
glyphname = H.full;
layers = (
{
layerId = "F446C85F-564E-4F2C-825C-C389DAA66B11";
paths = (
{
closed = 1;
nodes = (
"741 208 OFFCURVE",
"740 542 OFFCURVE",
"732 771 CURVE",
"670 771 OFFCURVE",
"608 768 OFFCURVE",
"547 764 CURVE",
"547 434 OFFCURVE",
"546 133 OFFCURVE",
"540 -8 CURVE",
"605 -11 OFFCURVE",
"668 -12 OFFCURVE",
"741 -12 CURVE"
);
},
{
closed = 1;
nodes = (
"145 -12 OFFCURVE",
"207 -11 OFFCURVE",
"269 -8 CURVE",
"260 202 OFFCURVE",
"256 465 OFFCURVE",
"256 764 CURVE",
"211 767 OFFCURVE",
"157 768 OFFCURVE",
"76 768 CURVE",
"70 588 OFFCURVE",
"69 277 OFFCURVE",
"69 -12 CURVE"
);
},
{
closed = 1;
nodes = (
"582 439 LINE",
"463 431 OFFCURVE",
"344 426 OFFCURVE",
"228 426 CURVE",
"237 337 LINE",
"314 332 OFFCURVE",
"412 330 OFFCURVE",
"574 330 CURVE"
);
}
);
width = 811;
}
);
leftKerningGroup = H;
rightKerningGroup = H;
unicode = FF28;
},
{
glyphname = I.full;
layers = (
{
anchors = (
{
name = top;
position = "{215, 895.4}";
}
);
layerId = "F446C85F-564E-4F2C-825C-C389DAA66B11";
paths = (
{
closed = 1;
nodes = (
"176 -11 OFFCURVE",
"254 -10 OFFCURVE",
"331 -8 CURVE",
"321 97 OFFCURVE",
"316 230 OFFCURVE",
"316 417 CURVE SMOOTH",
"316 502 OFFCURVE",
"317 641 OFFCURVE",
"321 765 CURVE",
"294 768 OFFCURVE",
"255 770 OFFCURVE",
"217 770 CURVE SMOOTH",
"170 770 OFFCURVE",
"126 767 OFFCURVE",
"109 765 CURVE",
"111 710 OFFCURVE",
"112 584 OFFCURVE",
"112 497 CURVE SMOOTH",
"112 324 OFFCURVE",
"108 155 OFFCURVE",
"100 -11 CURVE"
);
}
);
width = 430;
}
);
leftKerningGroup = I;
rightKerningGroup = I;
unicode = FF29;
},
{
glyphname = J.full;
layers = (
{
layerId = "F446C85F-564E-4F2C-825C-C389DAA66B11";
paths = (
{
closed = 1;
nodes = (
"522 -16 OFFCURVE",
"583 99 OFFCURVE",
"583 589 CURVE SMOOTH",
"583 654 OFFCURVE",
"582 741 OFFCURVE",
"581 770 CURVE",
"511 770 OFFCURVE",
"440 768 OFFCURVE",
"370 764 CURVE",
"373 671 OFFCURVE",
"375 570 OFFCURVE",
"375 482 CURVE SMOOTH",
"375 150 OFFCURVE",
"346 71 OFFCURVE",
"259 71 CURVE SMOOTH",
"223 71 OFFCURVE",
"173 85 OFFCURVE",
"53 126 CURVE",
"31 46 LINE",
"111 7 OFFCURVE",
"207 -16 OFFCURVE",
"303 -16 CURVE SMOOTH"
);
}
);
width = 652;
}
);
leftKerningGroup = J;
rightKerningGroup = U;
unicode = FF2A;
},
{
glyphname = K.full;
layers = (
{
layerId = "F446C85F-564E-4F2C-825C-C389DAA66B11";
paths = (
{
closed = 1;
nodes = (
"415 397 OFFCURVE",
"586 579 OFFCURVE",
"717 751 CURVE",
"574 782 LINE",
"438 579 OFFCURVE",
"310 418 OFFCURVE",
"166 270 CURVE",
"214 217 LINE"
);
},
{
closed = 1;
nodes = (
"255 -10 LINE",
"255 213 OFFCURVE",
"257 552 OFFCURVE",
"264 764 CURVE",
"75 768 LINE",
"71 661 OFFCURVE",
"70 148 OFFCURVE",
"70 -12 CURVE"
);
},
{
closed = 1;
nodes = (
"601 -16 OFFCURVE",
"672 -10 OFFCURVE",
"747 2 CURVE",
"675 182 OFFCURVE",
"580 375 OFFCURVE",
"494 517 CURVE",
"342 432 LINE",
"412 289 OFFCURVE",
"485 111 OFFCURVE",
"523 -16 CURVE"
);
}
);
width = 777;
}
);
leftKerningGroup = H;
rightKerningGroup = K;
unicode = FF2B;
},
{
glyphname = L.full;
layers = (
{
layerId = "F446C85F-564E-4F2C-825C-C389DAA66B11";
paths = (
{
closed = 1;
nodes = (
"671 76 LINE",
"567 70 OFFCURVE",
"423 66 OFFCURVE",
"278 66 CURVE",
"286 269 OFFCURVE",
"289 566 OFFCURVE",
"289 768 CURVE",
"189 768 OFFCURVE",
"101 767 OFFCURVE",
"70 766 CURVE",
"70 524 OFFCURVE",
"76 273 OFFCURVE",
"88 -10 CURVE",
"360 -10 OFFCURVE",
"609 -13 OFFCURVE",
"674 -16 CURVE"
);
}
);
width = 703;
}
);
leftKerningGroup = H;
rightKerningGroup = L;
unicode = FF2C;
},
{
glyphname = M.full;
layers = (
{
layerId = "F446C85F-564E-4F2C-825C-C389DAA66B11";
paths = (
{
closed = 1;
nodes = (
"168 586 LINE",
"225 440 OFFCURVE",
"295 279 OFFCURVE",
"368 123 CURVE",
"520 128 LINE",
"603 302 OFFCURVE",
"667 447 OFFCURVE",
"720 582 CURVE",
"720 412 OFFCURVE",
"716 195 OFFCURVE",
"708 -13 CURVE",
"774 -13 OFFCURVE",
"862 -11 OFFCURVE",
"910 -9 CURVE",
"904 178 OFFCURVE",
"902 584 OFFCURVE",
"902 771 CURVE",
"849 777 OFFCURVE",
"770 782 OFFCURVE",
"695 782 CURVE",
"617 580 OFFCURVE",
"552 423 OFFCURVE",
"488 287 CURVE",
"428 417 OFFCURVE",
"354 598 OFFCURVE",
"284 784 CURVE",
"226 784 OFFCURVE",
"157 778 OFFCURVE",
"79 770 CURVE",
"70 -9 LINE",
"186 -13 LINE"
);
}
);
width = 979;
}
);
leftKerningGroup = M;
rightKerningGroup = H;
unicode = FF2D;
},
{
glyphname = N.full;
layers = (
{
anchors = (
{
name = top;
position = "{407.6, 895.4}";
}
);
layerId = "F446C85F-564E-4F2C-825C-C389DAA66B11";
paths = (
{
closed = 1;
nodes = (
"176.6 554.47 LINE",
"248 454.56 OFFCURVE",
"333.05 327.87 OFFCURVE",
"557.75 -13.06 CURVE",
"611.3 -13.06 OFFCURVE",
"698.45 -11 OFFCURVE",
"752 -8.94 CURVE",
"762.5 764.59 LINE",
"724.7 767.68 OFFCURVE",
"684.8 768.71 OFFCURVE",
"640.7 768.71 CURVE",
"656.45 205.3 LINE",
"543.05 382.46 OFFCURVE",
"411.8 579.19 OFFCURVE",
"281.6 768.71 CURVE",
"193.4 768.71 OFFCURVE",
"127.25 767.68 OFFCURVE",
"87.35 764.59 CURVE",
"69.5 -7.91 LINE",
"111.5 -12.03 OFFCURVE",
"148.25 -14.09 OFFCURVE",
"191.3 -14.09 CURVE"
);
}
);
width = 832;
}
);
leftKerningGroup = M;
rightKerningGroup = N;
unicode = FF2E;
},
{
glyphname = O.full;
layers = (
{
anchors = (
{
name = top;
position = "{418, 895.4}";
}
);
layerId = "F446C85F-564E-4F2C-825C-C389DAA66B11";
paths = (
{
closed = 1;
nodes = (
"636.4 -16.15 OFFCURVE",
"796 151.74 OFFCURVE",
"796 380.4 CURVE SMOOTH",
"796 609.06 OFFCURVE",
"636.4 776.95 OFFCURVE",
"418 776.95 CURVE SMOOTH",
"199.6 776.95 OFFCURVE",
"40 609.06 OFFCURVE",
"40 380.4 CURVE SMOOTH",
"40 151.74 OFFCURVE",
"199.6 -16.15 OFFCURVE",
"418 -16.15 CURVE SMOOTH"
);
},
{
closed = 1;
nodes = (
"320.35 70.37 OFFCURVE",
"226.9 221.78 OFFCURVE",
"226.9 416.45 CURVE SMOOTH",
"226.9 581.25 OFFCURVE",
"294.1 690.43 OFFCURVE",
"395.95 690.43 CURVE SMOOTH",
"515.65 690.43 OFFCURVE",
"609.1 539.02 OFFCURVE",
"609.1 344.35 CURVE SMOOTH",
"609.1 179.55 OFFCURVE",
"541.9 70.37 OFFCURVE",
"440.05 70.37 CURVE SMOOTH"
);
}
);
width = 836;
}
);
leftKerningGroup = O;
rightKerningGroup = O;
unicode = FF2F;
},
{
glyphname = P.full;
layers = (
{
layerId = "F446C85F-564E-4F2C-825C-C389DAA66B11";
paths = (
{
closed = 1;
nodes = (
"124.1 -13.06 OFFCURVE",
"187.1 -12.03 OFFCURVE",
"263.75 -8.94 CURVE",
"263.75 253.71 OFFCURVE",
"256.4 564.77 OFFCURVE",
"246.95 696.61 CURVE",
"392.9 696.61 OFFCURVE",
"484.25 620.39 OFFCURVE",
"484.25 496.79 CURVE SMOOTH",
"484.25 377.31 OFFCURVE",
"399.2 321.69 OFFCURVE",
"228.05 328.9 CURVE",
"228.05 243.41 LINE",
"493.7 246.5 OFFCURVE",
"678.5 367.01 OFFCURVE",
"678.5 535.93 CURVE SMOOTH",
"678.5 690.43 OFFCURVE",
"524.15 777.98 OFFCURVE",
"278.45 777.98 CURVE SMOOTH",
"213.35 777.98 OFFCURVE",
"138.8 771.8 OFFCURVE",
"69.5 761.5 CURVE",
"72.65 597.73 OFFCURVE",
"74.75 288.73 OFFCURVE",
"74.75 -13.06 CURVE"
);
}
);
width = 708;
}
);
leftKerningGroup = H;
rightKerningGroup = P;
unicode = FF30;
},
{
glyphname = Q.full;
layers = (
{
layerId = "F446C85F-564E-4F2C-825C-C389DAA66B11";
paths = (
{
closed = 1;
nodes = (
"636.4 -16.15 OFFCURVE",
"796 151.74 OFFCURVE",
"796 380.4 CURVE SMOOTH",
"796 609.06 OFFCURVE",
"636.4 776.95 OFFCURVE",
"418 776.95 CURVE SMOOTH",
"199.6 776.95 OFFCURVE",
"40 609.06 OFFCURVE",
"40 380.4 CURVE SMOOTH",
"40 151.74 OFFCURVE",
"199.6 -16.15 OFFCURVE",
"418 -16.15 CURVE SMOOTH"
);
},
{
closed = 1;
nodes = (
"652.15 -53.23 OFFCURVE",
"736.15 -24.39 OFFCURVE",
"785.5 2.39 CURVE",
"726.7 149.68 OFFCURVE",
"591.25 255.77 OFFCURVE",
"462.1 255.77 CURVE SMOOTH",
"374.95 255.77 OFFCURVE",
"296.2 207.36 OFFCURVE",
"242.65 119.81 CURVE",
"330.85 74.49 LINE",
"356.05 130.11 OFFCURVE",
"390.7 158.95 OFFCURVE",
"433.75 158.95 CURVE SMOOTH",
"498.85 158.95 OFFCURVE",
"546.1 92 OFFCURVE",
"593.35 -65.59 CURVE"
);
},
{
closed = 1;
nodes = (
"320.35 70.37 OFFCURVE",
"226.9 221.78 OFFCURVE",
"226.9 416.45 CURVE SMOOTH",
"226.9 581.25 OFFCURVE",
"294.1 690.43 OFFCURVE",
"395.95 690.43 CURVE SMOOTH",
"515.65 690.43 OFFCURVE",
"609.1 539.02 OFFCURVE",
"609.1 344.35 CURVE SMOOTH",
"609.1 179.55 OFFCURVE",
"541.9 70.37 OFFCURVE",
"440.05 70.37 CURVE SMOOTH"
);
}
);
width = 836;
}
);
leftKerningGroup = O;
rightKerningGroup = Q;
unicode = FF31;
},
{
glyphname = R.full;
layers = (
{
layerId = "F446C85F-564E-4F2C-825C-C389DAA66B11";
paths = (
{
closed = 1;
nodes = (
"531.5 -19.24 OFFCURVE",
"654.35 -4.82 OFFCURVE",
"699.5 3.42 CURVE",
"666.95 83.76 OFFCURVE",
"529.4 306.24 OFFCURVE",
"472.7 370.1 CURVE",
"584 393.79 OFFCURVE",
"668 482.37 OFFCURVE",
"668 575.07 CURVE SMOOTH",
"668 701.76 OFFCURVE",
"510.5 776.95 OFFCURVE",
"275.3 776.95 CURVE SMOOTH",
"213.35 776.95 OFFCURVE",
"140.9 771.8 OFFCURVE",
"69.5 761.5 CURVE",
"72.65 588.46 OFFCURVE",
"74.75 282.55 OFFCURVE",
"74.75 -8.94 CURVE",
"125.15 -11 OFFCURVE",
"200.75 -13.06 OFFCURVE",
"263.75 -13.06 CURVE",
"263.75 260.92 OFFCURVE",
"256.4 574.04 OFFCURVE",
"246.95 696.61 CURVE",
"383.45 696.61 OFFCURVE",
"484.25 628.63 OFFCURVE",
"484.25 535.93 CURVE SMOOTH",
"484.25 448.38 OFFCURVE",
"392.9 393.79 OFFCURVE",
"238.55 390.7 CURVE",
"238.55 362.89 LINE",
"313.1 321.69 OFFCURVE",
"402.35 183.67 OFFCURVE",
"486.35 -21.3 CURVE"
);
}
);
width = 729;
}
);
leftKerningGroup = H;
rightKerningGroup = R;
unicode = FF32;
},
{
glyphname = S.full;
layers = (
{
layerId = "F446C85F-564E-4F2C-825C-C389DAA66B11";
paths = (
{
closed = 1;
nodes = (
"532.7 -16.15 OFFCURVE",
"680.75 100.24 OFFCURVE",
"680.75 237.23 CURVE SMOOTH",
"680.75 474.13 OFFCURVE",
"235.55 509.15 OFFCURVE",
"235.55 628.63 CURVE SMOOTH",
"235.55 658.5 OFFCURVE",
"262.85 691.46 OFFCURVE",
"317.45 691.46 CURVE SMOOTH",
"392 691.46 OFFCURVE",
"477.05 629.66 OFFCURVE",
"563.15 550.35 CURVE",
"603.05 582.28 OFFCURVE",
"651.35 630.69 OFFCURVE",
"676.55 677.04 CURVE",
"598.85 740.9 OFFCURVE",
"487.55 776.95 OFFCURVE",
"385.7 776.95 CURVE SMOOTH",
"206.15 776.95 OFFCURVE",
"79.1 663.65 OFFCURVE",
"79.1 551.38 CURVE SMOOTH",
"79.1 341.26 OFFCURVE",
"527.45 314.48 OFFCURVE",
"527.45 157.92 CURVE SMOOTH",
"527.45 106.42 OFFCURVE",
"480.2 79.64 OFFCURVE",
"429.8 79.64 CURVE SMOOTH",
"345.8 79.64 OFFCURVE",
"230.3 154.83 OFFCURVE",
"148.4 241.35 CURVE",
"101.15 196.03 OFFCURVE",
"62.3 149.68 OFFCURVE",
"29.75 104.36 CURVE",
"105.35 34.32 OFFCURVE",
"242.9 -16.15 OFFCURVE",
"358.4 -16.15 CURVE SMOOTH"
);
}
);
width = 711;
}
);
leftKerningGroup = S;
rightKerningGroup = S;
unicode = FF33;
},
{
glyphname = T.full;
layers = (
{
layerId = "F446C85F-564E-4F2C-825C-C389DAA66B11";
paths = (
{
closed = 1;
nodes = (
"524.3 198.09 OFFCURVE",
"521.15 529.75 OFFCURVE",
"516.95 708.97 CURVE",
"319.55 708.97 LINE",
"316.4 500.91 OFFCURVE",
"313.25 159.98 OFFCURVE",
"313.25 -8.94 CURVE",
"380.45 -11 OFFCURVE",
"470.75 -13.06 OFFCURVE",
"524.3 -13.06 CURVE"
);
},
{
closed = 1;
nodes = (
"250.25 668.8 OFFCURVE",
"525.35 671.89 OFFCURVE",
"806.75 677.04 CURVE",
"804.65 764.59 LINE",
"645.05 766.65 OFFCURVE",
"204.05 768.71 OFFCURVE",
"31.85 768.71 CURVE",
"29.75 668.8 LINE"
);
}
);
width = 837;
}
);
leftKerningGroup = T;
rightKerningGroup = T;
unicode = FF34;
},
{
glyphname = U.full;
layers = (
{
anchors = (
{
name = top;
position = "{448.5, 895.4}";
}
);
layerId = "F446C85F-564E-4F2C-825C-C389DAA66B11";
paths = (
{
closed = 1;
nodes = (
"669 -16.15 OFFCURVE",
"756.15 144.53 OFFCURVE",
"756.15 621.42 CURVE SMOOTH",
"756.15 676.01 OFFCURVE",
"755.1 727.51 OFFCURVE",
"753 767.68 CURVE",
"628.05 765.62 LINE",
"633.3 644.08 OFFCURVE",
"635.4 570.95 OFFCURVE",
"635.4 506.06 CURVE SMOOTH",
"635.4 198.09 OFFCURVE",
"589.2 90.97 OFFCURVE",
"454.8 90.97 CURVE SMOOTH",
"308.85 90.97 OFFCURVE",
"258.45 218.69 OFFCURVE",
"258.45 590.52 CURVE SMOOTH",
"258.45 644.08 OFFCURVE",
"259.5 701.76 OFFCURVE",
"261.6 764.59 CURVE",
"212.25 767.68 OFFCURVE",
"144 768.71 OFFCURVE",
"52.65 768.71 CURVE",
"50.55 738.84 OFFCURVE",
"49.5 691.46 OFFCURVE",
"49.5 636.87 CURVE SMOOTH",
"49.5 152.77 OFFCURVE",
"142.95 -16.15 OFFCURVE",
"408.6 -16.15 CURVE SMOOTH"
);
}
);
width = 806;
}
);
leftKerningGroup = U;
rightKerningGroup = U;
unicode = FF35;
},
{
glyphname = V.full;
layers = (
{
layerId = "F446C85F-564E-4F2C-825C-C389DAA66B11";
paths = (
{
closed = 1;
nodes = (
"500.15 -11 LINE",
"609.35 236.2 OFFCURVE",
"708.05 507.09 OFFCURVE",
"785.75 769.74 CURVE",
"659.75 777.98 LINE",
"582.05 487.52 OFFCURVE",
"503.3 221.78 OFFCURVE",
"457.1 99.21 CURVE",
"405.65 240.32 OFFCURVE",
"317.45 535.93 OFFCURVE",
"254.45 782.1 CURVE",
"184.1 782.1 OFFCURVE",
"114.8 775.92 OFFCURVE",
"29.75 761.5 CURVE",
"127.4 466.92 OFFCURVE",
"227.15 191.91 OFFCURVE",
"315.35 -21.3 CURVE"
);
}
);
width = 816;
}
);
leftKerningGroup = V;
rightKerningGroup = V;
unicode = FF36;
},
{
glyphname = W.full;
layers = (
{
layerId = "F446C85F-564E-4F2C-825C-C389DAA66B11";
paths = (
{
closed = 1;
nodes = (
"465.5 274.31 OFFCURVE",
"533.75 530.78 OFFCURVE",
"581 759.44 CURVE",
"442.4 761.5 LINE",
"432.95 647.17 OFFCURVE",
"393.05 428.81 OFFCURVE",
"331.1 161.01 CURVE",
"305.9 299.03 OFFCURVE",
"273.35 550.35 OFFCURVE",
"251.3 782.1 CURVE",
"180.95 782.1 OFFCURVE",
"105.35 774.89 OFFCURVE",
"29.75 761.5 CURVE",
"67.55 491.64 OFFCURVE",
"122.15 219.72 OFFCURVE",
"187.25 -13.06 CURVE",
"371 -19.24 LINE"
);
},
{
closed = 1;
nodes = (
"785.75 -13.06 LINE",
"846.65 217.66 OFFCURVE",
"904.4 504 OFFCURVE",
"943.25 769.74 CURVE",
"829.85 777.98 LINE",
"824.6 648.2 OFFCURVE",
"788.9 382.46 OFFCURVE",
"744.8 161.01 CURVE",
"660.8 502.97 OFFCURVE",
"624.05 665.71 OFFCURVE",
"608.3 771.8 CURVE",
"560 771.8 OFFCURVE",
"501.2 767.68 OFFCURVE",
"442.4 761.5 CURVE",
"477.05 583.31 OFFCURVE",
"552.65 271.22 OFFCURVE",
"632.45 -19.24 CURVE"
);
}
);
width = 973;
}
);
leftKerningGroup = W;
rightKerningGroup = W;
unicode = FF37;
},
{
glyphname = X.full;
layers = (
{
layerId = "F446C85F-564E-4F2C-825C-C389DAA66B11";
paths = (
{
closed = 1;
nodes = (
"618.8 -17.18 OFFCURVE",
"701.75 -12.03 OFFCURVE",
"764.75 -4.82 CURVE",
"613.55 252.68 OFFCURVE",
"418.25 551.38 OFFCURVE",
"255.5 773.86 CURVE",
"197.75 773.86 OFFCURVE",
"98 767.68 OFFCURVE",
"29.75 759.44 CURVE",
"205.1 512.24 OFFCURVE",
"397.25 225.9 OFFCURVE",
"549.5 -17.18 CURVE"
);
},
{
closed = 1;
nodes = (
"312.2 197.06 OFFCURVE",
"494.9 455.59 OFFCURVE",
"722.75 761.5 CURVE",
"607.25 771.8 LINE",
"380.45 472.07 OFFCURVE",
"191.45 207.36 OFFCURVE",
"50.75 -5.85 CURVE",
"172.55 -16.15 LINE"
);
}
);
width = 795;
}
);
leftKerningGroup = X;
rightKerningGroup = X;
unicode = FF38;
},
{
glyphname = Y.full;
layers = (
{
anchors = (
{
name = top;
position = "{434, 895.4}";
}
);
layerId = "F446C85F-564E-4F2C-825C-C389DAA66B11";
paths = (
{
closed = 1;
nodes = (
"526.4 105.39 OFFCURVE",
"521.15 250.62 OFFCURVE",
"513.8 351.56 CURVE",
"395.15 521.51 OFFCURVE",
"297.5 676.01 OFFCURVE",
"241.85 782.1 CURVE",
"152.6 772.83 OFFCURVE",
"70.7 758.41 OFFCURVE",
"29.75 745.02 CURVE",
"85.4 656.44 OFFCURVE",
"207.2 486.49 OFFCURVE",
"322.7 339.2 CURVE",
"317.45 236.2 OFFCURVE",
"314.3 89.94 OFFCURVE",
"314.3 -8.94 CURVE",
"364.7 -11 OFFCURVE",
"456.05 -13.06 OFFCURVE",
"526.4 -13.06 CURVE"
);
},
{
closed = 1;
nodes = (
"609.35 462.8 OFFCURVE",
"733.25 635.84 OFFCURVE",
"806.75 754.29 CURVE",
"689.15 779.01 LINE",
"609.35 630.69 OFFCURVE",
"516.95 483.4 OFFCURVE",
"417.2 348.47 CURVE",
"497 321.69 LINE"
);
}
);
width = 837;
}
);
leftKerningGroup = V;
rightKerningGroup = V;
unicode = FF39;
},
{
glyphname = Z.full;
layers = (
{
layerId = "F446C85F-564E-4F2C-825C-C389DAA66B11";
paths = (
{
closed = 1;
nodes = (
"676.35 95.09 LINE",
"549.3 83.76 OFFCURVE",
"402.3 74.49 OFFCURVE",
"271.05 69.34 CURVE",
"470.55 373.19 OFFCURVE",
"576.6 540.05 OFFCURVE",
"663.75 691.46 CURVE",
"640.65 764.59 LINE",
"472.65 767.68 OFFCURVE",
"287.85 768.71 OFFCURVE",
"65.25 768.71 CURVE",
"72.6 665.71 LINE",
"189.15 677.04 OFFCURVE",
"346.65 687.34 OFFCURVE",
"460.05 691.46 CURVE",
"363.45 527.69 OFFCURVE",
"230.1 327.87 OFFCURVE",
"49.5 79.64 CURVE",
"72.6 -8.94 LINE",
"263.7 -12.03 OFFCURVE",
"487.35 -13.06 OFFCURVE",
"679.5 -13.06 CURVE"
);
}
);
width = 729;
}
);
leftKerningGroup = Z;
rightKerningGroup = Z;
unicode = FF3A;
},
{
color = 3;
glyphname = A.rotat;
layers = (
{
anchors = (
{
name = top;
position = "{1000, 500}";
}
);
layerId = "F446C85F-564E-4F2C-825C-C389DAA66B11";
paths = (
{
closed = 1;
nodes = (
"276 513 OFFCURVE",
"281 444 OFFCURVE",
"291 374 CURVE",
"373 389 LINE",
"370 419 OFFCURVE",
"369 460 OFFCURVE",
"369 500 CURVE SMOOTH",
"369 597 OFFCURVE",
"375 672 OFFCURVE",
"390 750 CURVE",
"283 755 LINE",
"278 698 OFFCURVE",
"276 641 OFFCURVE",
"276 591 CURVE SMOOTH"
);
},
{
closed = 1;
nodes = (
"110 289 OFFCURVE",
"116 223 OFFCURVE",
"130 145 CURVE",
"429 242 OFFCURVE",
"692 336 OFFCURVE",
"890 417 CURVE",
"890 481 OFFCURVE",
"885 544 OFFCURVE",
"880 593 CURVE",
"637 697 OFFCURVE",
"376 791 OFFCURVE",
"124 865 CURVE",
"116 745 LINE",
"426 663 OFFCURVE",
"664 593 OFFCURVE",
"773 552 CURVE",
"633 502 OFFCURVE",
"343 418 OFFCURVE",
"110 359 CURVE"
);
}
);
vertWidth = 750;
width = 1000;
}
);
},
{
color = 3;
glyphname = Aacute.rotat;
layers = (
{
anchors = (
{
name = top;
position = "{1000, 500}";
}
);
layerId = "F446C85F-564E-4F2C-825C-C389DAA66B11";
paths = (
{
closed = 1;
nodes = (
"130 145 LINE"
);
},
{
closed = 1;
nodes = (
"1007 350 LINE",
"1103 412 LINE",
"957 650 LINE",
"917 634 LINE"
);
},
{
closed = 1;
nodes = (
"276 513 OFFCURVE",
"281 444 OFFCURVE",
"291 374 CURVE",
"373 389 LINE",
"370 419 OFFCURVE",
"369 460 OFFCURVE",
"369 500 CURVE SMOOTH",
"369 597 OFFCURVE",
"375 672 OFFCURVE",
"390 750 CURVE",
"283 755 LINE",
"278 698 OFFCURVE",
"276 641 OFFCURVE",
"276 591 CURVE SMOOTH"
);
},
{
closed = 1;
nodes = (
"110 289 OFFCURVE",
"116 223 OFFCURVE",
"130 145 CURVE",
"429 242 OFFCURVE",
"692 336 OFFCURVE",
"890 417 CURVE",
"890 481 OFFCURVE",
"885 544 OFFCURVE",
"880 593 CURVE",
"637 697 OFFCURVE",
"376 791 OFFCURVE",
"124 865 CURVE",
"116 745 LINE",
"426 663 OFFCURVE",
"664 593 OFFCURVE",
"773 552 CURVE",
"633 502 OFFCURVE",
"343 418 OFFCURVE",
"110 359 CURVE"
);
}
);
vertWidth = 750;
width = 1000;
}
);
},
{
color = 3;
glyphname = Acircumflex.rotat;
layers = (
{
anchors = (
{
name = top;
position = "{1000, 500}";
}
);
layerId = "F446C85F-564E-4F2C-825C-C389DAA66B11";
paths = (
{
closed = 1;
nodes = (
"1002 500 LINE",
"909 343 LINE",
"939 309 LINE",
"1117 500 LINE",
"939 691 LINE",
"909 657 LINE"
);
},
{
closed = 1;
nodes = (
"276 513 OFFCURVE",
"281 444 OFFCURVE",
"291 374 CURVE",
"373 389 LINE",
"370 419 OFFCURVE",
"369 460 OFFCURVE",
"369 500 CURVE SMOOTH",
"369 597 OFFCURVE",
"375 672 OFFCURVE",
"390 750 CURVE",
"283 755 LINE",
"278 698 OFFCURVE",
"276 641 OFFCURVE",
"276 591 CURVE SMOOTH"
);
},
{
closed = 1;
nodes = (
"110 289 OFFCURVE",
"116 223 OFFCURVE",
"130 145 CURVE",
"429 242 OFFCURVE",
"692 336 OFFCURVE",
"890 417 CURVE",
"890 481 OFFCURVE",
"885 544 OFFCURVE",
"880 593 CURVE",
"637 697 OFFCURVE",
"376 791 OFFCURVE",
"124 865 CURVE",
"116 745 LINE",
"426 663 OFFCURVE",
"664 593 OFFCURVE",
"773 552 CURVE",
"633 502 OFFCURVE",
"343 418 OFFCURVE",
"110 359 CURVE"
);
}
);
vertWidth = 750;
width = 1000;
}
);
},
{
color = 3;
glyphname = Adieresis.rotat;
layers = (
{
anchors = (
{
name = top;
position = "{1000, 500}";
}
);
layerId = "F446C85F-564E-4F2C-825C-C389DAA66B11";
paths = (
{
closed = 1;
nodes = (
"933 335 LINE",
"1077 335 LINE",
"1077 455 LINE",
"933 455 LINE"
);
},
{
closed = 1;
nodes = (
"933 545 LINE",
"1077 545 LINE",
"1077 665 LINE",
"933 665 LINE"
);
},
{
closed = 1;
nodes = (
"276 513 OFFCURVE",
"281 444 OFFCURVE",
"291 374 CURVE",
"373 389 LINE",
"370 419 OFFCURVE",
"369 460 OFFCURVE",
"369 500 CURVE SMOOTH",
"369 597 OFFCURVE",
"375 672 OFFCURVE",
"390 750 CURVE",
"283 755 LINE",
"278 698 OFFCURVE",
"276 641 OFFCURVE",
"276 591 CURVE SMOOTH"
);
},
{
closed = 1;
nodes = (
"110 289 OFFCURVE",
"116 223 OFFCURVE",
"130 145 CURVE",
"429 242 OFFCURVE",
"692 336 OFFCURVE",
"890 417 CURVE",
"890 481 OFFCURVE",
"885 544 OFFCURVE",
"880 593 CURVE",
"637 697 OFFCURVE",
"376 791 OFFCURVE",
"124 865 CURVE",
"116 745 LINE",
"426 663 OFFCURVE",
"664 593 OFFCURVE",
"773 552 CURVE",
"633 502 OFFCURVE",
"343 418 OFFCURVE",
"110 359 CURVE"
);
}
);
vertWidth = 750;
width = 1000;
}
);
},
{
color = 3;
glyphname = Agrave.rotat;
layers = (
{
anchors = (
{
name = top;
position = "{1000, 500}";
}
);
layerId = "F446C85F-564E-4F2C-825C-C389DAA66B11";
paths = (
{
closed = 1;
nodes = (
"957 350 LINE",
"1103 588 LINE",
"1007 650 LINE",
"917 366 LINE"
);
},
{
closed = 1;
nodes = (
"276 513 OFFCURVE",
"281 444 OFFCURVE",
"291 374 CURVE",
"373 389 LINE",
"370 419 OFFCURVE",
"369 460 OFFCURVE",
"369 500 CURVE SMOOTH",
"369 597 OFFCURVE",
"375 672 OFFCURVE",
"390 750 CURVE",
"283 755 LINE",
"278 698 OFFCURVE",
"276 641 OFFCURVE",
"276 591 CURVE SMOOTH"
);
},
{
closed = 1;
nodes = (
"110 289 OFFCURVE",
"116 223 OFFCURVE",
"130 145 CURVE",
"429 242 OFFCURVE",
"692 336 OFFCURVE",
"890 417 CURVE",
"890 481 OFFCURVE",
"885 544 OFFCURVE",
"880 593 CURVE",
"637 697 OFFCURVE",
"376 791 OFFCURVE",
"124 865 CURVE",
"116 745 LINE",
"426 663 OFFCURVE",
"664 593 OFFCURVE",
"773 552 CURVE",
"633 502 OFFCURVE",
"343 418 OFFCURVE",
"110 359 CURVE"
);
}
);
vertWidth = 750;
width = 1000;
}
);
},
{
color = 3;
glyphname = Aring.rotat;
layers = (
{
anchors = (
{
name = top;
position = "{1000, 500}";
}
);
layerId = "F446C85F-564E-4F2C-825C-C389DAA66B11";
paths = (
{
closed = 1;
nodes = (
"868 428 OFFCURVE",
"912 382 OFFCURVE",
"978 382 CURVE SMOOTH",
"1046 382 OFFCURVE",
"1092 430 OFFCURVE",
"1092 502 CURVE SMOOTH",
"1092 572 OFFCURVE",
"1048 618 OFFCURVE",
"982 618 CURVE SMOOTH",
"914 618 OFFCURVE",
"868 570 OFFCURVE",
"868 498 CURVE SMOOTH"
);
},
{
closed = 1;
nodes = (
"906 516 OFFCURVE",
"942 532 OFFCURVE",
"992 532 CURVE SMOOTH",
"1032 532 OFFCURVE",
"1054 523 OFFCURVE",
"1054 506 CURVE SMOOTH",
"1054 484 OFFCURVE",
"1018 468 OFFCURVE",
"968 468 CURVE SMOOTH",
"928 468 OFFCURVE",
"906 477 OFFCURVE",
"906 494 CURVE SMOOTH"
);
},
{
closed = 1;
nodes = (
"276 513 OFFCURVE",
"281 444 OFFCURVE",
"291 374 CURVE",
"373 389 LINE",
"370 419 OFFCURVE",
"369 460 OFFCURVE",
"369 500 CURVE SMOOTH",
"369 597 OFFCURVE",
"375 672 OFFCURVE",
"390 750 CURVE",
"283 755 LINE",
"278 698 OFFCURVE",
"276 641 OFFCURVE",
"276 591 CURVE SMOOTH"
);
},
{
closed = 1;
nodes = (
"110 289 OFFCURVE",
"116 223 OFFCURVE",
"130 145 CURVE",
"429 242 OFFCURVE",
"692 336 OFFCURVE",
"890 417 CURVE",
"890 481 OFFCURVE",
"885 544 OFFCURVE",
"880 593 CURVE",
"637 697 OFFCURVE",
"376 791 OFFCURVE",
"124 865 CURVE",
"116 745 LINE",
"426 663 OFFCURVE",
"664 593 OFFCURVE",
"773 552 CURVE",
"633 502 OFFCURVE",
"343 418 OFFCURVE",
"110 359 CURVE"
);
}
);
vertWidth = 750;
width = 1000;
}
);
},
{
color = 3;
glyphname = Atilde.rotat;
layers = (
{
anchors = (
{
name = top;
position = "{1000, 500}";
}
);
layerId = "F446C85F-564E-4F2C-825C-C389DAA66B11";
paths = (
{
closed = 1;
nodes = (
"927 396 OFFCURVE",
"953 361 OFFCURVE",
"1006 326 CURVE",
"1050 351 LINE",
"1017 382 OFFCURVE",
"1008 395 OFFCURVE",
"1008 412 CURVE SMOOTH",
"1008 432 OFFCURVE",
"1022 457 OFFCURVE",
"1047 482 CURVE SMOOTH",
"1076 511 OFFCURVE",
"1089 538 OFFCURVE",
"1089 566 CURVE SMOOTH",
"1089 605 OFFCURVE",
"1063 640 OFFCURVE",
"1010 674 CURVE",
"966 649 LINE",
"999 618 OFFCURVE",
"1008 606 OFFCURVE",
"1008 589 CURVE SMOOTH",
"1008 568 OFFCURVE",
"994 544 OFFCURVE",
"969 518 CURVE SMOOTH",
"940 489 OFFCURVE",
"927 463 OFFCURVE",
"927 435 CURVE SMOOTH"
);
},
{
closed = 1;
nodes = (
"276 513 OFFCURVE",
"281 444 OFFCURVE",
"291 374 CURVE",
"373 389 LINE",
"370 419 OFFCURVE",
"369 460 OFFCURVE",
"369 500 CURVE SMOOTH",
"369 597 OFFCURVE",
"375 672 OFFCURVE",
"390 750 CURVE",
"283 755 LINE",
"278 698 OFFCURVE",
"276 641 OFFCURVE",
"276 591 CURVE SMOOTH"
);
},
{
closed = 1;
nodes = (
"110 289 OFFCURVE",
"116 223 OFFCURVE",
"130 145 CURVE",
"429 242 OFFCURVE",
"692 336 OFFCURVE",
"890 417 CURVE",
"890 481 OFFCURVE",
"885 544 OFFCURVE",
"880 593 CURVE",
"637 697 OFFCURVE",
"376 791 OFFCURVE",
"124 865 CURVE",
"116 745 LINE",
"426 663 OFFCURVE",
"664 593 OFFCURVE",
"773 552 CURVE",
"633 502 OFFCURVE",
"343 418 OFFCURVE",
"110 359 CURVE"
);
}
);
vertWidth = 750;
width = 1000;
}
);
},
{
color = 3;
glyphname = AE.rotat;
layers = (
{
layerId = "F446C85F-564E-4F2C-825C-C389DAA66B11";
paths = (
{
closed = 1;
nodes = (
"303 651 OFFCURVE",
"614 496 OFFCURVE",
"783 400 CURVE",
"782 411 LINE",
"637 397 OFFCURVE",
"385 388 OFFCURVE",
"125 388 CURVE",
"125 186 OFFCURVE",
"121 25 OFFCURVE",
"115 -69 CURVE",
"218 -74 LINE",
"207 198 LINE",
"295 201 OFFCURVE",
"545 203 OFFCURVE",
"789 203 CURVE",
"778 -75 LINE",
"878 -71 LINE",
"876 -9 OFFCURVE",
"874 278 OFFCURVE",
"874 424 CURVE",
"660 572 OFFCURVE",
"365 746 OFFCURVE",
"128 865 CURVE",
"112 735 LINE"
);
},
{
closed = 1;
nodes = (
"263 462 OFFCURVE",
"267 410 OFFCURVE",
"276 334 CURVE",
"350 320 LINE",
"358 452 OFFCURVE",
"371 541 OFFCURVE",
"397 638 CURVE",
"268 673 LINE",
"264 602 OFFCURVE",
"263 561 OFFCURVE",
"263 528 CURVE SMOOTH"
);
},
{
closed = 1;
nodes = (
"562 -52 LINE",
"541 254 LINE",
"459 254 LINE",
"448 -48 LINE"
);
}
);
vertWidth = 985;
width = 1000;
}
);
},
{
color = 3;
glyphname = B.rotat;
layers = (
{
layerId = "F446C85F-564E-4F2C-825C-C389DAA66B11";
paths = (
{
closed = 1;
nodes = (
"115 442 OFFCURVE",
"213 276 OFFCURVE",
"348 276 CURVE SMOOTH",
"438 276 OFFCURVE",
"516 350 OFFCURVE",
"547 463 CURVE",
"586 367 OFFCURVE",
"641 319 OFFCURVE",
"712 319 CURVE SMOOTH",
"822 319 OFFCURVE",
"885 435 OFFCURVE",
"885 635 CURVE SMOOTH",
"885 691 OFFCURVE",
"880 758 OFFCURVE",
"872 830 CURVE",
"663 830 OFFCURVE",
"218 825 OFFCURVE",
"125 821 CURVE",
"118 770 OFFCURVE",
"115 719 OFFCURVE",
"115 678 CURVE SMOOTH"
);
},
{
closed = 1;
nodes = (
"336 667 OFFCURVE",
"546 673 OFFCURVE",
"812 673 CURVE",
"812 569 OFFCURVE",
"754 481 OFFCURVE",
"685 481 CURVE SMOOTH",
"617 481 OFFCURVE",
"557 568 OFFCURVE",
"543 687 CURVE",
"490 685 LINE",
"482 567 OFFCURVE",
"395 453 OFFCURVE",
"313 453 CURVE SMOOTH",
"241 453 OFFCURVE",
"186 548 OFFCURVE",
"186 655 CURVE"
);
}
);
vertWidth = 624;
width = 1000;
}
);
},
{
color = 3;
glyphname = C.rotat;
layers = (
{
anchors = (
{
name = bottom;
position = "{120, 520}";
}
);
layerId = "F446C85F-564E-4F2C-825C-C389DAA66B11";
paths = (
{
closed = 1;
nodes = (
"115 383 OFFCURVE",
"162 281 OFFCURVE",
"254 200 CURVE",
"327 293 LINE",
"258 331 OFFCURVE",
"207 404 OFFCURVE",
"207 463 CURVE SMOOTH",
"207 573 OFFCURVE",
"388 683 OFFCURVE",
"568 683 CURVE SMOOTH",
"705 683 OFFCURVE",
"793 619 OFFCURVE",
"793 521 CURVE SMOOTH",
"793 448 OFFCURVE",
"744 388 OFFCURVE",
"642 336 CURVE",
"665 293 OFFCURVE",
"705 248 OFFCURVE",
"761 200 CURVE",
"837 259 OFFCURVE",
"885 365 OFFCURVE",
"885 478 CURVE SMOOTH",
"885 695 OFFCURVE",
"709 860 OFFCURVE",
"479 860 CURVE SMOOTH",
"263 860 OFFCURVE",
"115 714 OFFCURVE",
"115 502 CURVE SMOOTH"
);
}
);
vertWidth = 690;
width = 1000;
}
);
},
{
color = 3;
glyphname = Ccedilla.rotat;
layers = (
{
anchors = (
{
name = bottom;
position = "{120, 520}";
}
);
layerId = "F446C85F-564E-4F2C-825C-C389DAA66B11";
paths = (
{
closed = 1;
nodes = (
"115 383 OFFCURVE",
"162 281 OFFCURVE",
"254 200 CURVE",
"327 293 LINE",
"258 331 OFFCURVE",
"207 404 OFFCURVE",
"207 463 CURVE SMOOTH",
"207 573 OFFCURVE",
"388 683 OFFCURVE",
"568 683 CURVE SMOOTH",
"705 683 OFFCURVE",
"793 619 OFFCURVE",
"793 521 CURVE SMOOTH",
"793 448 OFFCURVE",
"744 388 OFFCURVE",
"642 336 CURVE",
"665 293 OFFCURVE",
"705 248 OFFCURVE",
"761 200 CURVE",
"837 259 OFFCURVE",
"885 365 OFFCURVE",
"885 478 CURVE SMOOTH",
"885 695 OFFCURVE",
"709 860 OFFCURVE",
"479 860 CURVE SMOOTH",
"263 860 OFFCURVE",
"115 714 OFFCURVE",
"115 502 CURVE SMOOTH"
);
},
{
closed = 1;
nodes = (
"-86 463 OFFCURVE",
"-45 408 OFFCURVE",
"2 408 CURVE SMOOTH",
"39 408 OFFCURVE",
"76 442 OFFCURVE",
"101 498 CURVE",
"147 471 LINE",
"167 511 LINE",
"130 550 OFFCURVE",
"83 592 OFFCURVE",
"55 610 CURVE",
"43 550 OFFCURVE",
"15 503 OFFCURVE",
"-10 503 CURVE SMOOTH",
"-28 503 OFFCURVE",
"-50 529 OFFCURVE",
"-70 574 CURVE",
"-112 560 LINE"
);
}
);
vertWidth = 690;
width = 1000;
}
);
},
{
color = 3;
glyphname = D.rotat;
layers = (
{
layerId = "F446C85F-564E-4F2C-825C-C389DAA66B11";
paths = (
{
closed = 1;
nodes = (
"115 387 OFFCURVE",
"253 210 OFFCURVE",
"512 210 CURVE SMOOTH",
"757 210 OFFCURVE",
"885 369 OFFCURVE",
"885 675 CURVE SMOOTH",
"885 722 OFFCURVE",
"882 771 OFFCURVE",
"875 823 CURVE",
"723 828 OFFCURVE",
"411 830 OFFCURVE",
"120 830 CURVE",
"117 790 OFFCURVE",
"115 747 OFFCURVE",
"115 708 CURVE SMOOTH"
);
},
{
closed = 1;
nodes = (
"359 653 OFFCURVE",
"714 650 OFFCURVE",
"804 647 CURVE",
"787 470 OFFCURVE",
"681 387 OFFCURVE",
"472 387 CURVE SMOOTH",
"275 387 OFFCURVE",
"198 463 OFFCURVE",
"198 653 CURVE"
);
}
);
vertWidth = 690;
width = 1000;
}
);
},
{
color = 3;
glyphname = Eth.rotat;
layers = (
{
layerId = "F446C85F-564E-4F2C-825C-C389DAA66B11";
paths = (
{
closed = 1;
nodes = (
"466 470 LINE",
"546 473 LINE",
"559 865 LINE",
"453 869 LINE"
);
},
{
closed = 1;
nodes = (
"115 327 OFFCURVE",
"253 150 OFFCURVE",
"512 150 CURVE SMOOTH",
"757 150 OFFCURVE",
"885 309 OFFCURVE",
"885 615 CURVE SMOOTH",
"885 662 OFFCURVE",
"882 711 OFFCURVE",
"875 763 CURVE",
"723 768 OFFCURVE",
"411 770 OFFCURVE",
"120 770 CURVE",
"117 730 OFFCURVE",
"115 687 OFFCURVE",
"115 648 CURVE SMOOTH"
);
},
{
closed = 1;
nodes = (
"359 593 OFFCURVE",
"714 590 OFFCURVE",
"804 587 CURVE",
"787 410 OFFCURVE",
"681 327 OFFCURVE",
"472 327 CURVE SMOOTH",
"275 327 OFFCURVE",
"198 403 OFFCURVE",
"198 593 CURVE"
);
}
);
vertWidth = 750;
width = 1000;
}
);
},
{
color = 3;
glyphname = E.rotat;
layers = (
{
anchors = (
{
name = top;
position = "{1000, 552}";
}
);
layerId = "F446C85F-564E-4F2C-825C-C389DAA66B11";
paths = (
{
closed = 1;
nodes = (
"220 274 LINE",
"211 623 LINE",
"356 628 OFFCURVE",
"576 630 OFFCURVE",
"785 630 CURVE",
"775 273 LINE",
"880 277 LINE",
"875 400 OFFCURVE",
"870 684 OFFCURVE",
"870 830 CURVE",
"754 830 OFFCURVE",
"237 812 OFFCURVE",
"125 804 CURVE",
"125 554 OFFCURVE",
"121 349 OFFCURVE",
"115 278 CURVE"
);
},
{
closed = 1;
nodes = (
"558 293 LINE",
"545 693 LINE",
"465 693 LINE",
"448 297 LINE"
);
}
);
vertWidth = 637;
width = 1000;
}
);
},
{
color = 3;
glyphname = Eacute.rotat;
layers = (
{
anchors = (
{
name = top;
position = "{1000, 552}";
}
);
layerId = "F446C85F-564E-4F2C-825C-C389DAA66B11";
paths = (
{
closed = 1;
nodes = (
"1007 402 LINE",
"1103 464 LINE",
"957 702 LINE",
"917 686 LINE"
);
},
{
closed = 1;
nodes = (
"220 274 LINE",
"211 623 LINE",
"356 628 OFFCURVE",
"576 630 OFFCURVE",
"785 630 CURVE",
"775 273 LINE",
"880 277 LINE",
"875 400 OFFCURVE",
"870 684 OFFCURVE",
"870 830 CURVE",
"754 830 OFFCURVE",
"237 812 OFFCURVE",
"125 804 CURVE",
"125 554 OFFCURVE",
"121 349 OFFCURVE",
"115 278 CURVE"
);
},
{
closed = 1;
nodes = (
"558 293 LINE",
"545 693 LINE",
"465 693 LINE",
"448 297 LINE"
);
}
);
vertWidth = 637;
width = 1000;
}
);
},
{
color = 3;
glyphname = Ecircumflex.rotat;
layers = (
{
anchors = (
{
name = top;
position = "{1000, 552}";
}
);
layerId = "F446C85F-564E-4F2C-825C-C389DAA66B11";
paths = (
{
closed = 1;
nodes = (
"1002 552 LINE",
"909 395 LINE",
"939 361 LINE",
"1117 552 LINE",
"939 743 LINE",
"909 709 LINE"
);
},
{
closed = 1;
nodes = (
"220 274 LINE",
"211 623 LINE",
"356 628 OFFCURVE",
"576 630 OFFCURVE",
"785 630 CURVE",
"775 273 LINE",
"880 277 LINE",
"875 400 OFFCURVE",
"870 684 OFFCURVE",
"870 830 CURVE",
"754 830 OFFCURVE",
"237 812 OFFCURVE",
"125 804 CURVE",
"125 554 OFFCURVE",
"121 349 OFFCURVE",
"115 278 CURVE"
);
},
{
closed = 1;
nodes = (
"558 293 LINE",
"545 693 LINE",
"465 693 LINE",
"448 297 LINE"
);
}
);
vertWidth = 637;
width = 1000;
}
);
},
{
color = 3;
glyphname = Edieresis.rotat;
layers = (
{
anchors = (
{
name = top;
position = "{1000, 552}";
}
);
layerId = "F446C85F-564E-4F2C-825C-C389DAA66B11";
paths = (
{
closed = 1;
nodes = (
"933 387 LINE",
"1077 387 LINE",
"1077 507 LINE",
"933 507 LINE"
);
},
{
closed = 1;
nodes = (
"933 597 LINE",
"1077 597 LINE",
"1077 717 LINE",
"933 717 LINE"
);
},
{
closed = 1;
nodes = (
"220 274 LINE",
"211 623 LINE",
"356 628 OFFCURVE",
"576 630 OFFCURVE",
"785 630 CURVE",
"775 273 LINE",
"880 277 LINE",
"875 400 OFFCURVE",
"870 684 OFFCURVE",
"870 830 CURVE",
"754 830 OFFCURVE",
"237 812 OFFCURVE",
"125 804 CURVE",
"125 554 OFFCURVE",
"121 349 OFFCURVE",
"115 278 CURVE"
);
},
{
closed = 1;
nodes = (
"558 293 LINE",
"545 693 LINE",
"465 693 LINE",
"448 297 LINE"
);
}
);
vertWidth = 637;
width = 1000;
}
);
},
{
color = 3;
glyphname = Egrave.rotat;
layers = (
{
anchors = (
{
name = top;
position = "{1000, 552}";
}
);
layerId = "F446C85F-564E-4F2C-825C-C389DAA66B11";
paths = (
{
closed = 1;
nodes = (
"957 402 LINE",
"1103 640 LINE",
"1007 702 LINE",
"917 418 LINE"
);
},
{
closed = 1;
nodes = (
"220 274 LINE",
"211 623 LINE",
"356 628 OFFCURVE",
"576 630 OFFCURVE",
"785 630 CURVE",
"775 273 LINE",
"880 277 LINE",
"875 400 OFFCURVE",
"870 684 OFFCURVE",
"870 830 CURVE",
"754 830 OFFCURVE",
"237 812 OFFCURVE",
"125 804 CURVE",
"125 554 OFFCURVE",
"121 349 OFFCURVE",
"115 278 CURVE"
);
},
{
closed = 1;
nodes = (
"558 293 LINE",
"545 693 LINE",
"465 693 LINE",
"448 297 LINE"
);
}
);
vertWidth = 637;
width = 1000;
}
);
},
{
color = 3;
glyphname = F.rotat;
layers = (
{
layerId = "F446C85F-564E-4F2C-825C-C389DAA66B11";
paths = (
{
closed = 1;
nodes = (
"330 630 OFFCURVE",
"558 634 OFFCURVE",
"796 642 CURVE",
"785 304 LINE",
"880 300 LINE",
"875 396 OFFCURVE",
"870 639 OFFCURVE",
"870 821 CURVE",
"777 824 OFFCURVE",
"281 830 OFFCURVE",
"120 830 CURVE",
"119 630 LINE"
);
},
{
closed = 1;
nodes = (
"584 315 LINE",
"582 689 LINE",
"507 683 LINE",
"486 322 LINE"
);
}
);
vertWidth = 610;
width = 1000;
}
);
},
{
color = 3;
glyphname = G.rotat;
layers = (
{
layerId = "F446C85F-564E-4F2C-825C-C389DAA66B11";
paths = (
{
closed = 1;
nodes = (
"115 408 OFFCURVE",
"160 290 OFFCURVE",
"230 215 CURVE",
"337 215 OFFCURVE",
"466 220 OFFCURVE",
"508 226 CURVE",
"503 398 LINE",
"436 390 OFFCURVE",
"311 379 OFFCURVE",
"254 376 CURVE",
"225 382 OFFCURVE",
"203 420 OFFCURVE",
"203 465 CURVE SMOOTH",
"203 584 OFFCURVE",
"362 684 OFFCURVE",
"553 684 CURVE SMOOTH",
"707 684 OFFCURVE",
"798 618 OFFCURVE",
"798 507 CURVE SMOOTH",
"798 425 OFFCURVE",
"749 359 OFFCURVE",
"654 313 CURVE",
"685 267 OFFCURVE",
"724 224 OFFCURVE",
"774 180 CURVE",
"842 233 OFFCURVE",
"885 340 OFFCURVE",
"885 458 CURVE SMOOTH",
"885 692 OFFCURVE",
"717 860 OFFCURVE",
"483 860 CURVE SMOOTH",
"267 860 OFFCURVE",
"115 718 OFFCURVE",
"115 517 CURVE SMOOTH"
);
},
{
closed = 1;
nodes = (
"536 152 LINE",
"531 248 OFFCURVE",
"528 380 OFFCURVE",
"528 520 CURVE",
"452 517 LINE",
"447 458 OFFCURVE",
"444 318 OFFCURVE",
"444 155 CURVE"
);
}
);
vertWidth = 748;
width = 1000;
}
);
},
{
color = 3;
glyphname = H.rotat;
layers = (
{
layerId = "F446C85F-564E-4F2C-825C-C389DAA66B11";
paths = (
{
closed = 1;
nodes = (
"332 190 OFFCURVE",
"656 191 OFFCURVE",
"878 199 CURVE",
"878 258 OFFCURVE",
"876 317 OFFCURVE",
"872 375 CURVE",
"551 375 OFFCURVE",
"259 376 OFFCURVE",
"122 381 CURVE",
"119 320 OFFCURVE",
"118 260 OFFCURVE",
"118 190 CURVE"
);
},
{
closed = 1;
nodes = (
"118 758 OFFCURVE",
"119 699 OFFCURVE",
"122 640 CURVE",
"326 648 OFFCURVE",
"581 652 OFFCURVE",
"872 652 CURVE",
"875 695 OFFCURVE",
"876 746 OFFCURVE",
"876 823 CURVE",
"701 829 OFFCURVE",
"399 830 OFFCURVE",
"118 830 CURVE"
);
},
{
closed = 1;
nodes = (
"556 341 LINE",
"548 455 OFFCURVE",
"544 568 OFFCURVE",
"544 679 CURVE",
"457 670 LINE",
"452 597 OFFCURVE",
"450 503 OFFCURVE",
"450 349 CURVE"
);
}
);
vertWidth = 740;
width = 1000;
}
);
},
{
color = 3;
glyphname = I.rotat;
layers = (
{
anchors = (
{
name = top;
position = "{1000, 700}";
}
);
layerId = "F446C85F-564E-4F2C-825C-C389DAA66B11";
paths = (
{
closed = 1;
nodes = (
"119 737 OFFCURVE",
"119 662 OFFCURVE",
"122 590 CURVE",
"224 599 OFFCURVE",
"353 604 OFFCURVE",
"535 604 CURVE SMOOTH",
"617 604 OFFCURVE",
"749 603 OFFCURVE",
"873 599 CURVE",
"876 625 OFFCURVE",
"877 662 OFFCURVE",
"877 698 CURVE SMOOTH",
"877 743 OFFCURVE",
"875 785 OFFCURVE",
"873 801 CURVE",
"819 799 OFFCURVE",
"697 798 OFFCURVE",
"613 798 CURVE SMOOTH",
"445 798 OFFCURVE",
"281 802 OFFCURVE",
"119 810 CURVE"
);
}
);
vertWidth = 360;
width = 1000;
}
);
},
{
color = 3;
glyphname = Iacute.rotat;
layers = (
{
anchors = (
{
name = top;
position = "{1000, 700}";
}
);
layerId = "F446C85F-564E-4F2C-825C-C389DAA66B11";
paths = (
{
closed = 1;
nodes = (
"1007 550 LINE",
"1103 612 LINE",
"957 850 LINE",
"917 834 LINE"
);
},
{
closed = 1;
nodes = (
"119 737 OFFCURVE",
"119 662 OFFCURVE",
"122 590 CURVE",
"224 599 OFFCURVE",
"353 604 OFFCURVE",
"535 604 CURVE SMOOTH",
"617 604 OFFCURVE",
"749 603 OFFCURVE",
"873 599 CURVE",
"876 625 OFFCURVE",
"877 662 OFFCURVE",
"877 698 CURVE SMOOTH",
"877 743 OFFCURVE",
"875 785 OFFCURVE",
"873 801 CURVE",
"819 799 OFFCURVE",
"697 798 OFFCURVE",
"613 798 CURVE SMOOTH",
"445 798 OFFCURVE",
"281 802 OFFCURVE",
"119 810 CURVE"
);
}
);
vertWidth = 360;
width = 1000;
}
);
},
{
color = 3;
glyphname = Icircumflex.rotat;
layers = (
{
anchors = (
{
name = top;
position = "{1000, 700}";
}
);
layerId = "F446C85F-564E-4F2C-825C-C389DAA66B11";
paths = (
{
closed = 1;
nodes = (
"1002 700 LINE",
"909 543 LINE",
"939 509 LINE",
"1117 700 LINE",
"939 891 LINE",
"909 857 LINE"
);
},
{
closed = 1;
nodes = (
"119 737 OFFCURVE",
"119 662 OFFCURVE",
"122 590 CURVE",
"224 599 OFFCURVE",
"353 604 OFFCURVE",
"535 604 CURVE SMOOTH",
"617 604 OFFCURVE",
"749 603 OFFCURVE",
"873 599 CURVE",
"876 625 OFFCURVE",
"877 662 OFFCURVE",
"877 698 CURVE SMOOTH",
"877 743 OFFCURVE",
"875 785 OFFCURVE",
"873 801 CURVE",
"819 799 OFFCURVE",
"697 798 OFFCURVE",
"613 798 CURVE SMOOTH",
"445 798 OFFCURVE",
"281 802 OFFCURVE",
"119 810 CURVE"
);
}
);
vertWidth = 360;
width = 1000;
}
);
},
{
color = 3;
glyphname = Idieresis.rotat;
layers = (
{
anchors = (
{
name = top;
position = "{1000, 700}";
}
);
layerId = "F446C85F-564E-4F2C-825C-C389DAA66B11";
paths = (
{
closed = 1;
nodes = (
"933 535 LINE",
"1077 535 LINE",
"1077 655 LINE",
"933 655 LINE"
);
},
{
closed = 1;
nodes = (
"933 745 LINE",
"1077 745 LINE",
"1077 865 LINE",
"933 865 LINE"
);
},
{
closed = 1;
nodes = (
"119 737 OFFCURVE",
"119 662 OFFCURVE",
"122 590 CURVE",
"224 599 OFFCURVE",
"353 604 OFFCURVE",
"535 604 CURVE SMOOTH",
"617 604 OFFCURVE",
"749 603 OFFCURVE",
"873 599 CURVE",
"876 625 OFFCURVE",
"877 662 OFFCURVE",
"877 698 CURVE SMOOTH",
"877 743 OFFCURVE",
"875 785 OFFCURVE",
"873 801 CURVE",
"819 799 OFFCURVE",
"697 798 OFFCURVE",
"613 798 CURVE SMOOTH",
"445 798 OFFCURVE",
"281 802 OFFCURVE",
"119 810 CURVE"
);
}
);
vertWidth = 360;
width = 1000;
}
);
},
{
color = 3;
glyphname = Igrave.rotat;
layers = (
{
anchors = (
{
name = top;
position = "{1000, 700}";
}
);
layerId = "F446C85F-564E-4F2C-825C-C389DAA66B11";
paths = (
{
closed = 1;
nodes = (
"957 550 LINE",
"1103 788 LINE",
"1007 850 LINE",
"917 566 LINE"
);
},
{
closed = 1;
nodes = (
"119 737 OFFCURVE",
"119 662 OFFCURVE",
"122 590 CURVE",
"224 599 OFFCURVE",
"353 604 OFFCURVE",
"535 604 CURVE SMOOTH",
"617 604 OFFCURVE",
"749 603 OFFCURVE",
"873 599 CURVE",
"876 625 OFFCURVE",
"877 662 OFFCURVE",
"877 698 CURVE SMOOTH",
"877 743 OFFCURVE",
"875 785 OFFCURVE",
"873 801 CURVE",
"819 799 OFFCURVE",
"697 798 OFFCURVE",
"613 798 CURVE SMOOTH",
"445 798 OFFCURVE",
"281 802 OFFCURVE",
"119 810 CURVE"
);
}
);
vertWidth = 360;
width = 1000;
}
);
},
{
color = 3;
glyphname = J.rotat;
layers = (
{
layerId = "F446C85F-564E-4F2C-825C-C389DAA66B11";
paths = (
{
closed = 1;
nodes = (
"116 402 OFFCURVE",
"227 344 OFFCURVE",
"703 344 CURVE SMOOTH",
"766 344 OFFCURVE",
"851 345 OFFCURVE",
"879 346 CURVE",
"879 413 OFFCURVE",
"877 480 OFFCURVE",
"873 547 CURVE",
"780 544 OFFCURVE",
"685 542 OFFCURVE",
"599 542 CURVE SMOOTH",
"276 542 OFFCURVE",
"200 570 OFFCURVE",
"200 653 CURVE SMOOTH",
"200 687 OFFCURVE",
"213 735 OFFCURVE",
"253 849 CURVE",
"174 870 LINE",
"136 794 OFFCURVE",
"116 702 OFFCURVE",
"116 611 CURVE SMOOTH"
);
}
);
vertWidth = 586;
width = 1000;
}
);
},
{
color = 3;
glyphname = K.rotat;
layers = (
{
layerId = "F446C85F-564E-4F2C-825C-C389DAA66B11";
paths = (
{
closed = 1;
nodes = (
"517 501 OFFCURVE",
"693 338 OFFCURVE",
"860 214 CURVE",
"890 350 LINE",
"693 479 OFFCURVE",
"537 601 OFFCURVE",
"393 739 CURVE",
"342 693 LINE"
);
},
{
closed = 1;
nodes = (
"121 654 LINE",
"338 654 OFFCURVE",
"667 652 OFFCURVE",
"873 645 CURVE",
"877 825 LINE",
"773 829 OFFCURVE",
"275 830 OFFCURVE",
"119 830 CURVE"
);
},
{
closed = 1;
nodes = (
"115 324 OFFCURVE",
"121 256 OFFCURVE",
"133 185 CURVE",
"308 254 OFFCURVE",
"495 344 OFFCURVE",
"633 426 CURVE",
"551 571 LINE",
"412 504 OFFCURVE",
"238 435 OFFCURVE",
"115 398 CURVE"
);
}
);
vertWidth = 710;
width = 1000;
}
);
},
{
color = 3;
glyphname = L.rotat;
layers = (
{
layerId = "F446C85F-564E-4F2C-825C-C389DAA66B11";
paths = (
{
closed = 1;
nodes = (
"203 258 LINE",
"198 357 OFFCURVE",
"194 494 OFFCURVE",
"194 632 CURVE",
"391 625 OFFCURVE",
"680 622 OFFCURVE",
"876 622 CURVE",
"876 717 OFFCURVE",
"875 799 OFFCURVE",
"874 830 CURVE",
"639 830 OFFCURVE",
"395 825 OFFCURVE",
"120 813 CURVE",
"120 554 OFFCURVE",
"118 316 OFFCURVE",
"115 255 CURVE"
);
}
);
vertWidth = 640;
width = 1000;
}
);
},
{
color = 3;
glyphname = M.rotat;
layers = (
{
layerId = "F446C85F-564E-4F2C-825C-C389DAA66B11";
paths = (
{
closed = 1;
nodes = (
"700 737 LINE",
"558 682 OFFCURVE",
"402 616 OFFCURVE",
"251 546 CURVE",
"255 401 LINE",
"424 322 OFFCURVE",
"565 261 OFFCURVE",
"696 211 CURVE",
"531 211 OFFCURVE",
"320 215 OFFCURVE",
"118 222 CURVE",
"118 160 OFFCURVE",
"120 76 OFFCURVE",
"122 30 CURVE",
"305 36 OFFCURVE",
"698 38 OFFCURVE",
"880 38 CURVE",
"886 88 OFFCURVE",
"891 163 OFFCURVE",
"891 235 CURVE",
"694 309 OFFCURVE",
"542 371 OFFCURVE",
"410 432 CURVE",
"536 489 OFFCURVE",
"712 560 OFFCURVE",
"892 626 CURVE",
"892 681 OFFCURVE",
"887 747 OFFCURVE",
"879 821 CURVE",
"122 830 LINE",
"118 720 LINE"
);
}
);
vertWidth = 900;
width = 1000;
}
);
},
{
color = 3;
glyphname = N.rotat;
layers = (
{
anchors = (
{
name = top;
position = "{1000, 508}";
}
);
layerId = "F446C85F-564E-4F2C-825C-C389DAA66B11";
paths = (
{
closed = 1;
nodes = (
"669 728 LINE",
"572 660 OFFCURVE",
"449 579 OFFCURVE",
"118 365 CURVE",
"118 314 OFFCURVE",
"120 231 OFFCURVE",
"122 180 CURVE",
"873 170 LINE",
"876 206 OFFCURVE",
"877 244 OFFCURVE",
"877 286 CURVE",
"330 271 LINE",
"502 379 OFFCURVE",
"693 504 OFFCURVE",
"877 628 CURVE",
"877 712 OFFCURVE",
"876 775 OFFCURVE",
"873 813 CURVE",
"123 830 LINE",
"119 790 OFFCURVE",
"117 755 OFFCURVE",
"117 714 CURVE"
);
}
);
vertWidth = 760;
width = 1000;
}
);
},
{
color = 3;
glyphname = Ntilde.rotat;
layers = (
{
anchors = (
{
name = top;
position = "{1000, 508}";
}
);
layerId = "F446C85F-564E-4F2C-825C-C389DAA66B11";
paths = (
{
closed = 1;
nodes = (
"669 728 LINE",
"572 660 OFFCURVE",
"449 579 OFFCURVE",
"118 365 CURVE",
"118 314 OFFCURVE",
"120 231 OFFCURVE",
"122 180 CURVE",
"873 170 LINE",
"876 206 OFFCURVE",
"877 244 OFFCURVE",
"877 286 CURVE",
"330 271 LINE",
"502 379 OFFCURVE",
"693 504 OFFCURVE",
"877 628 CURVE",
"877 712 OFFCURVE",
"876 775 OFFCURVE",
"873 813 CURVE",
"123 830 LINE",
"119 790 OFFCURVE",
"117 755 OFFCURVE",
"117 714 CURVE"
);
},
{
closed = 1;
nodes = (
"927.2 403.7 OFFCURVE",
"952.8 368.85 OFFCURVE",
"1006.4 334 CURVE",
"1049.6 359.5 LINE",
"1016.8 390.1 OFFCURVE",
"1008 402.85 OFFCURVE",
"1008 419.85 CURVE SMOOTH",
"1008 440.25 OFFCURVE",
"1021.6 464.9 OFFCURVE",
"1047.2 490.4 CURVE SMOOTH",
"1076 519.3 OFFCURVE",
"1088.8 545.65 OFFCURVE",
"1088.8 573.7 CURVE SMOOTH",
"1088.8 612.8 OFFCURVE",
"1063.2 647.65 OFFCURVE",
"1009.6 682.5 CURVE",
"966.4 657 LINE",
"999.2 626.4 OFFCURVE",
"1008 613.65 OFFCURVE",
"1008 596.65 CURVE SMOOTH",
"1008 576.25 OFFCURVE",
"994.4 551.6 OFFCURVE",
"968.8 526.1 CURVE SMOOTH",
"940 497.2 OFFCURVE",
"927.2 470.85 OFFCURVE",
"927.2 442.8 CURVE SMOOTH"
);
}
);
vertWidth = 760;
width = 1000;
}
);
},
{
color = 3;
glyphname = O.rotat;
layers = (
{
anchors = (
{
name = top;
position = "{1000, 500}";
}
);
layerId = "F446C85F-564E-4F2C-825C-C389DAA66B11";
paths = (
{
closed = 1;
nodes = (
"115 292 OFFCURVE",
"278 140 OFFCURVE",
"500 140 CURVE SMOOTH",
"722 140 OFFCURVE",
"885 292 OFFCURVE",
"885 500 CURVE SMOOTH",
"885 708 OFFCURVE",
"722 860 OFFCURVE",
"500 860 CURVE SMOOTH",
"278 860 OFFCURVE",
"115 708 OFFCURVE",
"115 500 CURVE SMOOTH"
);
},
{
closed = 1;
nodes = (
"199 593 OFFCURVE",
"346 682 OFFCURVE",
"535 682 CURVE SMOOTH",
"695 682 OFFCURVE",
"801 618 OFFCURVE",
"801 521 CURVE SMOOTH",
"801 407 OFFCURVE",
"654 318 OFFCURVE",
"465 318 CURVE SMOOTH",
"305 318 OFFCURVE",
"199 382 OFFCURVE",
"199 479 CURVE SMOOTH"
);
}
);
vertWidth = 760;
width = 1000;
}
);
},
{
color = 3;
glyphname = Oacute.rotat;
layers = (
{
anchors = (
{
name = top;
position = "{1000, 500}";
}
);
layerId = "F446C85F-564E-4F2C-825C-C389DAA66B11";
paths = (
{
closed = 1;
nodes = (
"115 292 OFFCURVE",
"278 140 OFFCURVE",
"500 140 CURVE SMOOTH",
"722 140 OFFCURVE",
"885 292 OFFCURVE",
"885 500 CURVE SMOOTH",
"885 708 OFFCURVE",
"722 860 OFFCURVE",
"500 860 CURVE SMOOTH",
"278 860 OFFCURVE",
"115 708 OFFCURVE",
"115 500 CURVE SMOOTH"
);
},
{
closed = 1;
nodes = (
"199 593 OFFCURVE",
"346 682 OFFCURVE",
"535 682 CURVE SMOOTH",
"695 682 OFFCURVE",
"801 618 OFFCURVE",
"801 521 CURVE SMOOTH",
"801 407 OFFCURVE",
"654 318 OFFCURVE",
"465 318 CURVE SMOOTH",
"305 318 OFFCURVE",
"199 382 OFFCURVE",
"199 479 CURVE SMOOTH"
);
},
{
closed = 1;
nodes = (
"1007 350 LINE",
"1103 412 LINE",
"957 650 LINE",
"917 634 LINE"
);
}
);
vertWidth = 760;
width = 1000;
}
);
},
{
color = 3;
glyphname = Ocircumflex.rotat;
layers = (
{
anchors = (
{
name = top;
position = "{1000, 500}";
}
);
layerId = "F446C85F-564E-4F2C-825C-C389DAA66B11";
paths = (
{
closed = 1;
nodes = (
"115 292 OFFCURVE",
"278 140 OFFCURVE",
"500 140 CURVE SMOOTH",
"722 140 OFFCURVE",
"885 292 OFFCURVE",
"885 500 CURVE SMOOTH",
"885 708 OFFCURVE",
"722 860 OFFCURVE",
"500 860 CURVE SMOOTH",
"278 860 OFFCURVE",
"115 708 OFFCURVE",
"115 500 CURVE SMOOTH"
);
},
{
closed = 1;
nodes = (
"199 593 OFFCURVE",
"346 682 OFFCURVE",
"535 682 CURVE SMOOTH",
"695 682 OFFCURVE",
"801 618 OFFCURVE",
"801 521 CURVE SMOOTH",
"801 407 OFFCURVE",
"654 318 OFFCURVE",
"465 318 CURVE SMOOTH",
"305 318 OFFCURVE",
"199 382 OFFCURVE",
"199 479 CURVE SMOOTH"
);
},
{
closed = 1;
nodes = (
"1001.75 500.25 LINE",
"909.1 343 LINE",
"938.85 309 LINE",
"1116.5 500.25 LINE",
"938.85 691.5 LINE",
"909.1 657.5 LINE"
);
}
);
vertWidth = 760;
width = 1000;
}
);
},
{
color = 3;
glyphname = Odieresis.rotat;
layers = (
{
anchors = (
{
name = top;
position = "{1000, 500}";
}
);
layerId = "F446C85F-564E-4F2C-825C-C389DAA66B11";
paths = (
{
closed = 1;
nodes = (
"115 292 OFFCURVE",
"278 140 OFFCURVE",
"500 140 CURVE SMOOTH",
"722 140 OFFCURVE",
"885 292 OFFCURVE",
"885 500 CURVE SMOOTH",
"885 708 OFFCURVE",
"722 860 OFFCURVE",
"500 860 CURVE SMOOTH",
"278 860 OFFCURVE",
"115 708 OFFCURVE",
"115 500 CURVE SMOOTH"
);
},
{
closed = 1;
nodes = (
"199 593 OFFCURVE",
"346 682 OFFCURVE",
"535 682 CURVE SMOOTH",
"695 682 OFFCURVE",
"801 618 OFFCURVE",
"801 521 CURVE SMOOTH",
"801 407 OFFCURVE",
"654 318 OFFCURVE",
"465 318 CURVE SMOOTH",
"305 318 OFFCURVE",
"199 382 OFFCURVE",
"199 479 CURVE SMOOTH"
);
},
{
closed = 1;
nodes = (
"933 335 LINE",
"1077 335 LINE",
"1077 455 LINE",
"933 455 LINE"
);
},
{
closed = 1;
nodes = (
"933 545 LINE",
"1077 545 LINE",
"1077 665 LINE",
"933 665 LINE"
);
}
);
vertWidth = 760;
width = 1000;
}
);
},
{
color = 3;
glyphname = Ograve.rotat;
layers = (
{
anchors = (
{
name = top;
position = "{1000, 500}";
}
);
layerId = "F446C85F-564E-4F2C-825C-C389DAA66B11";
paths = (
{
closed = 1;
nodes = (
"115 292 OFFCURVE",
"278 140 OFFCURVE",
"500 140 CURVE SMOOTH",
"722 140 OFFCURVE",
"885 292 OFFCURVE",
"885 500 CURVE SMOOTH",
"885 708 OFFCURVE",
"722 860 OFFCURVE",
"500 860 CURVE SMOOTH",
"278 860 OFFCURVE",
"115 708 OFFCURVE",
"115 500 CURVE SMOOTH"
);
},
{
closed = 1;
nodes = (
"199 593 OFFCURVE",
"346 682 OFFCURVE",
"535 682 CURVE SMOOTH",
"695 682 OFFCURVE",
"801 618 OFFCURVE",
"801 521 CURVE SMOOTH",
"801 407 OFFCURVE",
"654 318 OFFCURVE",
"465 318 CURVE SMOOTH",
"305 318 OFFCURVE",
"199 382 OFFCURVE",
"199 479 CURVE SMOOTH"
);
},
{
closed = 1;
nodes = (
"957 350 LINE",
"1103 588 LINE",
"1007 650 LINE",
"917 366 LINE"
);
}
);
vertWidth = 760;
width = 1000;
}
);
},
{
color = 3;
glyphname = Oslash.rotat;
layers = (
{
anchors = (
{
name = top;
position = "{1000, 500}";
}
);
layerId = "F446C85F-564E-4F2C-825C-C389DAA66B11";
paths = (
{
closed = 1;
nodes = (
"855 175 LINE",
"910 255 LINE",
"145 825 LINE",
"90 745 LINE"
);
},
{
closed = 1;
nodes = (
"115 292 OFFCURVE",
"278 140 OFFCURVE",
"500 140 CURVE SMOOTH",
"722 140 OFFCURVE",
"885 292 OFFCURVE",
"885 500 CURVE SMOOTH",
"885 708 OFFCURVE",
"722 860 OFFCURVE",
"500 860 CURVE SMOOTH",
"278 860 OFFCURVE",
"115 708 OFFCURVE",
"115 500 CURVE SMOOTH"
);
},
{
closed = 1;
nodes = (
"199 593 OFFCURVE",
"346 682 OFFCURVE",
"535 682 CURVE SMOOTH",
"695 682 OFFCURVE",
"801 618 OFFCURVE",
"801 521 CURVE SMOOTH",
"801 407 OFFCURVE",
"654 318 OFFCURVE",
"465 318 CURVE SMOOTH",
"305 318 OFFCURVE",
"199 382 OFFCURVE",
"199 479 CURVE SMOOTH"
);
}
);
vertWidth = 760;
width = 1000;
}
);
},
{
color = 3;
glyphname = Otilde.rotat;
layers = (
{
anchors = (
{
name = top;
position = "{1000, 500}";
}
);
layerId = "F446C85F-564E-4F2C-825C-C389DAA66B11";
paths = (
{
closed = 1;
nodes = (
"115 292 OFFCURVE",
"278 140 OFFCURVE",
"500 140 CURVE SMOOTH",
"722 140 OFFCURVE",
"885 292 OFFCURVE",
"885 500 CURVE SMOOTH",
"885 708 OFFCURVE",
"722 860 OFFCURVE",
"500 860 CURVE SMOOTH",
"278 860 OFFCURVE",
"115 708 OFFCURVE",
"115 500 CURVE SMOOTH"
);
},
{
closed = 1;
nodes = (
"199 593 OFFCURVE",
"346 682 OFFCURVE",
"535 682 CURVE SMOOTH",
"695 682 OFFCURVE",
"801 618 OFFCURVE",
"801 521 CURVE SMOOTH",
"801 407 OFFCURVE",
"654 318 OFFCURVE",
"465 318 CURVE SMOOTH",
"305 318 OFFCURVE",
"199 382 OFFCURVE",
"199 479 CURVE SMOOTH"
);
},
{
closed = 1;
nodes = (
"927.2 395.7 OFFCURVE",
"952.8 360.85 OFFCURVE",
"1006.4 326 CURVE",
"1049.6 351.5 LINE",
"1016.8 382.1 OFFCURVE",
"1008 394.85 OFFCURVE",
"1008 411.85 CURVE SMOOTH",
"1008 432.25 OFFCURVE",
"1021.6 456.9 OFFCURVE",
"1047.2 482.4 CURVE SMOOTH",
"1076 511.3 OFFCURVE",
"1088.8 537.65 OFFCURVE",
"1088.8 565.7 CURVE SMOOTH",
"1088.8 604.8 OFFCURVE",
"1063.2 639.65 OFFCURVE",
"1009.6 674.5 CURVE",
"966.4 649 LINE",
"999.2 618.4 OFFCURVE",
"1008 605.65 OFFCURVE",
"1008 588.65 CURVE SMOOTH",
"1008 568.25 OFFCURVE",
"994.4 543.6 OFFCURVE",
"968.8 518.1 CURVE SMOOTH",
"940 489.2 OFFCURVE",
"927.2 462.85 OFFCURVE",
"927.2 434.8 CURVE SMOOTH"
);
}
);
vertWidth = 760;
width = 1000;
}
);
},
{
color = 3;
glyphname = OE.rotat;
layers = (
{
layerId = "F446C85F-564E-4F2C-825C-C389DAA66B11";
paths = (
{
closed = 1;
nodes = (
"115 333 OFFCURVE",
"257 230 OFFCURVE",
"511 230 CURVE SMOOTH",
"756 230 OFFCURVE",
"885 326 OFFCURVE",
"885 510 CURVE SMOOTH",
"885 715 OFFCURVE",
"725 860 OFFCURVE",
"499 860 CURVE SMOOTH",
"275 860 OFFCURVE",
"115 718 OFFCURVE",
"115 520 CURVE SMOOTH"
);
},
{
closed = 1;
nodes = (
"202 608 OFFCURVE",
"342 684 OFFCURVE",
"539 684 CURVE SMOOTH",
"703 684 OFFCURVE",
"798 631 OFFCURVE",
"798 541 CURVE SMOOTH",
"798 432 OFFCURVE",
"658 356 OFFCURVE",
"461 356 CURVE SMOOTH",
"297 356 OFFCURVE",
"202 409 OFFCURVE",
"202 499 CURVE SMOOTH"
);
},
{
closed = 1;
nodes = (
"208 -79 LINE",
"207 193 LINE",
"349 197 OFFCURVE",
"482 198 OFFCURVE",
"793 198 CURVE",
"792 -80 LINE",
"890 -78 LINE",
"884 66 OFFCURVE",
"875 412 OFFCURVE",
"875 505 CURVE",
"806 411 OFFCURVE",
"626 343 OFFCURVE",
"450 343 CURVE SMOOTH",
"297 343 OFFCURVE",
"209 394 OFFCURVE",
"125 530 CURVE",
"125 375 OFFCURVE",
"118 102 OFFCURVE",
"110 -74 CURVE"
);
},
{
closed = 1;
nodes = (
"560 -54 LINE",
"541 249 LINE",
"459 249 LINE",
"448 -53 LINE"
);
}
);
vertWidth = 990;
width = 1000;
}
);
},
{
color = 3;
glyphname = P.rotat;
layers = (
{
layerId = "F446C85F-564E-4F2C-825C-C389DAA66B11";
paths = (
{
closed = 1;
nodes = (
"118 778 OFFCURVE",
"119 718 OFFCURVE",
"122 645 CURVE",
"377 645 OFFCURVE",
"679 652 OFFCURVE",
"807 661 CURVE",
"807 522 OFFCURVE",
"743 435 OFFCURVE",
"623 435 CURVE SMOOTH",
"507 435 OFFCURVE",
"460 546 OFFCURVE",
"447 679 CURVE",
"367 679 LINE",
"370 426 OFFCURVE",
"487 250 OFFCURVE",
"651 250 CURVE SMOOTH",
"801 250 OFFCURVE",
"886 397 OFFCURVE",
"886 631 CURVE SMOOTH",
"886 693 OFFCURVE",
"880 764 OFFCURVE",
"870 830 CURVE",
"761 826 OFFCURVE",
"391 825 OFFCURVE",
"118 825 CURVE"
);
}
);
vertWidth = 650;
width = 1000;
}
);
},
{
color = 3;
glyphname = Thorn.rotat;
layers = (
{
layerId = "F446C85F-564E-4F2C-825C-C389DAA66B11";
paths = (
{
closed = 1;
nodes = (
"267 409 OFFCURVE",
"377 240 OFFCURVE",
"543 240 CURVE SMOOTH",
"694 240 OFFCURVE",
"765 380 OFFCURVE",
"765 676 CURVE",
"684 681 LINE",
"684 521 OFFCURVE",
"613 425 OFFCURVE",
"494 425 CURVE SMOOTH",
"390 425 OFFCURVE",
"346 498 OFFCURVE",
"346 669 CURVE",
"264 669 LINE"
);
},
{
closed = 1;
nodes = (
"118 790 OFFCURVE",
"119 714 OFFCURVE",
"122 652 CURVE",
"265 650 OFFCURVE",
"643 648 OFFCURVE",
"873 648 CURVE",
"875 689 OFFCURVE",
"877 779 OFFCURVE",
"877 830 CURVE",
"599 830 OFFCURVE",
"261 826 OFFCURVE",
"118 821 CURVE"
);
}
);
vertWidth = 660;
width = 1000;
}
);
},
{
color = 3;
glyphname = Q.rotat;
layers = (
{
layerId = "F446C85F-564E-4F2C-825C-C389DAA66B11";
paths = (
{
closed = 1;
nodes = (
"115 292 OFFCURVE",
"278 140 OFFCURVE",
"500 140 CURVE SMOOTH",
"722 140 OFFCURVE",
"885 292 OFFCURVE",
"885 500 CURVE SMOOTH",
"885 708 OFFCURVE",
"722 860 OFFCURVE",
"500 860 CURVE SMOOTH",
"278 860 OFFCURVE",
"115 708 OFFCURVE",
"115 500 CURVE SMOOTH"
);
},
{
closed = 1;
nodes = (
"79 277 OFFCURVE",
"107 197 OFFCURVE",
"133 150 CURVE",
"276 206 OFFCURVE",
"379 335 OFFCURVE",
"379 458 CURVE SMOOTH",
"379 541 OFFCURVE",
"332 616 OFFCURVE",
"247 667 CURVE",
"203 583 LINE",
"257 559 OFFCURVE",
"285 526 OFFCURVE",
"285 485 CURVE SMOOTH",
"285 423 OFFCURVE",
"220 378 OFFCURVE",
"67 333 CURVE"
);
},
{
closed = 1;
nodes = (
"199 593 OFFCURVE",
"346 682 OFFCURVE",
"535 682 CURVE SMOOTH",
"695 682 OFFCURVE",
"801 618 OFFCURVE",
"801 521 CURVE SMOOTH",
"801 407 OFFCURVE",
"654 318 OFFCURVE",
"465 318 CURVE SMOOTH",
"305 318 OFFCURVE",
"199 382 OFFCURVE",
"199 479 CURVE SMOOTH"
);
}
);
vertWidth = 760;
width = 1000;
}
);
},
{
color = 3;
glyphname = R.rotat;
layers = (
{
layerId = "F446C85F-564E-4F2C-825C-C389DAA66B11";
paths = (
{
closed = 1;
nodes = (
"112 390 OFFCURVE",
"126 273 OFFCURVE",
"134 230 CURVE",
"212 261 OFFCURVE",
"428 392 OFFCURVE",
"490 446 CURVE",
"513 340 OFFCURVE",
"599 260 OFFCURVE",
"689 260 CURVE SMOOTH",
"812 260 OFFCURVE",
"885 410 OFFCURVE",
"885 634 CURVE SMOOTH",
"885 693 OFFCURVE",
"880 762 OFFCURVE",
"870 830 CURVE",
"702 827 OFFCURVE",
"405 825 OFFCURVE",
"122 825 CURVE",
"120 777 OFFCURVE",
"118 705 OFFCURVE",
"118 645 CURVE",
"384 645 OFFCURVE",
"688 652 OFFCURVE",
"807 661 CURVE",
"807 531 OFFCURVE",
"741 435 OFFCURVE",
"651 435 CURVE SMOOTH",
"566 435 OFFCURVE",
"513 522 OFFCURVE",
"510 669 CURVE",
"483 669 LINE",
"443 598 OFFCURVE",
"309 513 OFFCURVE",
"110 433 CURVE"
);
}
);
vertWidth = 665;
width = 1000;
}
);
},
{
color = 3;
glyphname = S.rotat;
layers = (
{
layerId = "F446C85F-564E-4F2C-825C-C389DAA66B11";
paths = (
{
closed = 1;
nodes = (
"115 386 OFFCURVE",
"228 245 OFFCURVE",
"361 245 CURVE SMOOTH",
"591 245 OFFCURVE",
"625 669 OFFCURVE",
"741 669 CURVE SMOOTH",
"770 669 OFFCURVE",
"802 643 OFFCURVE",
"802 591 CURVE SMOOTH",
"802 520 OFFCURVE",
"742 439 OFFCURVE",
"665 357 CURVE",
"696 319 OFFCURVE",
"743 273 OFFCURVE",
"788 249 CURVE",
"850 323 OFFCURVE",
"885 429 OFFCURVE",
"885 526 CURVE SMOOTH",
"885 697 OFFCURVE",
"775 818 OFFCURVE",
"666 818 CURVE SMOOTH",
"462 818 OFFCURVE",
"436 391 OFFCURVE",
"284 391 CURVE SMOOTH",
"234 391 OFFCURVE",
"208 436 OFFCURVE",
"208 484 CURVE SMOOTH",
"208 564 OFFCURVE",
"281 674 OFFCURVE",
"365 752 CURVE",
"321 797 OFFCURVE",
"276 834 OFFCURVE",
"232 865 CURVE",
"164 793 OFFCURVE",
"115 662 OFFCURVE",
"115 552 CURVE SMOOTH"
);
}
);
vertWidth = 650;
width = 1000;
}
);
},
{
color = 3;
glyphname = T.rotat;
layers = (
{
layerId = "F446C85F-564E-4F2C-825C-C389DAA66B11";
paths = (
{
closed = 1;
nodes = (
"323 394 OFFCURVE",
"645 397 OFFCURVE",
"819 401 CURVE",
"819 589 LINE",
"617 592 OFFCURVE",
"286 595 OFFCURVE",
"122 595 CURVE",
"120 531 OFFCURVE",
"118 445 OFFCURVE",
"118 394 CURVE"
);
},
{
closed = 1;
nodes = (
"780 655 OFFCURVE",
"783 393 OFFCURVE",
"788 125 CURVE",
"873 127 LINE",
"875 279 OFFCURVE",
"877 699 OFFCURVE",
"877 863 CURVE",
"780 865 LINE"
);
}
);
vertWidth = 770;
width = 1000;
}
);
},
{
color = 3;
glyphname = U.rotat;
layers = (
{
anchors = (
{
name = top;
position = "{1000, 470}";
}
);
layerId = "F446C85F-564E-4F2C-825C-C389DAA66B11";
paths = (
{
closed = 1;
nodes = (
"115 260 OFFCURVE",
"271 177 OFFCURVE",
"734 177 CURVE SMOOTH",
"787 177 OFFCURVE",
"837 178 OFFCURVE",
"876 180 CURVE",
"874 299 LINE",
"756 294 OFFCURVE",
"685 292 OFFCURVE",
"622 292 CURVE SMOOTH",
"323 292 OFFCURVE",
"219 336 OFFCURVE",
"219 464 CURVE SMOOTH",
"219 603 OFFCURVE",
"343 651 OFFCURVE",
"704 651 CURVE SMOOTH",
"756 651 OFFCURVE",
"812 650 OFFCURVE",
"873 648 CURVE",
"876 695 OFFCURVE",
"877 760 OFFCURVE",
"877 847 CURVE",
"848 849 OFFCURVE",
"802 850 OFFCURVE",
"749 850 CURVE SMOOTH",
"279 850 OFFCURVE",
"115 761 OFFCURVE",
"115 508 CURVE SMOOTH"
);
}
);
vertWidth = 733;
width = 1000;
}
);
},
{
color = 3;
glyphname = Uacute.rotat;
layers = (
{
anchors = (
{
name = top;
position = "{1000, 470}";
}
);
layerId = "F446C85F-564E-4F2C-825C-C389DAA66B11";
paths = (
{
closed = 1;
nodes = (
"115 260 OFFCURVE",
"271 177 OFFCURVE",
"734 177 CURVE SMOOTH",
"787 177 OFFCURVE",
"837 178 OFFCURVE",
"876 180 CURVE",
"874 299 LINE",
"756 294 OFFCURVE",
"685 292 OFFCURVE",
"622 292 CURVE SMOOTH",
"323 292 OFFCURVE",
"219 336 OFFCURVE",
"219 464 CURVE SMOOTH",
"219 603 OFFCURVE",
"343 651 OFFCURVE",
"704 651 CURVE SMOOTH",
"756 651 OFFCURVE",
"812 650 OFFCURVE",
"873 648 CURVE",
"876 695 OFFCURVE",
"877 760 OFFCURVE",
"877 847 CURVE",
"848 849 OFFCURVE",
"802 850 OFFCURVE",
"749 850 CURVE SMOOTH",
"279 850 OFFCURVE",
"115 761 OFFCURVE",
"115 508 CURVE SMOOTH"
);
},
{
closed = 1;
nodes = (
"1007 320 LINE",
"1103 382 LINE",
"957 620 LINE",
"917 604 LINE"
);
}
);
vertWidth = 733;
width = 1000;
}
);
},
{
color = 3;
glyphname = Ucircumflex.rotat;
layers = (
{
anchors = (
{
name = top;
position = "{1000, 470}";
}
);
layerId = "F446C85F-564E-4F2C-825C-C389DAA66B11";
paths = (
{
closed = 1;
nodes = (
"115 260 OFFCURVE",
"271 177 OFFCURVE",
"734 177 CURVE SMOOTH",
"787 177 OFFCURVE",
"837 178 OFFCURVE",
"876 180 CURVE",
"874 299 LINE",
"756 294 OFFCURVE",
"685 292 OFFCURVE",
"622 292 CURVE SMOOTH",
"323 292 OFFCURVE",
"219 336 OFFCURVE",
"219 464 CURVE SMOOTH",
"219 603 OFFCURVE",
"343 651 OFFCURVE",
"704 651 CURVE SMOOTH",
"756 651 OFFCURVE",
"812 650 OFFCURVE",
"873 648 CURVE",
"876 695 OFFCURVE",
"877 760 OFFCURVE",
"877 847 CURVE",
"848 849 OFFCURVE",
"802 850 OFFCURVE",
"749 850 CURVE SMOOTH",
"279 850 OFFCURVE",
"115 761 OFFCURVE",
"115 508 CURVE SMOOTH"
);
},
{
closed = 1;
nodes = (
"1002 470 LINE",
"909 313 LINE",
"939 279 LINE",
"1117 470 LINE",
"939 661 LINE",
"909 627 LINE"
);
}
);
vertWidth = 733;
width = 1000;
}
);
},
{
color = 3;
glyphname = Udieresis.rotat;
layers = (
{
anchors = (
{
name = top;
position = "{1000, 470}";
}
);
layerId = "F446C85F-564E-4F2C-825C-C389DAA66B11";
paths = (
{
closed = 1;
nodes = (
"115 260 OFFCURVE",
"271 177 OFFCURVE",
"734 177 CURVE SMOOTH",
"787 177 OFFCURVE",
"837 178 OFFCURVE",
"876 180 CURVE",
"874 299 LINE",
"756 294 OFFCURVE",
"685 292 OFFCURVE",
"622 292 CURVE SMOOTH",
"323 292 OFFCURVE",
"219 336 OFFCURVE",
"219 464 CURVE SMOOTH",
"219 603 OFFCURVE",
"343 651 OFFCURVE",
"704 651 CURVE SMOOTH",
"756 651 OFFCURVE",
"812 650 OFFCURVE",
"873 648 CURVE",
"876 695 OFFCURVE",
"877 760 OFFCURVE",
"877 847 CURVE",
"848 849 OFFCURVE",
"802 850 OFFCURVE",
"749 850 CURVE SMOOTH",
"279 850 OFFCURVE",
"115 761 OFFCURVE",
"115 508 CURVE SMOOTH"
);
},
{
closed = 1;
nodes = (
"933 305 LINE",
"1077 305 LINE",
"1077 425 LINE",
"933 425 LINE"
);
},
{
closed = 1;
nodes = (
"933 515 LINE",
"1077 515 LINE",
"1077 635 LINE",
"933 635 LINE"
);
}
);
vertWidth = 733;
width = 1000;
}
);
},
{
color = 3;
glyphname = Ugrave.rotat;
layers = (
{
anchors = (
{
name = top;
position = "{1000, 470}";
}
);
layerId = "F446C85F-564E-4F2C-825C-C389DAA66B11";
paths = (
{
closed = 1;
nodes = (
"115 260 OFFCURVE",
"271 177 OFFCURVE",
"734 177 CURVE SMOOTH",
"787 177 OFFCURVE",
"837 178 OFFCURVE",
"876 180 CURVE",
"874 299 LINE",
"756 294 OFFCURVE",
"685 292 OFFCURVE",
"622 292 CURVE SMOOTH",
"323 292 OFFCURVE",
"219 336 OFFCURVE",
"219 464 CURVE SMOOTH",
"219 603 OFFCURVE",
"343 651 OFFCURVE",
"704 651 CURVE SMOOTH",
"756 651 OFFCURVE",
"812 650 OFFCURVE",
"873 648 CURVE",
"876 695 OFFCURVE",
"877 760 OFFCURVE",
"877 847 CURVE",
"848 849 OFFCURVE",
"802 850 OFFCURVE",
"749 850 CURVE SMOOTH",
"279 850 OFFCURVE",
"115 761 OFFCURVE",
"115 508 CURVE SMOOTH"
);
},
{
closed = 1;
nodes = (
"957 320 LINE",
"1103 558 LINE",
"1007 620 LINE",
"917 336 LINE"
);
}
);
vertWidth = 733;
width = 1000;
}
);
},
{
color = 3;
glyphname = V.rotat;
layers = (
{
layerId = "F446C85F-564E-4F2C-825C-C389DAA66B11";
paths = (
{
closed = 1;
nodes = (
"120 417 LINE",
"360 313 OFFCURVE",
"623 219 OFFCURVE",
"878 145 CURVE",
"886 265 LINE",
"604 339 OFFCURVE",
"346 414 OFFCURVE",
"227 458 CURVE",
"364 507 OFFCURVE",
"651 591 OFFCURVE",
"890 651 CURVE",
"890 718 OFFCURVE",
"884 784 OFFCURVE",
"870 865 CURVE",
"584 772 OFFCURVE",
"317 677 OFFCURVE",
"110 593 CURVE"
);
}
);
vertWidth = 750;
width = 1000;
}
);
},
{
color = 3;
glyphname = W.rotat;
layers = (
{
layerId = "F446C85F-564E-4F2C-825C-C389DAA66B11";
paths = (
{
closed = 1;
nodes = (
"397 450 OFFCURVE",
"646 385 OFFCURVE",
"868 340 CURVE",
"870 472 LINE",
"759 481 OFFCURVE",
"547 519 OFFCURVE",
"287 578 CURVE",
"421 602 OFFCURVE",
"665 633 OFFCURVE",
"890 654 CURVE",
"890 721 OFFCURVE",
"883 793 OFFCURVE",
"870 865 CURVE",
"608 829 OFFCURVE",
"344 777 OFFCURVE",
"118 715 CURVE",
"112 540 LINE"
);
},
{
closed = 1;
nodes = (
"118 145 LINE",
"342 87 OFFCURVE",
"620 32 OFFCURVE",
"878 -5 CURVE",
"886 103 LINE",
"760 108 OFFCURVE",
"502 142 OFFCURVE",
"287 184 CURVE",
"619 264 OFFCURVE",
"777 299 OFFCURVE",
"880 314 CURVE",
"880 360 OFFCURVE",
"876 416 OFFCURVE",
"870 472 CURVE",
"697 439 OFFCURVE",
"394 367 OFFCURVE",
"112 291 CURVE"
);
}
);
vertWidth = 900;
width = 1000;
}
);
},
{
color = 3;
glyphname = X.rotat;
layers = (
{
layerId = "F446C85F-564E-4F2C-825C-C389DAA66B11";
paths = (
{
closed = 1;
nodes = (
"114 304 OFFCURVE",
"119 225 OFFCURVE",
"126 165 CURVE",
"376 309 OFFCURVE",
"666 495 OFFCURVE",
"882 650 CURVE",
"882 705 OFFCURVE",
"876 800 OFFCURVE",
"868 865 CURVE",
"628 698 OFFCURVE",
"350 515 OFFCURVE",
"114 370 CURVE"
);
},
{
closed = 1;
nodes = (
"322 596 OFFCURVE",
"573 422 OFFCURVE",
"870 205 CURVE",
"880 315 LINE",
"589 531 OFFCURVE",
"332 711 OFFCURVE",
"125 845 CURVE",
"115 729 LINE"
);
}
);
vertWidth = 730;
width = 1000;
}
);
},
{
color = 3;
glyphname = Y.rotat;
layers = (
{
anchors = (
{
name = top;
position = "{1000, 480}";
}
);
layerId = "F446C85F-564E-4F2C-825C-C389DAA66B11";
paths = (
{
closed = 1;
nodes = (
"233 392 OFFCURVE",
"374 397 OFFCURVE",
"472 404 CURVE",
"637 517 OFFCURVE",
"787 610 OFFCURVE",
"890 663 CURVE",
"881 748 OFFCURVE",
"867 826 OFFCURVE",
"854 865 CURVE",
"768 812 OFFCURVE",
"603 696 OFFCURVE",
"460 586 CURVE",
"360 591 OFFCURVE",
"218 594 OFFCURVE",
"122 594 CURVE",
"120 546 OFFCURVE",
"118 459 OFFCURVE",
"118 392 CURVE"
);
},
{
closed = 1;
nodes = (
"580 313 OFFCURVE",
"748 195 OFFCURVE",
"863 125 CURVE",
"887 237 LINE",
"743 313 OFFCURVE",
"600 401 OFFCURVE",
"469 496 CURVE",
"443 420 LINE"
);
}
);
vertWidth = 770;
width = 1000;
}
);
},
{
color = 3;
glyphname = Yacute.rotat;
layers = (
{
anchors = (
{
name = top;
position = "{1000, 480}";
}
);
layerId = "F446C85F-564E-4F2C-825C-C389DAA66B11";
paths = (
{
closed = 1;
nodes = (
"233 392 OFFCURVE",
"374 397 OFFCURVE",
"472 404 CURVE",
"637 517 OFFCURVE",
"787 610 OFFCURVE",
"890 663 CURVE",
"881 748 OFFCURVE",
"867 826 OFFCURVE",
"854 865 CURVE",
"768 812 OFFCURVE",
"603 696 OFFCURVE",
"460 586 CURVE",
"360 591 OFFCURVE",
"218 594 OFFCURVE",
"122 594 CURVE",
"120 546 OFFCURVE",
"118 459 OFFCURVE",
"118 392 CURVE"
);
},
{
closed = 1;
nodes = (
"580 313 OFFCURVE",
"748 195 OFFCURVE",
"863 125 CURVE",
"887 237 LINE",
"743 313 OFFCURVE",
"600 401 OFFCURVE",
"469 496 CURVE",
"443 420 LINE"
);
},
{
closed = 1;
nodes = (
"1007 330 LINE",
"1103 392 LINE",
"957 630 LINE",
"917 614 LINE"
);
}
);
vertWidth = 770;
width = 1000;
}
);
},
{
color = 3;
glyphname = Z.rotat;
layers = (
{
layerId = "F446C85F-564E-4F2C-825C-C389DAA66B11";
paths = (
{
closed = 1;
nodes = (
"223 253 LINE",
"212 374 OFFCURVE",
"203 514 OFFCURVE",
"198 639 CURVE",
"493 449 OFFCURVE",
"655 348 OFFCURVE",
"802 265 CURVE",
"873 287 LINE",
"876 447 OFFCURVE",
"877 623 OFFCURVE",
"877 835 CURVE",
"777 828 LINE",
"788 717 OFFCURVE",
"798 567 OFFCURVE",
"802 459 CURVE",
"643 551 OFFCURVE",
"449 678 OFFCURVE",
"208 850 CURVE",
"122 828 LINE",
"119 646 OFFCURVE",
"118 433 OFFCURVE",
"118 250 CURVE"
);
}
);
vertWidth = 660;
width = 1000;
}
);
},
{
color = 6;
glyphname = E.full.vert;
layers = (
{
anchors = (
{
name = top;
position = "{509.47, 931.308}";
}
);
layerId = "F446C85F-564E-4F2C-825C-C389DAA66B11";
paths = (
{
closed = 1;
nodes = (
"815.65 107.76 LINE",
"430.3 102.66 LINE",
"426.1 310.74 OFFCURVE",
"425.05 485.16 OFFCURVE",
"425.05 704.46 CURVE",
"816.7 700.38 LINE",
"814.6 805.44 LINE",
"679.15 800.34 OFFCURVE",
"364.15 795.24 OFFCURVE",
"203.5 795.24 CURVE",
"203.5 672.84 OFFCURVE",
"222.4 130.2 OFFCURVE",
"231.85 11.88 CURVE",
"506.95 11.88 OFFCURVE",
"733.75 7.8 OFFCURVE",
"811.45 1.68 CURVE"
);
},
{
closed = 1;
nodes = (
"791.5 466.8 LINE",
"353.65 453.54 LINE",
"353.65 368.88 LINE",
"790.45 351.54 LINE"
);
}
);
vertWidth = 948;
width = 1000;
}
);
},
{
glyphname = a;
layers = (
{
anchors = (
{
name = top;
position = "{315, 680}";
}
);
layerId = "F446C85F-564E-4F2C-825C-C389DAA66B11";
paths = (
{
closed = 1;
nodes = (
"503 -2 OFFCURVE",
"574 0 OFFCURVE",
"600 2 CURVE",
"600 407 OFFCURVE",
"519 565 OFFCURVE",
"312 565 CURVE SMOOTH",
"224 565 OFFCURVE",
"128 536 OFFCURVE",
"30 480 CURVE",
"60 380 LINE",
"142 443 OFFCURVE",
"229 485 OFFCURVE",
"280 485 CURVE SMOOTH",
"379 485 OFFCURVE",
"428 324 OFFCURVE",
"428 -2 CURVE"
);
},
{
closed = 1;
nodes = (
"310 -5 OFFCURVE",
"398 31 OFFCURVE",
"488 105 CURVE",
"437 159 LINE",
"387 109 OFFCURVE",
"338 85 OFFCURVE",
"285 85 CURVE SMOOTH",
"230 85 OFFCURVE",
"195 111 OFFCURVE",
"195 152 CURVE SMOOTH",
"195 228 OFFCURVE",
"317 321 OFFCURVE",
"429 330 CURVE",
"405 400 LINE",
"186 377 OFFCURVE",
"30 271 OFFCURVE",
"30 145 CURVE SMOOTH",
"30 56 OFFCURVE",
"108 -5 OFFCURVE",
"222 -5 CURVE SMOOTH"
);
}
);
width = 630;
}
);
leftKerningGroup = a;
rightKerningGroup = a;
unicode = 0061;
},
{
glyphname = ae;
layers = (
{
layerId = "F446C85F-564E-4F2C-825C-C389DAA66B11";
paths = (
{
closed = 1;
nodes = (
"773 -5 OFFCURVE",
"862 42 OFFCURVE",
"930 133 CURVE",
"858 193 LINE",
"820 120 OFFCURVE",
"763 77 OFFCURVE",
"703 77 CURVE SMOOTH",
"615 77 OFFCURVE",
"550 171 OFFCURVE",
"550 297 CURVE SMOOTH",
"550 404 OFFCURVE",
"597 485 OFFCURVE",
"659 485 CURVE SMOOTH",
"714 485 OFFCURVE",
"763 421 OFFCURVE",
"767 343 CURVE",
"509 305 LINE",
"519 215 LINE",
"930 297 LINE",
"930 456 OFFCURVE",
"832 565 OFFCURVE",
"688 565 CURVE SMOOTH",
"528 565 OFFCURVE",
"399 430 OFFCURVE",
"399 261 CURVE SMOOTH",
"399 105 OFFCURVE",
"511 -5 OFFCURVE",
"669 -5 CURVE SMOOTH"
);
},
{
closed = 1;
nodes = (
"312 -5 OFFCURVE",
"413 36 OFFCURVE",
"488 105 CURVE",
"427 199 LINE",
"371 120 OFFCURVE",
"316 80 OFFCURVE",
"265 80 CURVE SMOOTH",
"217 80 OFFCURVE",
"180 116 OFFCURVE",
"180 164 CURVE SMOOTH",
"180 242 OFFCURVE",
"279 321 OFFCURVE",
"389 330 CURVE",
"365 400 LINE",
"166 379 OFFCURVE",
"30 277 OFFCURVE",
"30 148 CURVE SMOOTH",
"30 54 OFFCURVE",
"102 -5 OFFCURVE",
"217 -5 CURVE SMOOTH"
);
},
{
closed = 1;
nodes = (
"560 120 LINE",
"560 415 OFFCURVE",
"463 565 OFFCURVE",
"272 565 CURVE SMOOTH",
"195 565 OFFCURVE",
"127 541 OFFCURVE",
"30 480 CURVE",
"80 380 LINE",
"133 444 OFFCURVE",
"199 485 OFFCURVE",
"250 485 CURVE SMOOTH",
"343 485 OFFCURVE",
"400 347 OFFCURVE",
"400 120 CURVE"
);
}
);
width = 960;
}
);
leftKerningGroup = a;
leftMetricsKey = a;
rightKerningGroup = e;
rightMetricsKey = e;
unicode = 00E6;
},
{
glyphname = b;
layers = (
{
layerId = "F446C85F-564E-4F2C-825C-C389DAA66B11";
paths = (
{
closed = 1;
nodes = (
"469 -5 OFFCURVE",
"570 125 OFFCURVE",
"570 288 CURVE SMOOTH",
"570 447 OFFCURVE",
"475 565 OFFCURVE",
"348 565 CURVE SMOOTH",
"261 565 OFFCURVE",
"179 509 OFFCURVE",
"115 407 CURVE",
"186 367 LINE",
"213 439 OFFCURVE",
"257 483 OFFCURVE",
"302 483 CURVE SMOOTH",
"369 483 OFFCURVE",
"419 386 OFFCURVE",
"419 256 CURVE SMOOTH",
"419 142 OFFCURVE",
"382 75 OFFCURVE",
"319 75 CURVE SMOOTH",
"268 75 OFFCURVE",
"223 119 OFFCURVE",
"205 187 CURVE",
"110 113 LINE",
"179 40 OFFCURVE",
"268 -5 OFFCURVE",
"342 -5 CURVE SMOOTH"
);
},
{
closed = 1;
nodes = (
"219 106 OFFCURVE",
"222 550 OFFCURVE",
"222 753 CURVE",
"177 755 OFFCURVE",
"95 757 OFFCURVE",
"50 757 CURVE",
"50 555 OFFCURVE",
"53 117 OFFCURVE",
"55 2 CURVE",
"94 0 OFFCURVE",
"159 -2 OFFCURVE",
"217 -2 CURVE"
);
}
);
width = 600;
}
);
leftKerningGroup = b;
rightKerningGroup = o;
unicode = 0062;
},
{
glyphname = c;
layers = (
{
anchors = (
{
name = bottom;
position = "{305, 0}";
}
);
layerId = "F446C85F-564E-4F2C-825C-C389DAA66B11";
paths = (
{
closed = 1;
nodes = (
"410 -5 OFFCURVE",
"498 36 OFFCURVE",
"575 113 CURVE",
"514 173 LINE",
"478 114 OFFCURVE",
"420 77 OFFCURVE",
"365 77 CURVE SMOOTH",
"270 77 OFFCURVE",
"191 189 OFFCURVE",
"191 323 CURVE SMOOTH",
"191 422 OFFCURVE",
"236 485 OFFCURVE",
"306 485 CURVE SMOOTH",
"370 485 OFFCURVE",
"442 432 OFFCURVE",
"485 353 CURVE",
"580 457 LINE",
"501 529 OFFCURVE",
"418 565 OFFCURVE",
"332 565 CURVE SMOOTH",
"167 565 OFFCURVE",
"30 434 OFFCURVE",
"30 278 CURVE SMOOTH",
"30 125 OFFCURVE",
"163 -5 OFFCURVE",
"321 -5 CURVE SMOOTH"
);
}
);
width = 590;
}
);
leftKerningGroup = o;
rightKerningGroup = c;
unicode = 0063;
},
{
glyphname = d;
layers = (
{
layerId = "F446C85F-564E-4F2C-825C-C389DAA66B11";
paths = (
{
closed = 1;
nodes = (
"339 -5 OFFCURVE",
"421 51 OFFCURVE",
"485 153 CURVE",
"414 193 LINE",
"387 121 OFFCURVE",
"343 77 OFFCURVE",
"298 77 CURVE SMOOTH",
"231 77 OFFCURVE",
"181 174 OFFCURVE",
"181 304 CURVE SMOOTH",
"181 418 OFFCURVE",
"218 485 OFFCURVE",
"281 485 CURVE SMOOTH",
"332 485 OFFCURVE",
"377 441 OFFCURVE",
"395 373 CURVE",
"490 447 LINE",
"421 520 OFFCURVE",
"332 565 OFFCURVE",
"258 565 CURVE SMOOTH",
"131 565 OFFCURVE",
"30 435 OFFCURVE",
"30 272 CURVE SMOOTH",
"30 113 OFFCURVE",
"125 -5 OFFCURVE",
"252 -5 CURVE SMOOTH"
);
},
{
closed = 1;
nodes = (
"547 106 OFFCURVE",
"550 550 OFFCURVE",
"550 753 CURVE",
"505 755 OFFCURVE",
"423 757 OFFCURVE",
"378 757 CURVE",
"378 555 OFFCURVE",
"381 117 OFFCURVE",
"383 2 CURVE",
"422 0 OFFCURVE",
"487 -2 OFFCURVE",
"545 -2 CURVE"
);
}
);
width = 600;
}
);
leftKerningGroup = o;
rightKerningGroup = d;
unicode = 0064;
},
{
glyphname = eth;
layers = (
{
layerId = "F446C85F-564E-4F2C-825C-C389DAA66B11";
paths = (
{
closed = 1;
nodes = (
"452 -5 OFFCURVE",
"570 112 OFFCURVE",
"570 274 CURVE SMOOTH",
"570 419 OFFCURVE",
"476 597 OFFCURVE",
"305 775 CURVE",
"204 735 LINE",
"352 514 OFFCURVE",
"415 364 OFFCURVE",
"415 231 CURVE SMOOTH",
"415 133 OFFCURVE",
"381 77 OFFCURVE",
"323 77 CURVE SMOOTH",
"245 77 OFFCURVE",
"181 179 OFFCURVE",
"181 304 CURVE SMOOTH",
"181 396 OFFCURVE",
"216 445 OFFCURVE",
"280 445 CURVE SMOOTH",
"342 445 OFFCURVE",
"398 400 OFFCURVE",
"413 338 CURVE",
"508 412 LINE",
"443 486 OFFCURVE",
"363 525 OFFCURVE",
"277 525 CURVE SMOOTH",
"132 525 OFFCURVE",
"30 414 OFFCURVE",
"30 258 CURVE SMOOTH",
"30 100 OFFCURVE",
"134 -5 OFFCURVE",
"289 -5 CURVE SMOOTH"
);
},
{
closed = 1;
nodes = (
"528 618 LINE",
"491 729 LINE",
"53 627 LINE",
"64 567 LINE"
);
}
);
width = 600;
}
);
leftKerningGroup = eth;
rightKerningGroup = eth;
unicode = 00F0;
},
{
glyphname = e;
layers = (
{
anchors = (
{
name = top;
position = "{310, 680}";
}
);
layerId = "F446C85F-564E-4F2C-825C-C389DAA66B11";
paths = (
{
closed = 1;
nodes = (
"419 -5 OFFCURVE",
"515 45 OFFCURVE",
"580 133 CURVE",
"509 193 LINE",
"475 125 OFFCURVE",
"407 77 OFFCURVE",
"345 77 CURVE SMOOTH",
"253 77 OFFCURVE",
"180 184 OFFCURVE",
"180 321 CURVE SMOOTH",
"180 424 OFFCURVE",
"221 485 OFFCURVE",
"289 485 CURVE SMOOTH",
"354 485 OFFCURVE",
"404 428 OFFCURVE",
"413 343 CURVE",
"140 305 LINE",
"150 215 LINE",
"590 297 LINE",
"575 458 OFFCURVE",
"463 565 OFFCURVE",
"311 565 CURVE SMOOTH",
"150 565 OFFCURVE",
"30 444 OFFCURVE",
"30 281 CURVE SMOOTH",
"30 117 OFFCURVE",
"152 -5 OFFCURVE",
"315 -5 CURVE SMOOTH"
);
}
);
width = 620;
}
);
leftKerningGroup = o;
rightKerningGroup = e;
unicode = 0065;
},
{
glyphname = f;
layers = (
{
layerId = "F446C85F-564E-4F2C-825C-C389DAA66B11";
paths = (
{
closed = 1;
nodes = (
"157 -2 OFFCURVE",
"224 0 OFFCURVE",
"280 2 CURVE",
"277 77 OFFCURVE",
"276 154 OFFCURVE",
"276 240 CURVE SMOOTH",
"276 616 OFFCURVE",
"295 683 OFFCURVE",
"401 685 CURVE",
"405 770 LINE",
"137 757 OFFCURVE",
"105 675 OFFCURVE",
"105 -2 CURVE"
);
},
{
closed = 1;
nodes = (
"404 476 LINE",
"410 564 LINE",
"30 566 LINE",
"36 474 LINE"
);
}
);
width = 440;
}
);
leftKerningGroup = f;
rightKerningGroup = f;
unicode = 0066;
},
{
glyphname = g;
layers = (
{
layerId = "F446C85F-564E-4F2C-825C-C389DAA66B11";
paths = (
{
closed = 1;
nodes = (
"486 -130 OFFCURVE",
"570 -30 OFFCURVE",
"570 405 CURVE SMOOTH",
"570 451 OFFCURVE",
"569 500 OFFCURVE",
"567 557 CURVE",
"501 557 OFFCURVE",
"454 556 OFFCURVE",
"395 553 CURVE",
"406 415 OFFCURVE",
"410 334 OFFCURVE",
"410 266 CURVE SMOOTH",
"410 20 OFFCURVE",
"356 -38 OFFCURVE",
"116 -50 CURVE",
"119 -130 LINE"
);
},
{
closed = 1;
nodes = (
"345 35 OFFCURVE",
"435 94 OFFCURVE",
"485 193 CURVE",
"414 233 LINE",
"398 166 OFFCURVE",
"360 130 OFFCURVE",
"306 130 CURVE SMOOTH",
"230 130 OFFCURVE",
"181 202 OFFCURVE",
"181 315 CURVE SMOOTH",
"181 417 OFFCURVE",
"221 480 OFFCURVE",
"286 480 CURVE SMOOTH",
"341 480 OFFCURVE",
"394 436 OFFCURVE",
"415 373 CURVE",
"510 447 LINE",
"440 517 OFFCURVE",
"337 565 OFFCURVE",
"258 565 CURVE SMOOTH",
"131 565 OFFCURVE",
"30 439 OFFCURVE",
"30 281 CURVE SMOOTH",
"30 134 OFFCURVE",
"117 35 OFFCURVE",
"246 35 CURVE SMOOTH"
);
}
);
width = 620;
}
);
leftKerningGroup = g;
rightKerningGroup = g;
unicode = 0067;
},
{
glyphname = h;
layers = (
{
layerId = "F446C85F-564E-4F2C-825C-C389DAA66B11";
paths = (
{
closed = 1;
nodes = (
"520 -2 OFFCURVE",
"566 -1 OFFCURVE",
"600 2 CURVE",
"600 387 OFFCURVE",
"527 565 OFFCURVE",
"370 565 CURVE SMOOTH",
"277 565 OFFCURVE",
"174 502 OFFCURVE",
"116 408 CURVE",
"204 352 LINE",
"230 428 OFFCURVE",
"281 485 OFFCURVE",
"323 485 CURVE SMOOTH",
"393 485 OFFCURVE",
"428 323 OFFCURVE",
"428 -2 CURVE"
);
},
{
closed = 1;
nodes = (
"219 108 OFFCURVE",
"222 546 OFFCURVE",
"222 757 CURVE",
"175 757 OFFCURVE",
"93 755 OFFCURVE",
"50 753 CURVE",
"50 543 OFFCURVE",
"53 107 OFFCURVE",
"55 2 CURVE",
"97 0 OFFCURVE",
"167 -2 OFFCURVE",
"217 -2 CURVE"
);
}
);
width = 630;
}
);
leftKerningGroup = b;
rightKerningGroup = m;
unicode = 0068;
},
{
glyphname = i;
layers = (
{
components = (
{
name = idotless;
}
);
layerId = "F446C85F-564E-4F2C-825C-C389DAA66B11";
paths = (
{
closed = 1;
nodes = (
"221 625 LINE",
"221 760 LINE",
"51 760 LINE",
"51 625 LINE"
);
}
);
width = 272;
}
);
leftKerningGroup = i;
rightKerningGroup = i;
unicode = 0069;
},
{
glyphname = idotless;
layers = (
{
anchors = (
{
name = top;
position = "{136, 680}";
}
);
layerId = "F446C85F-564E-4F2C-825C-C389DAA66B11";
paths = (
{
closed = 1;
nodes = (
"98 -2 OFFCURVE",
"156 -1 OFFCURVE",
"217 2 CURVE",
"220 98 OFFCURVE",
"222 348 OFFCURVE",
"222 543 CURVE",
"184 545 OFFCURVE",
"110 547 OFFCURVE",
"50 547 CURVE",
"50 312 OFFCURVE",
"52 86 OFFCURVE",
"55 -2 CURVE"
);
}
);
width = 272;
}
);
leftKerningGroup = i;
rightKerningGroup = i;
unicode = 0131;
},
{
glyphname = j;
layers = (
{
layerId = "F446C85F-564E-4F2C-825C-C389DAA66B11";
paths = (
{
closed = 1;
nodes = (
"232 -95 OFFCURVE",
"305 52 OFFCURVE",
"305 363 CURVE SMOOTH",
"305 414 OFFCURVE",
"303 476 OFFCURVE",
"299 547 CURVE",
"233 547 OFFCURVE",
"176 546 OFFCURVE",
"127 543 CURVE",
"134 443 OFFCURVE",
"137 363 OFFCURVE",
"137 307 CURVE SMOOTH",
"137 104 OFFCURVE",
"98 -2 OFFCURVE",
"10 -40 CURVE",
"60 -130 LINE"
);
},
{
closed = 1;
nodes = (
"296 625 LINE",
"296 760 LINE",
"126 760 LINE",
"126 625 LINE"
);
}
);
width = 355;
}
);
leftKerningGroup = j;
rightKerningGroup = j;
unicode = 006A;
},
{
glyphname = k;
layers = (
{
layerId = "F446C85F-564E-4F2C-825C-C389DAA66B11";
paths = (
{
closed = 1;
nodes = (
"349 336 OFFCURVE",
"497 450 OFFCURVE",
"587 535 CURVE",
"498 595 LINE",
"431 522 OFFCURVE",
"293 399 OFFCURVE",
"170 304 CURVE",
"205 240 LINE"
);
},
{
closed = 1;
nodes = (
"135 -2 OFFCURVE",
"182 -1 OFFCURVE",
"217 2 CURVE",
"219 131 OFFCURVE",
"222 577 OFFCURVE",
"222 753 CURVE",
"177 755 OFFCURVE",
"109 757 OFFCURVE",
"50 757 CURVE",
"50 587 OFFCURVE",
"53 136 OFFCURVE",
"55 -2 CURVE"
);
},
{
closed = 1;
nodes = (
"620 10 LINE",
"566 130 OFFCURVE",
"474 313 OFFCURVE",
"421 406 CURVE",
"279 353 LINE",
"326 259 OFFCURVE",
"381 125 OFFCURVE",
"428 -10 CURVE"
);
}
);
width = 630;
}
);
leftKerningGroup = b;
rightKerningGroup = k;
unicode = 006B;
},
{
glyphname = l;
layers = (
{
layerId = "F446C85F-564E-4F2C-825C-C389DAA66B11";
paths = (
{
closed = 1;
nodes = (
"145 757 OFFCURVE",
"94 756 OFFCURVE",
"55 753 CURVE",
"52 651 OFFCURVE",
"50 567 OFFCURVE",
"50 491 CURVE SMOOTH",
"50 125 OFFCURVE",
"97 -3 OFFCURVE",
"240 -20 CURVE",
"310 60 LINE",
"244 94 OFFCURVE",
"218 226 OFFCURVE",
"218 543 CURVE SMOOTH",
"218 605 OFFCURVE",
"219 681 OFFCURVE",
"222 757 CURVE"
);
}
);
width = 320;
}
);
leftKerningGroup = l;
rightKerningGroup = l;
unicode = 006C;
},
{
glyphname = m;
layers = (
{
layerId = "F446C85F-564E-4F2C-825C-C389DAA66B11";
paths = (
{
closed = 1;
nodes = (
"752 -4 OFFCURVE",
"819 -1 OFFCURVE",
"857 4 CURVE",
"859 44 OFFCURVE",
"860 76 OFFCURVE",
"860 112 CURVE SMOOTH",
"860 420 OFFCURVE",
"793 565 OFFCURVE",
"650 565 CURVE SMOOTH",
"561 565 OFFCURVE",
"476 509 OFFCURVE",
"414 408 CURVE",
"502 352 LINE",
"523 424 OFFCURVE",
"576 485 OFFCURVE",
"616 485 CURVE SMOOTH",
"667 485 OFFCURVE",
"691 388 OFFCURVE",
"691 181 CURVE SMOOTH",
"691 118 OFFCURVE",
"689 52 OFFCURVE",
"685 -4 CURVE"
);
},
{
closed = 1;
nodes = (
"192 253 OFFCURVE",
"190 478 OFFCURVE",
"187 553 CURVE",
"141 555 OFFCURVE",
"77 557 OFFCURVE",
"35 557 CURVE",
"32 474 OFFCURVE",
"30 252 OFFCURVE",
"30 2 CURVE",
"63 0 OFFCURVE",
"147 -2 OFFCURVE",
"192 -2 CURVE"
);
},
{
closed = 1;
nodes = (
"402 -2 OFFCURVE",
"483 0 OFFCURVE",
"523 2 CURVE",
"525 44 OFFCURVE",
"526 85 OFFCURVE",
"526 131 CURVE SMOOTH",
"526 450 OFFCURVE",
"480 565 OFFCURVE",
"353 565 CURVE SMOOTH",
"268 565 OFFCURVE",
"185 511 OFFCURVE",
"94 398 CURVE",
"182 352 LINE",
"207 426 OFFCURVE",
"259 485 OFFCURVE",
"299 485 CURVE SMOOTH",
"342 485 OFFCURVE",
"357 418 OFFCURVE",
"357 228 CURVE SMOOTH",
"357 154 OFFCURVE",
"355 69 OFFCURVE",
"351 -2 CURVE"
);
}
);
width = 890;
}
);
leftKerningGroup = m;
rightKerningGroup = m;
unicode = 006D;
},
{
glyphname = n;
layers = (
{
anchors = (
{
name = top;
position = "{315, 680}";
}
);
layerId = "F446C85F-564E-4F2C-825C-C389DAA66B11";
paths = (
{
closed = 1;
nodes = (
"601 404 OFFCURVE",
"537 565 OFFCURVE",
"375 565 CURVE SMOOTH",
"276 565 OFFCURVE",
"177 504 OFFCURVE",
"90 388 CURVE",
"178 332 LINE",
"207 420 OFFCURVE",
"269 485 OFFCURVE",
"324 485 CURVE SMOOTH",
"401 485 OFFCURVE",
"429 356 OFFCURVE",
"429 2 CURVE",
"474 0 OFFCURVE",
"554 -2 OFFCURVE",
"601 -2 CURVE"
);
},
{
closed = 1;
nodes = (
"91 -2 OFFCURVE",
"155 0 OFFCURVE",
"197 2 CURVE",
"200 85 OFFCURVE",
"202 324 OFFCURVE",
"202 553 CURVE",
"159 555 OFFCURVE",
"74 557 OFFCURVE",
"30 557 CURVE",
"30 312 OFFCURVE",
"32 83 OFFCURVE",
"35 -2 CURVE"
);
}
);
width = 631;
}
);
leftKerningGroup = m;
rightKerningGroup = m;
unicode = 006E;
},
{
glyphname = o;
layers = (
{
anchors = (
{
name = top;
position = "{320, 680}";
}
);
layerId = "F446C85F-564E-4F2C-825C-C389DAA66B11";
paths = (
{
closed = 1;
nodes = (
"476 -5 OFFCURVE",
"610 126 OFFCURVE",
"610 288 CURVE SMOOTH",
"610 443 OFFCURVE",
"486 565 OFFCURVE",
"328 565 CURVE SMOOTH",
"164 565 OFFCURVE",
"30 434 OFFCURVE",
"30 272 CURVE SMOOTH",
"30 117 OFFCURVE",
"154 -5 OFFCURVE",
"312 -5 CURVE SMOOTH"
);
},
{
closed = 1;
nodes = (
"252 76 OFFCURVE",
"186 177 OFFCURVE",
"186 312 CURVE SMOOTH",
"186 420 OFFCURVE",
"228 484 OFFCURVE",
"299 484 CURVE SMOOTH",
"388 484 OFFCURVE",
"454 383 OFFCURVE",
"454 248 CURVE SMOOTH",
"454 140 OFFCURVE",
"412 76 OFFCURVE",
"341 76 CURVE SMOOTH"
);
}
);
width = 640;
}
);
leftKerningGroup = o;
rightKerningGroup = o;
unicode = 006F;
},
{
glyphname = oslash;
layers = (
{
components = (
{
name = o;
}
);
layerId = "F446C85F-564E-4F2C-825C-C389DAA66B11";
paths = (
{
closed = 1;
nodes = (
"575 540 LINE",
"495 595 LINE",
"65 20 LINE",
"145 -35 LINE"
);
}
);
width = 640;
}
);
leftKerningGroup = o;
rightKerningGroup = o;
unicode = 00F8;
},
{
glyphname = oe;
layers = (
{
layerId = "F446C85F-564E-4F2C-825C-C389DAA66B11";
paths = (
{
closed = 1;
nodes = (
"458 -5 OFFCURVE",
"590 131 OFFCURVE",
"590 302 CURVE SMOOTH",
"590 454 OFFCURVE",
"479 565 OFFCURVE",
"328 565 CURVE SMOOTH",
"163 565 OFFCURVE",
"30 429 OFFCURVE",
"30 259 CURVE SMOOTH",
"30 106 OFFCURVE",
"141 -5 OFFCURVE",
"292 -5 CURVE SMOOTH"
);
},
{
closed = 1;
nodes = (
"245 76 OFFCURVE",
"181 176 OFFCURVE",
"181 304 CURVE SMOOTH",
"181 412 OFFCURVE",
"226 484 OFFCURVE",
"294 484 CURVE SMOOTH",
"375 484 OFFCURVE",
"439 384 OFFCURVE",
"439 256 CURVE SMOOTH",
"439 148 OFFCURVE",
"394 76 OFFCURVE",
"326 76 CURVE SMOOTH"
);
},
{
closed = 1;
nodes = (
"807 -5 OFFCURVE",
"892 41 OFFCURVE",
"960 133 CURVE",
"888 193 LINE",
"850 119 OFFCURVE",
"796 77 OFFCURVE",
"738 77 CURVE SMOOTH",
"651 77 OFFCURVE",
"590 169 OFFCURVE",
"590 302 CURVE SMOOTH",
"590 411 OFFCURVE",
"630 485 OFFCURVE",
"689 485 CURVE SMOOTH",
"744 485 OFFCURVE",
"793 421 OFFCURVE",
"797 343 CURVE",
"539 305 LINE",
"549 215 LINE",
"960 297 LINE",
"960 455 OFFCURVE",
"864 565 OFFCURVE",
"726 565 CURVE SMOOTH",
"570 565 OFFCURVE",
"439 424 OFFCURVE",
"439 256 CURVE SMOOTH",
"439 102 OFFCURVE",
"547 -5 OFFCURVE",
"704 -5 CURVE SMOOTH"
);
}
);
width = 990;
}
);
leftKerningGroup = o;
leftMetricsKey = o;
rightKerningGroup = e;
rightMetricsKey = e;
unicode = 0153;
},
{
glyphname = p;
layers = (
{
layerId = "F446C85F-564E-4F2C-825C-C389DAA66B11";
paths = (
{
closed = 1;
nodes = (
"469 -5 OFFCURVE",
"570 125 OFFCURVE",
"570 288 CURVE SMOOTH",
"570 447 OFFCURVE",
"475 565 OFFCURVE",
"348 565 CURVE SMOOTH",
"261 565 OFFCURVE",
"179 509 OFFCURVE",
"115 407 CURVE",
"186 367 LINE",
"213 439 OFFCURVE",
"257 483 OFFCURVE",
"302 483 CURVE SMOOTH",
"369 483 OFFCURVE",
"419 386 OFFCURVE",
"419 256 CURVE SMOOTH",
"419 142 OFFCURVE",
"382 75 OFFCURVE",
"319 75 CURVE SMOOTH",
"268 75 OFFCURVE",
"223 119 OFFCURVE",
"205 187 CURVE",
"110 113 LINE",
"179 40 OFFCURVE",
"268 -5 OFFCURVE",
"342 -5 CURVE SMOOTH"
);
},
{
closed = 1;
nodes = (
"219 -7 OFFCURVE",
"222 346 OFFCURVE",
"222 557 CURVE",
"175 557 OFFCURVE",
"93 555 OFFCURVE",
"50 553 CURVE",
"50 343 OFFCURVE",
"53 -8 OFFCURVE",
"55 -113 CURVE",
"97 -115 OFFCURVE",
"167 -117 OFFCURVE",
"217 -117 CURVE"
);
}
);
width = 600;
}
);
leftKerningGroup = p;
rightKerningGroup = o;
unicode = 0070;
},
{
glyphname = thorn;
layers = (
{
layerId = "F446C85F-564E-4F2C-825C-C389DAA66B11";
paths = (
{
closed = 1;
nodes = (
"469 -5 OFFCURVE",
"570 125 OFFCURVE",
"570 288 CURVE SMOOTH",
"570 447 OFFCURVE",
"475 565 OFFCURVE",
"348 565 CURVE SMOOTH",
"261 565 OFFCURVE",
"179 509 OFFCURVE",
"115 407 CURVE",
"186 367 LINE",
"213 439 OFFCURVE",
"257 483 OFFCURVE",
"302 483 CURVE SMOOTH",
"369 483 OFFCURVE",
"419 386 OFFCURVE",
"419 256 CURVE SMOOTH",
"419 142 OFFCURVE",
"382 75 OFFCURVE",
"319 75 CURVE SMOOTH",
"268 75 OFFCURVE",
"223 119 OFFCURVE",
"205 187 CURVE",
"110 113 LINE",
"179 40 OFFCURVE",
"268 -5 OFFCURVE",
"342 -5 CURVE SMOOTH"
);
},
{
closed = 1;
nodes = (
"222 179 OFFCURVE",
"219 681 OFFCURVE",
"217 757 CURVE",
"148 757 OFFCURVE",
"95 756 OFFCURVE",
"55 753 CURVE",
"53 678 OFFCURVE",
"50 173 OFFCURVE",
"50 -113 CURVE",
"106 -115 OFFCURVE",
"180 -117 OFFCURVE",
"222 -117 CURVE"
);
}
);
width = 600;
}
);
leftKerningGroup = thn;
rightKerningGroup = o;
unicode = 00FE;
},
{
glyphname = q;
layers = (
{
layerId = "F446C85F-564E-4F2C-825C-C389DAA66B11";
paths = (
{
closed = 1;
nodes = (
"339 -5 OFFCURVE",
"421 51 OFFCURVE",
"485 153 CURVE",
"414 193 LINE",
"387 121 OFFCURVE",
"343 77 OFFCURVE",
"298 77 CURVE SMOOTH",
"231 77 OFFCURVE",
"181 174 OFFCURVE",
"181 304 CURVE SMOOTH",
"181 418 OFFCURVE",
"218 485 OFFCURVE",
"281 485 CURVE SMOOTH",
"332 485 OFFCURVE",
"377 441 OFFCURVE",
"395 373 CURVE",
"490 447 LINE",
"421 520 OFFCURVE",
"332 565 OFFCURVE",
"258 565 CURVE SMOOTH",
"131 565 OFFCURVE",
"30 435 OFFCURVE",
"30 272 CURVE SMOOTH",
"30 113 OFFCURVE",
"125 -5 OFFCURVE",
"252 -5 CURVE SMOOTH"
);
},
{
closed = 1;
nodes = (
"423 -117 OFFCURVE",
"505 -115 OFFCURVE",
"550 -113 CURVE",
"550 73 OFFCURVE",
"547 432 OFFCURVE",
"545 553 CURVE",
"497 555 OFFCURVE",
"428 557 OFFCURVE",
"383 557 CURVE",
"381 429 OFFCURVE",
"378 68 OFFCURVE",
"378 -117 CURVE"
);
}
);
width = 600;
}
);
leftKerningGroup = o;
rightKerningGroup = q;
unicode = 0071;
},
{
glyphname = r;
layers = (
{
layerId = "F446C85F-564E-4F2C-825C-C389DAA66B11";
paths = (
{
closed = 1;
nodes = (
"447 326 OFFCURVE",
"502 340 OFFCURVE",
"555 357 CURVE",
"547 475 OFFCURVE",
"464 565 OFFCURVE",
"363 565 CURVE SMOOTH",
"274 565 OFFCURVE",
"171 494 OFFCURVE",
"106 388 CURVE",
"194 352 LINE",
"219 424 OFFCURVE",
"275 485 OFFCURVE",
"315 485 CURVE SMOOTH",
"360 485 OFFCURVE",
"399 408 OFFCURVE",
"399 318 CURVE"
);
},
{
closed = 1;
nodes = (
"200 82 OFFCURVE",
"202 309 OFFCURVE",
"202 557 CURVE",
"159 557 OFFCURVE",
"74 555 OFFCURVE",
"30 553 CURVE",
"30 315 OFFCURVE",
"32 82 OFFCURVE",
"35 2 CURVE",
"86 0 OFFCURVE",
"150 -2 OFFCURVE",
"197 -2 CURVE"
);
}
);
width = 585;
}
);
leftKerningGroup = m;
rightKerningGroup = r;
unicode = 0072;
},
{
glyphname = s;
layers = (
{
layerId = "F446C85F-564E-4F2C-825C-C389DAA66B11";
paths = (
{
closed = 1;
nodes = (
"469 -5 OFFCURVE",
"580 73 OFFCURVE",
"580 181 CURVE SMOOTH",
"580 378 OFFCURVE",
"215 334 OFFCURVE",
"215 427 CURVE SMOOTH",
"215 454 OFFCURVE",
"246 485 OFFCURVE",
"305 485 CURVE SMOOTH",
"366 485 OFFCURVE",
"435 451 OFFCURVE",
"509 405 CURVE",
"565 500 LINE",
"490 541 OFFCURVE",
"396 565 OFFCURVE",
"308 565 CURVE SMOOTH",
"146 565 OFFCURVE",
"45 484 OFFCURVE",
"45 395 CURVE SMOOTH",
"45 226 OFFCURVE",
"410 252 OFFCURVE",
"410 138 CURVE SMOOTH",
"410 108 OFFCURVE",
"384 77 OFFCURVE",
"327 77 CURVE SMOOTH",
"262 77 OFFCURVE",
"149 117 OFFCURVE",
"74 162 CURVE",
"30 41 LINE",
"108 17 OFFCURVE",
"234 -5 OFFCURVE",
"316 -5 CURVE SMOOTH"
);
}
);
width = 610;
}
);
leftKerningGroup = s;
rightKerningGroup = s;
unicode = 0073;
},
{
glyphname = germandbls;
layers = (
{
layerId = "F446C85F-564E-4F2C-825C-C389DAA66B11";
paths = (
{
closed = 1;
nodes = (
"449 -10 OFFCURVE",
"580 121 OFFCURVE",
"580 256 CURVE SMOOTH",
"580 359 OFFCURVE",
"503 443 OFFCURVE",
"395 460 CURVE",
"502 494 OFFCURVE",
"555 546 OFFCURVE",
"555 619 CURVE SMOOTH",
"555 710 OFFCURVE",
"472 765 OFFCURVE",
"335 765 CURVE SMOOTH",
"125 765 OFFCURVE",
"50 634 OFFCURVE",
"50 268 CURVE SMOOTH",
"50 195 OFFCURVE",
"53 112 OFFCURVE",
"60 -3 CURVE",
"114 -3 OFFCURVE",
"171 -1 OFFCURVE",
"222 3 CURVE",
"215 131 OFFCURVE",
"210 273 OFFCURVE",
"210 376 CURVE SMOOTH",
"210 606 OFFCURVE",
"235 685 OFFCURVE",
"308 685 CURVE SMOOTH",
"362 685 OFFCURVE",
"410 641 OFFCURVE",
"410 593 CURVE SMOOTH",
"410 534 OFFCURVE",
"337 489 OFFCURVE",
"185 454 CURVE",
"185 386 LINE",
"338 386 OFFCURVE",
"425 323 OFFCURVE",
"425 212 CURVE SMOOTH",
"425 130 OFFCURVE",
"377 74 OFFCURVE",
"296 60 CURVE",
"313 -10 LINE"
);
}
);
width = 610;
}
);
leftKerningGroup = sz;
rightKerningGroup = sz;
unicode = 00DF;
},
{
glyphname = t;
layers = (
{
layerId = "F446C85F-564E-4F2C-825C-C389DAA66B11";
paths = (
{
closed = 1;
nodes = (
"210 -2 OFFCURVE",
"266 -1 OFFCURVE",
"311 2 CURVE",
"313 85 OFFCURVE",
"316 491 OFFCURVE",
"316 753 CURVE",
"268 755 OFFCURVE",
"193 757 OFFCURVE",
"144 757 CURVE",
"144 479 OFFCURVE",
"147 80 OFFCURVE",
"149 -2 CURVE"
);
},
{
closed = 1;
nodes = (
"424 476 LINE",
"430 564 LINE",
"30 566 LINE",
"36 474 LINE"
);
}
);
width = 460;
}
);
leftKerningGroup = t;
rightKerningGroup = t;
unicode = 0074;
},
{
glyphname = u;
layers = (
{
anchors = (
{
name = top;
position = "{318, 680}";
}
);
layerId = "F446C85F-564E-4F2C-825C-C389DAA66B11";
paths = (
{
closed = 1;
nodes = (
"354 -5 OFFCURVE",
"453 56 OFFCURVE",
"540 172 CURVE",
"452 228 LINE",
"423 140 OFFCURVE",
"359 75 OFFCURVE",
"302 75 CURVE SMOOTH",
"234 75 OFFCURVE",
"202 168 OFFCURVE",
"202 374 CURVE SMOOTH",
"202 426 OFFCURVE",
"204 485 OFFCURVE",
"208 552 CURVE",
"121 552 OFFCURVE",
"68 551 OFFCURVE",
"36 548 CURVE",
"32 496 OFFCURVE",
"30 447 OFFCURVE",
"30 402 CURVE SMOOTH",
"30 129 OFFCURVE",
"104 -5 OFFCURVE",
"253 -5 CURVE SMOOTH"
);
},
{
closed = 1;
nodes = (
"485 -2 OFFCURVE",
"543 -1 OFFCURVE",
"595 2 CURVE",
"598 90 OFFCURVE",
"600 338 OFFCURVE",
"600 553 CURVE",
"557 555 OFFCURVE",
"482 557 OFFCURVE",
"428 557 CURVE",
"428 316 OFFCURVE",
"430 84 OFFCURVE",
"433 -2 CURVE"
);
}
);
width = 630;
}
);
leftKerningGroup = u;
rightKerningGroup = u;
unicode = 0075;
},
{
glyphname = v;
layers = (
{
layerId = "F446C85F-564E-4F2C-825C-C389DAA66B11";
paths = (
{
closed = 1;
nodes = (
"280 -9 OFFCURVE",
"338 -6 OFFCURVE",
"389 -1 CURVE",
"465 166 OFFCURVE",
"541 355 OFFCURVE",
"610 548 CURVE",
"504 562 LINE",
"467 418 OFFCURVE",
"415 261 OFFCURVE",
"355 114 CURVE",
"296 265 OFFCURVE",
"244 422 OFFCURVE",
"206 566 CURVE",
"158 563 OFFCURVE",
"90 556 OFFCURVE",
"10 544 CURVE",
"75 367 OFFCURVE",
"155 167 OFFCURVE",
"231 -9 CURVE"
);
}
);
width = 620;
}
);
leftKerningGroup = v;
rightKerningGroup = v;
unicode = 0076;
},
{
glyphname = w;
layers = (
{
layerId = "F446C85F-564E-4F2C-825C-C389DAA66B11";
paths = (
{
closed = 1;
nodes = (
"357 136 OFFCURVE",
"413 340 OFFCURVE",
"460 547 CURVE",
"364 553 LINE",
"343 437 OFFCURVE",
"314 294 OFFCURVE",
"275 124 CURVE",
"243 256 OFFCURVE",
"210 417 OFFCURVE",
"186 561 CURVE",
"147 561 OFFCURVE",
"89 557 OFFCURVE",
"10 549 CURVE",
"48 380 OFFCURVE",
"112 149 OFFCURVE",
"161 3 CURVE",
"209 -1 OFFCURVE",
"259 -3 OFFCURVE",
"309 -3 CURVE"
);
},
{
closed = 1;
nodes = (
"581 -3 OFFCURVE",
"630 -1 OFFCURVE",
"663 3 CURVE",
"710 144 OFFCURVE",
"767 351 OFFCURVE",
"814 552 CURVE",
"718 558 LINE",
"696 433 OFFCURVE",
"665 283 OFFCURVE",
"629 124 CURVE",
"597 254 OFFCURVE",
"565 410 OFFCURVE",
"540 557 CURVE",
"501 557 OFFCURVE",
"413 555 OFFCURVE",
"364 553 CURVE",
"401 385 OFFCURVE",
"464 153 OFFCURVE",
"515 -3 CURVE"
);
}
);
width = 824;
}
);
leftKerningGroup = v;
rightKerningGroup = v;
unicode = 0077;
},
{
glyphname = x;
layers = (
{
layerId = "F446C85F-564E-4F2C-825C-C389DAA66B11";
paths = (
{
closed = 1;
nodes = (
"492 -8 OFFCURVE",
"567 -2 OFFCURVE",
"620 8 CURVE",
"565 102 OFFCURVE",
"327 430 OFFCURVE",
"216 566 CURVE",
"167 565 OFFCURVE",
"67 554 OFFCURVE",
"10 544 CURVE",
"147 380 OFFCURVE",
"304 175 OFFCURVE",
"431 -8 CURVE"
);
},
{
closed = 1;
nodes = (
"257 152 OFFCURVE",
"476 421 OFFCURVE",
"590 549 CURVE",
"471 561 LINE",
"336 404 OFFCURVE",
"118 129 OFFCURVE",
"30 3 CURVE",
"140 -3 LINE"
);
}
);
width = 630;
}
);
leftKerningGroup = x;
rightKerningGroup = x;
unicode = 0078;
},
{
glyphname = y;
layers = (
{
anchors = (
{
name = top;
position = "{350, 680}";
}
);
layerId = "F446C85F-564E-4F2C-825C-C389DAA66B11";
paths = (
{
closed = 1;
nodes = (
"334 -120 OFFCURVE",
"480 67 OFFCURVE",
"610 548 CURVE",
"489 562 LINE",
"370 75 OFFCURVE",
"302 -23 OFFCURVE",
"70 -38 CURVE",
"80 -132 LINE"
);
},
{
closed = 1;
nodes = (
"394 74 LINE",
"316 262 OFFCURVE",
"245 447 OFFCURVE",
"206 566 CURVE",
"136 561 OFFCURVE",
"58 552 OFFCURVE",
"10 544 CURVE",
"68 385 OFFCURVE",
"166 162 OFFCURVE",
"251 -9 CURVE"
);
}
);
width = 620;
}
);
leftKerningGroup = v;
rightKerningGroup = v;
unicode = 0079;
},
{
glyphname = z;
layers = (
{
layerId = "F446C85F-564E-4F2C-825C-C389DAA66B11";
paths = (
{
closed = 1;
nodes = (
"574 91 LINE",
"483 82 OFFCURVE",
"351 75 OFFCURVE",
"227 74 CURVE",
"342 191 OFFCURVE",
"482 345 OFFCURVE",
"572 453 CURVE",
"551 550 LINE",
"478 556 OFFCURVE",
"261 560 OFFCURVE",
"38 560 CURVE",
"45 465 LINE",
"124 473 OFFCURVE",
"263 480 OFFCURVE",
"373 482 CURVE",
"276 356 OFFCURVE",
"122 186 OFFCURVE",
"30 103 CURVE",
"49 4 LINE",
"129 -1 OFFCURVE",
"341 -4 OFFCURVE",
"580 -4 CURVE"
);
}
);
width = 610;
}
);
leftKerningGroup = z;
rightKerningGroup = z;
unicode = 007A;
},
{
glyphname = a.full;
layers = (
{
anchors = (
{
name = top;
position = "{348.75, 689.4}";
}
);
layerId = "F446C85F-564E-4F2C-825C-C389DAA66B11";
paths = (
{
closed = 1;
nodes = (
"546.15 -13.06 OFFCURVE",
"620.7 -11 OFFCURVE",
"648 -8.94 CURVE",
"648 408.21 OFFCURVE",
"562.95 570.95 OFFCURVE",
"345.6 570.95 CURVE SMOOTH",
"253.2 570.95 OFFCURVE",
"152.4 541.08 OFFCURVE",
"49.5 483.4 CURVE",
"81 380.4 LINE",
"167.1 445.29 OFFCURVE",
"258.45 488.55 OFFCURVE",
"312 488.55 CURVE SMOOTH",
"415.95 488.55 OFFCURVE",
"467.4 322.72 OFFCURVE",
"467.4 -13.06 CURVE"
);
},
{
closed = 1;
nodes = (
"343.5 -16.15 OFFCURVE",
"435.9 20.93 OFFCURVE",
"530.4 97.15 CURVE",
"476.85 152.77 LINE",
"424.35 101.27 OFFCURVE",
"372.9 76.55 OFFCURVE",
"317.25 76.55 CURVE SMOOTH",
"259.5 76.55 OFFCURVE",
"222.75 103.33 OFFCURVE",
"222.75 145.56 CURVE SMOOTH",
"222.75 223.84 OFFCURVE",
"350.85 319.63 OFFCURVE",
"468.45 328.9 CURVE",
"443.25 401 LINE",
"213.3 377.31 OFFCURVE",
"49.5 268.13 OFFCURVE",
"49.5 138.35 CURVE SMOOTH",
"49.5 46.68 OFFCURVE",
"131.4 -16.15 OFFCURVE",
"251.1 -16.15 CURVE SMOOTH"
);
}
);
width = 698;
}
);
leftKerningGroup = a;
rightKerningGroup = a;
unicode = FF41;
},
{
glyphname = b.full;
layers = (
{
layerId = "F446C85F-564E-4F2C-825C-C389DAA66B11";
paths = (
{
closed = 1;
nodes = (
"510.45 -16.15 OFFCURVE",
"616.5 117.75 OFFCURVE",
"616.5 285.64 CURVE SMOOTH",
"616.5 449.41 OFFCURVE",
"516.75 570.95 OFFCURVE",
"383.4 570.95 CURVE SMOOTH",
"292.05 570.95 OFFCURVE",
"205.95 513.27 OFFCURVE",
"138.75 408.21 CURVE",
"213.3 367.01 LINE",
"241.65 441.17 OFFCURVE",
"287.85 486.49 OFFCURVE",
"335.1 486.49 CURVE SMOOTH",
"405.45 486.49 OFFCURVE",
"457.95 386.58 OFFCURVE",
"457.95 252.68 CURVE SMOOTH",
"457.95 135.26 OFFCURVE",
"419.1 66.25 OFFCURVE",
"352.95 66.25 CURVE SMOOTH",
"299.4 66.25 OFFCURVE",
"252.15 111.57 OFFCURVE",
"233.25 181.61 CURVE",
"133.5 105.39 LINE",
"205.95 30.2 OFFCURVE",
"299.4 -16.15 OFFCURVE",
"377.1 -16.15 CURVE SMOOTH"
);
},
{
closed = 1;
nodes = (
"247.95 98.18 OFFCURVE",
"251.1 555.5 OFFCURVE",
"251.1 764.59 CURVE",
"203.85 766.65 OFFCURVE",
"117.75 768.71 OFFCURVE",
"70.5 768.71 CURVE",
"70.5 560.65 OFFCURVE",
"73.65 109.51 OFFCURVE",
"75.75 -8.94 CURVE",
"116.7 -11 OFFCURVE",
"184.95 -13.06 OFFCURVE",
"245.85 -13.06 CURVE"
);
}
);
width = 666;
}
);
leftKerningGroup = l;
rightKerningGroup = o;
unicode = FF42;
},
{
glyphname = c.full;
layers = (
{
anchors = (
{
name = bottom;
position = "{338.25, -11}";
}
);
layerId = "F446C85F-564E-4F2C-825C-C389DAA66B11";
paths = (
{
closed = 1;
nodes = (
"448.5 -16.15 OFFCURVE",
"540.9 26.08 OFFCURVE",
"621.75 105.39 CURVE",
"557.7 167.19 LINE",
"519.9 106.42 OFFCURVE",
"459 68.31 OFFCURVE",
"401.25 68.31 CURVE SMOOTH",
"301.5 68.31 OFFCURVE",
"218.55 183.67 OFFCURVE",
"218.55 321.69 CURVE SMOOTH",
"218.55 423.66 OFFCURVE",
"265.8 488.55 OFFCURVE",
"339.3 488.55 CURVE SMOOTH",
"406.5 488.55 OFFCURVE",
"482.1 433.96 OFFCURVE",
"527.25 352.59 CURVE",
"627 459.71 LINE",
"544.05 533.87 OFFCURVE",
"456.9 570.95 OFFCURVE",
"366.6 570.95 CURVE SMOOTH",
"193.35 570.95 OFFCURVE",
"49.5 436.02 OFFCURVE",
"49.5 275.34 CURVE SMOOTH",
"49.5 117.75 OFFCURVE",
"189.15 -16.15 OFFCURVE",
"355.05 -16.15 CURVE SMOOTH"
);
}
);
width = 657;
}
);
leftKerningGroup = o;
rightKerningGroup = c;
unicode = FF43;
},
{
glyphname = d.full;
layers = (
{
layerId = "F446C85F-564E-4F2C-825C-C389DAA66B11";
paths = (
{
closed = 1;
nodes = (
"374.95 -16.15 OFFCURVE",
"461.05 41.53 OFFCURVE",
"528.25 146.59 CURVE",
"453.7 187.79 LINE",
"425.35 113.63 OFFCURVE",
"379.15 68.31 OFFCURVE",
"331.9 68.31 CURVE SMOOTH",
"261.55 68.31 OFFCURVE",
"209.05 168.22 OFFCURVE",
"209.05 302.12 CURVE SMOOTH",
"209.05 419.54 OFFCURVE",
"247.9 488.55 OFFCURVE",
"314.05 488.55 CURVE SMOOTH",
"367.6 488.55 OFFCURVE",
"414.85 443.23 OFFCURVE",
"433.75 373.19 CURVE",
"533.5 449.41 LINE",
"461.05 524.6 OFFCURVE",
"367.6 570.95 OFFCURVE",
"289.9 570.95 CURVE SMOOTH",
"156.55 570.95 OFFCURVE",
"50.5 437.05 OFFCURVE",
"50.5 269.16 CURVE SMOOTH",
"50.5 105.39 OFFCURVE",
"150.25 -16.15 OFFCURVE",
"283.6 -16.15 CURVE SMOOTH"
);
},
{
closed = 1;
nodes = (
"593.35 98.18 OFFCURVE",
"596.5 555.5 OFFCURVE",
"596.5 764.59 CURVE",
"549.25 766.65 OFFCURVE",
"463.15 768.71 OFFCURVE",
"415.9 768.71 CURVE",
"415.9 560.65 OFFCURVE",
"419.05 109.51 OFFCURVE",
"421.15 -8.94 CURVE",
"462.1 -11 OFFCURVE",
"530.35 -13.06 OFFCURVE",
"591.25 -13.06 CURVE"
);
}
);
width = 666;
}
);
leftKerningGroup = o;
rightKerningGroup = l;
unicode = FF44;
},
{
glyphname = e.full;
layers = (
{
anchors = (
{
name = top;
position = "{343.5, 689.4}";
}
);
layerId = "F446C85F-564E-4F2C-825C-C389DAA66B11";
paths = (
{
closed = 1;
nodes = (
"457.95 -16.15 OFFCURVE",
"558.75 35.35 OFFCURVE",
"627 125.99 CURVE",
"552.45 187.79 LINE",
"516.75 117.75 OFFCURVE",
"445.35 68.31 OFFCURVE",
"380.25 68.31 CURVE SMOOTH",
"283.65 68.31 OFFCURVE",
"207 178.52 OFFCURVE",
"207 319.63 CURVE SMOOTH",
"207 425.72 OFFCURVE",
"250.05 488.55 OFFCURVE",
"321.45 488.55 CURVE SMOOTH",
"389.7 488.55 OFFCURVE",
"442.2 429.84 OFFCURVE",
"451.65 342.29 CURVE",
"165 303.15 LINE",
"175.5 210.45 LINE",
"637.5 294.91 LINE",
"621.75 460.74 OFFCURVE",
"504.15 570.95 OFFCURVE",
"344.55 570.95 CURVE SMOOTH",
"175.5 570.95 OFFCURVE",
"49.5 446.32 OFFCURVE",
"49.5 278.43 CURVE SMOOTH",
"49.5 109.51 OFFCURVE",
"177.6 -16.15 OFFCURVE",
"348.75 -16.15 CURVE SMOOTH"
);
}
);
width = 687;
}
);
leftKerningGroup = o;
rightKerningGroup = e;
unicode = FF45;
},
{
glyphname = f.full;
layers = (
{
layerId = "F446C85F-564E-4F2C-825C-C389DAA66B11";
paths = (
{
closed = 1;
nodes = (
"182.85 -13.06 OFFCURVE",
"253.2 -11 OFFCURVE",
"312 -8.94 CURVE",
"308.85 68.31 OFFCURVE",
"307.8 147.62 OFFCURVE",
"307.8 236.2 CURVE SMOOTH",
"307.8 623.48 OFFCURVE",
"327.75 692.49 OFFCURVE",
"439.05 694.55 CURVE",
"443.25 782.1 LINE",
"161.85 768.71 OFFCURVE",
"128.25 684.25 OFFCURVE",
"128.25 -13.06 CURVE"
);
},
{
closed = 1;
nodes = (
"442.2 479.28 LINE",
"448.5 569.92 LINE",
"49.5 571.98 LINE",
"55.8 477.22 LINE"
);
}
);
width = 498;
}
);
leftKerningGroup = f;
rightKerningGroup = f;
unicode = FF46;
},
{
glyphname = g.full;
layers = (
{
layerId = "F446C85F-564E-4F2C-825C-C389DAA66B11";
paths = (
{
closed = 1;
nodes = (
"529.3 -144.9 OFFCURVE",
"617.5 -41.9 OFFCURVE",
"617.5 406.15 CURVE SMOOTH",
"617.5 453.53 OFFCURVE",
"616.45 504 OFFCURVE",
"614.35 562.71 CURVE",
"545.05 562.71 OFFCURVE",
"495.7 561.68 OFFCURVE",
"433.75 558.59 CURVE",
"445.3 416.45 OFFCURVE",
"449.5 333.02 OFFCURVE",
"449.5 262.98 CURVE SMOOTH",
"449.5 9.6 OFFCURVE",
"392.8 -50.14 OFFCURVE",
"140.8 -62.5 CURVE",
"143.95 -144.9 LINE"
);
},
{
closed = 1;
nodes = (
"381.25 25.05 OFFCURVE",
"475.75 85.82 OFFCURVE",
"528.25 187.79 CURVE",
"453.7 228.99 LINE",
"436.9 159.98 OFFCURVE",
"397 122.9 OFFCURVE",
"340.3 122.9 CURVE SMOOTH",
"260.5 122.9 OFFCURVE",
"209.05 197.06 OFFCURVE",
"209.05 313.45 CURVE SMOOTH",
"209.05 418.51 OFFCURVE",
"251.05 483.4 OFFCURVE",
"319.3 483.4 CURVE SMOOTH",
"377.05 483.4 OFFCURVE",
"432.7 438.08 OFFCURVE",
"454.75 373.19 CURVE",
"554.5 449.41 LINE",
"481 521.51 OFFCURVE",
"372.85 570.95 OFFCURVE",
"289.9 570.95 CURVE SMOOTH",
"156.55 570.95 OFFCURVE",
"50.5 441.17 OFFCURVE",
"50.5 278.43 CURVE SMOOTH",
"50.5 127.02 OFFCURVE",
"141.85 25.05 OFFCURVE",
"277.3 25.05 CURVE SMOOTH"
);
}
);
width = 687;
}
);
leftKerningGroup = g;
rightKerningGroup = g;
unicode = FF47;
},
{
glyphname = h.full;
layers = (
{
layerId = "F446C85F-564E-4F2C-825C-C389DAA66B11";
paths = (
{
closed = 1;
nodes = (
"563 -13.06 OFFCURVE",
"611.3 -12.03 OFFCURVE",
"647 -8.94 CURVE",
"647 387.61 OFFCURVE",
"570.35 570.95 OFFCURVE",
"405.5 570.95 CURVE SMOOTH",
"307.85 570.95 OFFCURVE",
"199.7 506.06 OFFCURVE",
"138.8 409.24 CURVE",
"231.2 351.56 LINE",
"258.5 429.84 OFFCURVE",
"312.05 488.55 OFFCURVE",
"356.15 488.55 CURVE SMOOTH",
"429.65 488.55 OFFCURVE",
"466.4 321.69 OFFCURVE",
"466.4 -13.06 CURVE"
);
},
{
closed = 1;
nodes = (
"246.95 100.24 OFFCURVE",
"250.1 551.38 OFFCURVE",
"250.1 768.71 CURVE",
"200.75 768.71 OFFCURVE",
"114.65 766.65 OFFCURVE",
"69.5 764.59 CURVE",
"69.5 548.29 OFFCURVE",
"72.65 99.21 OFFCURVE",
"74.75 -8.94 CURVE",
"118.85 -11 OFFCURVE",
"192.35 -13.06 OFFCURVE",
"244.85 -13.06 CURVE"
);
}
);
width = 697;
}
);
leftKerningGroup = l;
rightKerningGroup = m;
unicode = FF48;
},
{
glyphname = i.full;
layers = (
{
anchors = (
{
name = top;
position = "{159.8, 689.4}";
}
);
layerId = "F446C85F-564E-4F2C-825C-C389DAA66B11";
paths = (
{
closed = 1;
nodes = (
"249.05 632.75 LINE",
"249.05 771.8 LINE",
"70.55 771.8 LINE",
"70.55 632.75 LINE"
);
},
{
closed = 1;
nodes = (
"119.9 -13.06 OFFCURVE",
"180.8 -12.03 OFFCURVE",
"244.85 -8.94 CURVE",
"248 89.94 OFFCURVE",
"250.1 347.44 OFFCURVE",
"250.1 548.29 CURVE",
"210.2 550.35 OFFCURVE",
"132.5 552.41 OFFCURVE",
"69.5 552.41 CURVE",
"69.5 310.36 OFFCURVE",
"71.6 77.58 OFFCURVE",
"74.75 -13.06 CURVE"
);
}
);
width = 320;
}
);
leftKerningGroup = i;
rightKerningGroup = i;
unicode = FF49;
},
{
glyphname = j.full;
layers = (
{
layerId = "F446C85F-564E-4F2C-825C-C389DAA66B11";
paths = (
{
closed = 1;
nodes = (
"262.6 -108.85 OFFCURVE",
"339.25 42.56 OFFCURVE",
"339.25 362.89 CURVE SMOOTH",
"339.25 415.42 OFFCURVE",
"337.15 479.28 OFFCURVE",
"332.95 552.41 CURVE",
"263.65 552.41 OFFCURVE",
"203.8 551.38 OFFCURVE",
"152.35 548.29 CURVE",
"159.7 445.29 OFFCURVE",
"162.85 362.89 OFFCURVE",
"162.85 305.21 CURVE SMOOTH",
"162.85 96.12 OFFCURVE",
"121.9 -13.06 OFFCURVE",
"29.5 -52.2 CURVE",
"82 -144.9 LINE"
);
},
{
closed = 1;
nodes = (
"329.8 632.75 LINE",
"329.8 771.8 LINE",
"151.3 771.8 LINE",
"151.3 632.75 LINE"
);
}
);
width = 409;
}
);
leftKerningGroup = j;
rightKerningGroup = j;
unicode = FF4A;
},
{
glyphname = k.full;
layers = (
{
layerId = "F446C85F-564E-4F2C-825C-C389DAA66B11";
paths = (
{
closed = 1;
nodes = (
"384.45 335.08 OFFCURVE",
"539.85 452.5 OFFCURVE",
"634.35 540.05 CURVE",
"540.9 601.85 LINE",
"470.55 526.66 OFFCURVE",
"325.65 399.97 OFFCURVE",
"196.5 302.12 CURVE",
"233.25 236.2 LINE"
);
},
{
closed = 1;
nodes = (
"159.75 -13.06 OFFCURVE",
"209.1 -12.03 OFFCURVE",
"245.85 -8.94 CURVE",
"247.95 123.93 OFFCURVE",
"251.1 583.31 OFFCURVE",
"251.1 764.59 CURVE",
"203.85 766.65 OFFCURVE",
"132.45 768.71 OFFCURVE",
"70.5 768.71 CURVE",
"70.5 593.61 OFFCURVE",
"73.65 129.08 OFFCURVE",
"75.75 -13.06 CURVE"
);
},
{
closed = 1;
nodes = (
"669 -0.7 LINE",
"612.3 122.9 OFFCURVE",
"515.7 311.39 OFFCURVE",
"460.05 407.18 CURVE",
"310.95 352.59 LINE",
"360.3 255.77 OFFCURVE",
"418.05 117.75 OFFCURVE",
"467.4 -21.3 CURVE"
);
}
);
width = 699;
}
);
leftKerningGroup = l;
rightKerningGroup = k;
unicode = FF4B;
},
{
glyphname = l.full;
layers = (
{
layerId = "F446C85F-564E-4F2C-825C-C389DAA66B11";
paths = (
{
closed = 1;
nodes = (
"169.25 768.71 OFFCURVE",
"115.7 767.68 OFFCURVE",
"74.75 764.59 CURVE",
"71.6 659.53 OFFCURVE",
"69.5 573.01 OFFCURVE",
"69.5 494.73 CURVE SMOOTH",
"69.5 117.75 OFFCURVE",
"118.85 -14.09 OFFCURVE",
"269 -31.6 CURVE",
"342.5 50.8 LINE",
"273.2 85.82 OFFCURVE",
"245.9 221.78 OFFCURVE",
"245.9 548.29 CURVE SMOOTH",
"245.9 612.15 OFFCURVE",
"246.95 690.43 OFFCURVE",
"250.1 768.71 CURVE"
);
}
);
width = 372;
}
);
leftKerningGroup = l;
rightKerningGroup = l;
unicode = FF4C;
},
{
glyphname = m.full;
layers = (
{
layerId = "F446C85F-564E-4F2C-825C-C389DAA66B11";
paths = (
{
closed = 1;
nodes = (
"807.6 -15.12 OFFCURVE",
"877.95 -12.03 OFFCURVE",
"917.85 -6.88 CURVE",
"919.95 34.32 OFFCURVE",
"921 67.28 OFFCURVE",
"921 104.36 CURVE SMOOTH",
"921 421.6 OFFCURVE",
"850.65 570.95 OFFCURVE",
"700.5 570.95 CURVE SMOOTH",
"607.05 570.95 OFFCURVE",
"517.8 513.27 OFFCURVE",
"452.7 409.24 CURVE",
"545.1 351.56 LINE",
"567.15 425.72 OFFCURVE",
"622.8 488.55 OFFCURVE",
"664.8 488.55 CURVE SMOOTH",
"718.35 488.55 OFFCURVE",
"743.55 388.64 OFFCURVE",
"743.55 175.43 CURVE SMOOTH",
"743.55 110.54 OFFCURVE",
"741.45 42.56 OFFCURVE",
"737.25 -15.12 CURVE"
);
},
{
closed = 1;
nodes = (
"219.6 249.59 OFFCURVE",
"217.5 481.34 OFFCURVE",
"214.35 558.59 CURVE",
"166.05 560.65 OFFCURVE",
"98.85 562.71 OFFCURVE",
"54.75 562.71 CURVE",
"51.6 477.22 OFFCURVE",
"49.5 248.56 OFFCURVE",
"49.5 -8.94 CURVE",
"84.15 -11 OFFCURVE",
"172.35 -13.06 OFFCURVE",
"219.6 -13.06 CURVE"
);
},
{
closed = 1;
nodes = (
"440.1 -13.06 OFFCURVE",
"525.15 -11 OFFCURVE",
"567.15 -8.94 CURVE",
"569.25 34.32 OFFCURVE",
"570.3 76.55 OFFCURVE",
"570.3 123.93 CURVE SMOOTH",
"570.3 452.5 OFFCURVE",
"522 570.95 OFFCURVE",
"388.65 570.95 CURVE SMOOTH",
"299.4 570.95 OFFCURVE",
"212.25 515.33 OFFCURVE",
"116.7 398.94 CURVE",
"209.1 351.56 LINE",
"235.35 427.78 OFFCURVE",
"289.95 488.55 OFFCURVE",
"331.95 488.55 CURVE SMOOTH",
"377.1 488.55 OFFCURVE",
"392.85 419.54 OFFCURVE",
"392.85 223.84 CURVE SMOOTH",
"392.85 147.62 OFFCURVE",
"390.75 60.07 OFFCURVE",
"386.55 -13.06 CURVE"
);
}
);
width = 971;
}
);
leftKerningGroup = m;
rightKerningGroup = m;
unicode = FF4D;
},
{
glyphname = n.full;
layers = (
{
anchors = (
{
name = top;
position = "{348.75, 689.4}";
}
);
layerId = "F446C85F-564E-4F2C-825C-C389DAA66B11";
paths = (
{
closed = 1;
nodes = (
"649.05 405.12 OFFCURVE",
"581.85 570.95 OFFCURVE",
"411.75 570.95 CURVE SMOOTH",
"307.8 570.95 OFFCURVE",
"203.85 508.12 OFFCURVE",
"112.5 388.64 CURVE",
"204.9 330.96 LINE",
"235.35 421.6 OFFCURVE",
"300.45 488.55 OFFCURVE",
"358.2 488.55 CURVE SMOOTH",
"439.05 488.55 OFFCURVE",
"468.45 355.68 OFFCURVE",
"468.45 -8.94 CURVE",
"515.7 -11 OFFCURVE",
"599.7 -13.06 OFFCURVE",
"649.05 -13.06 CURVE"
);
},
{
closed = 1;
nodes = (
"113.55 -13.06 OFFCURVE",
"180.75 -11 OFFCURVE",
"224.85 -8.94 CURVE",
"228 76.55 OFFCURVE",
"230.1 322.72 OFFCURVE",
"230.1 558.59 CURVE",
"184.95 560.65 OFFCURVE",
"95.7 562.71 OFFCURVE",
"49.5 562.71 CURVE",
"49.5 310.36 OFFCURVE",
"51.6 74.49 OFFCURVE",
"54.75 -13.06 CURVE"
);
}
);
width = 698;
}
);
leftKerningGroup = m;
rightKerningGroup = m;
unicode = FF4E;
},
{
glyphname = o.full;
layers = (
{
anchors = (
{
name = top;
position = "{354, 689.4}";
}
);
layerId = "F446C85F-564E-4F2C-825C-C389DAA66B11";
paths = (
{
closed = 1;
nodes = (
"517.8 -16.15 OFFCURVE",
"658.5 118.78 OFFCURVE",
"658.5 285.64 CURVE SMOOTH",
"658.5 445.29 OFFCURVE",
"528.3 570.95 OFFCURVE",
"362.4 570.95 CURVE SMOOTH",
"190.2 570.95 OFFCURVE",
"49.5 436.02 OFFCURVE",
"49.5 269.16 CURVE SMOOTH",
"49.5 109.51 OFFCURVE",
"179.7 -16.15 OFFCURVE",
"345.6 -16.15 CURVE SMOOTH"
);
},
{
closed = 1;
nodes = (
"282.6 67.28 OFFCURVE",
"213.3 171.31 OFFCURVE",
"213.3 310.36 CURVE SMOOTH",
"213.3 421.6 OFFCURVE",
"257.4 487.52 OFFCURVE",
"331.95 487.52 CURVE SMOOTH",
"425.4 487.52 OFFCURVE",
"494.7 383.49 OFFCURVE",
"494.7 244.44 CURVE SMOOTH",
"494.7 133.2 OFFCURVE",
"450.6 67.28 OFFCURVE",
"376.05 67.28 CURVE SMOOTH"
);
}
);
width = 708;
}
);
leftKerningGroup = o;
rightKerningGroup = o;
unicode = FF4F;
},
{
glyphname = p.full;
layers = (
{
layerId = "F446C85F-564E-4F2C-825C-C389DAA66B11";
paths = (
{
closed = 1;
nodes = (
"510.45 -16.15 OFFCURVE",
"616.5 117.75 OFFCURVE",
"616.5 285.64 CURVE SMOOTH",
"616.5 449.41 OFFCURVE",
"516.75 570.95 OFFCURVE",
"383.4 570.95 CURVE SMOOTH",
"292.05 570.95 OFFCURVE",
"205.95 513.27 OFFCURVE",
"138.75 408.21 CURVE",
"213.3 367.01 LINE",
"241.65 441.17 OFFCURVE",
"287.85 486.49 OFFCURVE",
"335.1 486.49 CURVE SMOOTH",
"405.45 486.49 OFFCURVE",
"457.95 386.58 OFFCURVE",
"457.95 252.68 CURVE SMOOTH",
"457.95 135.26 OFFCURVE",
"419.1 66.25 OFFCURVE",
"352.95 66.25 CURVE SMOOTH",
"299.4 66.25 OFFCURVE",
"252.15 111.57 OFFCURVE",
"233.25 181.61 CURVE",
"133.5 105.39 LINE",
"205.95 30.2 OFFCURVE",
"299.4 -16.15 OFFCURVE",
"377.1 -16.15 CURVE SMOOTH"
);
},
{
closed = 1;
nodes = (
"247.95 -18.21 OFFCURVE",
"251.1 345.38 OFFCURVE",
"251.1 562.71 CURVE",
"201.75 562.71 OFFCURVE",
"115.65 560.65 OFFCURVE",
"70.5 558.59 CURVE",
"70.5 342.29 OFFCURVE",
"73.65 -19.24 OFFCURVE",
"75.75 -127.39 CURVE",
"119.85 -129.45 OFFCURVE",
"193.35 -131.51 OFFCURVE",
"245.85 -131.51 CURVE"
);
}
);
width = 666;
}
);
leftKerningGroup = p;
rightKerningGroup = o;
unicode = FF50;
},
{
glyphname = q.full;
layers = (
{
layerId = "F446C85F-564E-4F2C-825C-C389DAA66B11";
paths = (
{
closed = 1;
nodes = (
"373.95 -16.15 OFFCURVE",
"460.05 41.53 OFFCURVE",
"527.25 146.59 CURVE",
"452.7 187.79 LINE",
"424.35 113.63 OFFCURVE",
"378.15 68.31 OFFCURVE",
"330.9 68.31 CURVE SMOOTH",
"260.55 68.31 OFFCURVE",
"208.05 168.22 OFFCURVE",
"208.05 302.12 CURVE SMOOTH",
"208.05 419.54 OFFCURVE",
"246.9 488.55 OFFCURVE",
"313.05 488.55 CURVE SMOOTH",
"366.6 488.55 OFFCURVE",
"413.85 443.23 OFFCURVE",
"432.75 373.19 CURVE",
"532.5 449.41 LINE",
"460.05 524.6 OFFCURVE",
"366.6 570.95 OFFCURVE",
"288.9 570.95 CURVE SMOOTH",
"155.55 570.95 OFFCURVE",
"49.5 437.05 OFFCURVE",
"49.5 269.16 CURVE SMOOTH",
"49.5 105.39 OFFCURVE",
"149.25 -16.15 OFFCURVE",
"282.6 -16.15 CURVE SMOOTH"
);
},
{
closed = 1;
nodes = (
"462.15 -131.51 OFFCURVE",
"548.25 -129.45 OFFCURVE",
"595.5 -127.39 CURVE",
"595.5 64.19 OFFCURVE",
"592.35 433.96 OFFCURVE",
"590.25 558.59 CURVE",
"539.85 560.65 OFFCURVE",
"467.4 562.71 OFFCURVE",
"420.15 562.71 CURVE",
"418.05 430.87 OFFCURVE",
"414.9 59.04 OFFCURVE",
"414.9 -131.51 CURVE"
);
}
);
width = 665;
}
);
leftKerningGroup = o;
rightKerningGroup = q;
unicode = FF51;
},
{
glyphname = r.full;
layers = (
{
layerId = "F446C85F-564E-4F2C-825C-C389DAA66B11";
paths = (
{
closed = 1;
nodes = (
"487.35 324.78 OFFCURVE",
"545.1 339.2 OFFCURVE",
"600.75 356.71 CURVE",
"592.35 478.25 OFFCURVE",
"505.2 570.95 OFFCURVE",
"399.15 570.95 CURVE SMOOTH",
"305.7 570.95 OFFCURVE",
"197.55 497.82 OFFCURVE",
"129.3 388.64 CURVE",
"221.7 351.56 LINE",
"247.95 425.72 OFFCURVE",
"306.75 488.55 OFFCURVE",
"348.75 488.55 CURVE SMOOTH",
"396 488.55 OFFCURVE",
"436.95 409.24 OFFCURVE",
"436.95 316.54 CURVE"
);
},
{
closed = 1;
nodes = (
"228 73.46 OFFCURVE",
"230.1 307.27 OFFCURVE",
"230.1 562.71 CURVE",
"184.95 562.71 OFFCURVE",
"95.7 560.65 OFFCURVE",
"49.5 558.59 CURVE",
"49.5 313.45 OFFCURVE",
"51.6 73.46 OFFCURVE",
"54.75 -8.94 CURVE",
"108.3 -11 OFFCURVE",
"175.5 -13.06 OFFCURVE",
"224.85 -13.06 CURVE"
);
}
);
width = 651;
}
);
leftKerningGroup = m;
rightKerningGroup = r;
unicode = FF52;
},
{
color = 3;
glyphname = a.rotat;
layers = (
{
anchors = (
{
name = top;
position = "{800, 565}";
}
);
layerId = "F446C85F-564E-4F2C-825C-C389DAA66B11";
paths = (
{
closed = 1;
nodes = (
"118 377 OFFCURVE",
"120 306 OFFCURVE",
"122 280 CURVE",
"527 280 OFFCURVE",
"685 361 OFFCURVE",
"685 568 CURVE SMOOTH",
"685 656 OFFCURVE",
"656 752 OFFCURVE",
"600 850 CURVE",
"500 820 LINE",
"563 738 OFFCURVE",
"605 651 OFFCURVE",
"605 600 CURVE SMOOTH",
"605 501 OFFCURVE",
"444 452 OFFCURVE",
"118 452 CURVE"
);
},
{
closed = 1;
nodes = (
"115 570 OFFCURVE",
"151 482 OFFCURVE",
"225 392 CURVE",
"279 443 LINE",
"229 493 OFFCURVE",
"205 542 OFFCURVE",
"205 595 CURVE SMOOTH",
"205 650 OFFCURVE",
"231 685 OFFCURVE",
"272 685 CURVE SMOOTH",
"348 685 OFFCURVE",
"441 563 OFFCURVE",
"450 451 CURVE",
"520 475 LINE",
"497 694 OFFCURVE",
"391 850 OFFCURVE",
"265 850 CURVE SMOOTH",
"176 850 OFFCURVE",
"115 772 OFFCURVE",
"115 658 CURVE SMOOTH"
);
}
);
vertWidth = 630;
width = 1000;
}
);
},
{
color = 3;
glyphname = aacute.rotat;
layers = (
{
anchors = (
{
name = top;
position = "{800, 565}";
}
);
layerId = "F446C85F-564E-4F2C-825C-C389DAA66B11";
paths = (
{
closed = 1;
nodes = (
"118 377 OFFCURVE",
"120 306 OFFCURVE",
"122 280 CURVE",
"527 280 OFFCURVE",
"685 361 OFFCURVE",
"685 568 CURVE SMOOTH",
"685 656 OFFCURVE",
"656 752 OFFCURVE",
"600 850 CURVE",
"500 820 LINE",
"563 738 OFFCURVE",
"605 651 OFFCURVE",
"605 600 CURVE SMOOTH",
"605 501 OFFCURVE",
"444 452 OFFCURVE",
"118 452 CURVE"
);
},
{
closed = 1;
nodes = (
"115 570 OFFCURVE",
"151 482 OFFCURVE",
"225 392 CURVE",
"279 443 LINE",
"229 493 OFFCURVE",
"205 542 OFFCURVE",
"205 595 CURVE SMOOTH",
"205 650 OFFCURVE",
"231 685 OFFCURVE",
"272 685 CURVE SMOOTH",
"348 685 OFFCURVE",
"441 563 OFFCURVE",
"450 451 CURVE",
"520 475 LINE",
"497 694 OFFCURVE",
"391 850 OFFCURVE",
"265 850 CURVE SMOOTH",
"176 850 OFFCURVE",
"115 772 OFFCURVE",
"115 658 CURVE SMOOTH"
);
},
{
closed = 1;
nodes = (
"807 415 LINE",
"903 477 LINE",
"757 715 LINE",
"717 699 LINE"
);
}
);
vertWidth = 630;
width = 1000;
}
);
},
{
color = 3;
glyphname = acircumflex.rotat;
layers = (
{
anchors = (
{
name = top;
position = "{800, 565}";
}
);
layerId = "F446C85F-564E-4F2C-825C-C389DAA66B11";
paths = (
{
closed = 1;
nodes = (
"118 377 OFFCURVE",
"120 306 OFFCURVE",
"122 280 CURVE",
"527 280 OFFCURVE",
"685 361 OFFCURVE",
"685 568 CURVE SMOOTH",
"685 656 OFFCURVE",
"656 752 OFFCURVE",
"600 850 CURVE",
"500 820 LINE",
"563 738 OFFCURVE",
"605 651 OFFCURVE",
"605 600 CURVE SMOOTH",
"605 501 OFFCURVE",
"444 452 OFFCURVE",
"118 452 CURVE"
);
},
{
closed = 1;
nodes = (
"115 570 OFFCURVE",
"151 482 OFFCURVE",
"225 392 CURVE",
"279 443 LINE",
"229 493 OFFCURVE",
"205 542 OFFCURVE",
"205 595 CURVE SMOOTH",
"205 650 OFFCURVE",
"231 685 OFFCURVE",
"272 685 CURVE SMOOTH",
"348 685 OFFCURVE",
"441 563 OFFCURVE",
"450 451 CURVE",
"520 475 LINE",
"497 694 OFFCURVE",
"391 850 OFFCURVE",
"265 850 CURVE SMOOTH",
"176 850 OFFCURVE",
"115 772 OFFCURVE",
"115 658 CURVE SMOOTH"
);
},
{
closed = 1;
nodes = (
"802 565 LINE",
"709 408 LINE",
"739 374 LINE",
"917 565 LINE",
"739 756 LINE",
"709 722 LINE"
);
}
);
vertWidth = 630;
width = 1000;
}
);
},
{
color = 3;
glyphname = adieresis.rotat;
layers = (
{
anchors = (
{
name = top;
position = "{800, 565}";
}
);
layerId = "F446C85F-564E-4F2C-825C-C389DAA66B11";
paths = (
{
closed = 1;
nodes = (
"118 377 OFFCURVE",
"120 306 OFFCURVE",
"122 280 CURVE",
"527 280 OFFCURVE",
"685 361 OFFCURVE",
"685 568 CURVE SMOOTH",
"685 656 OFFCURVE",
"656 752 OFFCURVE",
"600 850 CURVE",
"500 820 LINE",
"563 738 OFFCURVE",
"605 651 OFFCURVE",
"605 600 CURVE SMOOTH",
"605 501 OFFCURVE",
"444 452 OFFCURVE",
"118 452 CURVE"
);
},
{
closed = 1;
nodes = (
"115 570 OFFCURVE",
"151 482 OFFCURVE",
"225 392 CURVE",
"279 443 LINE",
"229 493 OFFCURVE",
"205 542 OFFCURVE",
"205 595 CURVE SMOOTH",
"205 650 OFFCURVE",
"231 685 OFFCURVE",
"272 685 CURVE SMOOTH",
"348 685 OFFCURVE",
"441 563 OFFCURVE",
"450 451 CURVE",
"520 475 LINE",
"497 694 OFFCURVE",
"391 850 OFFCURVE",
"265 850 CURVE SMOOTH",
"176 850 OFFCURVE",
"115 772 OFFCURVE",
"115 658 CURVE SMOOTH"
);
},
{
closed = 1;
nodes = (
"733 400 LINE",
"877 400 LINE",
"877 520 LINE",
"733 520 LINE"
);
},
{
closed = 1;
nodes = (
"733 610 LINE",
"877 610 LINE",
"877 730 LINE",
"733 730 LINE"
);
}
);
vertWidth = 630;
width = 1000;
}
);
},
{
color = 3;
glyphname = agrave.rotat;
layers = (
{
anchors = (
{
name = top;
position = "{800, 565}";
}
);
layerId = "F446C85F-564E-4F2C-825C-C389DAA66B11";
paths = (
{
closed = 1;
nodes = (
"118 377 OFFCURVE",
"120 306 OFFCURVE",
"122 280 CURVE",
"527 280 OFFCURVE",
"685 361 OFFCURVE",
"685 568 CURVE SMOOTH",
"685 656 OFFCURVE",
"656 752 OFFCURVE",
"600 850 CURVE",
"500 820 LINE",
"563 738 OFFCURVE",
"605 651 OFFCURVE",
"605 600 CURVE SMOOTH",
"605 501 OFFCURVE",
"444 452 OFFCURVE",
"118 452 CURVE"
);
},
{
closed = 1;
nodes = (
"115 570 OFFCURVE",
"151 482 OFFCURVE",
"225 392 CURVE",
"279 443 LINE",
"229 493 OFFCURVE",
"205 542 OFFCURVE",
"205 595 CURVE SMOOTH",
"205 650 OFFCURVE",
"231 685 OFFCURVE",
"272 685 CURVE SMOOTH",
"348 685 OFFCURVE",
"441 563 OFFCURVE",
"450 451 CURVE",
"520 475 LINE",
"497 694 OFFCURVE",
"391 850 OFFCURVE",
"265 850 CURVE SMOOTH",
"176 850 OFFCURVE",
"115 772 OFFCURVE",
"115 658 CURVE SMOOTH"
);
},
{
closed = 1;
nodes = (
"757 415 LINE",
"903 653 LINE",
"807 715 LINE",
"717 431 LINE"
);
}
);
vertWidth = 630;
width = 1000;
}
);
},
{
color = 3;
glyphname = aring.rotat;
layers = (
{
anchors = (
{
name = top;
position = "{800, 565}";
}
);
layerId = "F446C85F-564E-4F2C-825C-C389DAA66B11";
paths = (
{
closed = 1;
nodes = (
"118 377 OFFCURVE",
"120 306 OFFCURVE",
"122 280 CURVE",
"527 280 OFFCURVE",
"685 361 OFFCURVE",
"685 568 CURVE SMOOTH",
"685 656 OFFCURVE",
"656 752 OFFCURVE",
"600 850 CURVE",
"500 820 LINE",
"563 738 OFFCURVE",
"605 651 OFFCURVE",
"605 600 CURVE SMOOTH",
"605 501 OFFCURVE",
"444 452 OFFCURVE",
"118 452 CURVE"
);
},
{
closed = 1;
nodes = (
"115 570 OFFCURVE",
"151 482 OFFCURVE",
"225 392 CURVE",
"279 443 LINE",
"229 493 OFFCURVE",
"205 542 OFFCURVE",
"205 595 CURVE SMOOTH",
"205 650 OFFCURVE",
"231 685 OFFCURVE",
"272 685 CURVE SMOOTH",
"348 685 OFFCURVE",
"441 563 OFFCURVE",
"450 451 CURVE",
"520 475 LINE",
"497 694 OFFCURVE",
"391 850 OFFCURVE",
"265 850 CURVE SMOOTH",
"176 850 OFFCURVE",
"115 772 OFFCURVE",
"115 658 CURVE SMOOTH"
);
},
{
closed = 1;
nodes = (
"668 493 OFFCURVE",
"712 447 OFFCURVE",
"778 447 CURVE SMOOTH",
"846 447 OFFCURVE",
"892 495 OFFCURVE",
"892 567 CURVE SMOOTH",
"892 637 OFFCURVE",
"848 683 OFFCURVE",
"782 683 CURVE SMOOTH",
"714 683 OFFCURVE",
"668 635 OFFCURVE",
"668 563 CURVE SMOOTH"
);
},
{
closed = 1;
nodes = (
"706 581 OFFCURVE",
"742 597 OFFCURVE",
"792 597 CURVE SMOOTH",
"832 597 OFFCURVE",
"854 588 OFFCURVE",
"854 571 CURVE SMOOTH",
"854 549 OFFCURVE",
"818 533 OFFCURVE",
"768 533 CURVE SMOOTH",
"728 533 OFFCURVE",
"706 542 OFFCURVE",
"706 559 CURVE SMOOTH"
);
}
);
vertWidth = 630;
width = 1000;
}
);
},
{
color = 3;
glyphname = atilde.rotat;
layers = (
{
anchors = (
{
name = top;
position = "{800, 565}";
}
);
layerId = "F446C85F-564E-4F2C-825C-C389DAA66B11";
paths = (
{
closed = 1;
nodes = (
"118 377 OFFCURVE",
"120 306 OFFCURVE",
"122 280 CURVE",
"527 280 OFFCURVE",
"685 361 OFFCURVE",
"685 568 CURVE SMOOTH",
"685 656 OFFCURVE",
"656 752 OFFCURVE",
"600 850 CURVE",
"500 820 LINE",
"563 738 OFFCURVE",
"605 651 OFFCURVE",
"605 600 CURVE SMOOTH",
"605 501 OFFCURVE",
"444 452 OFFCURVE",
"118 452 CURVE"
);
},
{
closed = 1;
nodes = (
"115 570 OFFCURVE",
"151 482 OFFCURVE",
"225 392 CURVE",
"279 443 LINE",
"229 493 OFFCURVE",
"205 542 OFFCURVE",
"205 595 CURVE SMOOTH",
"205 650 OFFCURVE",
"231 685 OFFCURVE",
"272 685 CURVE SMOOTH",
"348 685 OFFCURVE",
"441 563 OFFCURVE",
"450 451 CURVE",
"520 475 LINE",
"497 694 OFFCURVE",
"391 850 OFFCURVE",
"265 850 CURVE SMOOTH",
"176 850 OFFCURVE",
"115 772 OFFCURVE",
"115 658 CURVE SMOOTH"
);
},
{
closed = 1;
nodes = (
"727.2 460.7 OFFCURVE",
"752.8 425.85 OFFCURVE",
"806.4 391 CURVE",
"849.6 416.5 LINE",
"816.8 447.1 OFFCURVE",
"808 459.85 OFFCURVE",
"808 476.85 CURVE SMOOTH",
"808 497.25 OFFCURVE",
"821.6 521.9 OFFCURVE",
"847.2 547.4 CURVE SMOOTH",
"876 576.3 OFFCURVE",
"888.8 602.65 OFFCURVE",
"888.8 630.7 CURVE SMOOTH",
"888.8 669.8 OFFCURVE",
"863.2 704.65 OFFCURVE",
"809.6 739.5 CURVE",
"766.4 714 LINE",
"799.2 683.4 OFFCURVE",
"808 670.65 OFFCURVE",
"808 653.65 CURVE SMOOTH",
"808 633.25 OFFCURVE",
"794.4 608.6 OFFCURVE",
"768.8 583.1 CURVE SMOOTH",
"740 554.2 OFFCURVE",
"727.2 527.85 OFFCURVE",
"727.2 499.8 CURVE SMOOTH"
);
}
);
vertWidth = 630;
width = 1000;
}
);
},
{
color = 3;
glyphname = ae.rotat;
layers = (
{
layerId = "F446C85F-564E-4F2C-825C-C389DAA66B11";
paths = (
{
closed = 1;
nodes = (
"115 107 OFFCURVE",
"162 18 OFFCURVE",
"253 -50 CURVE",
"313 22 LINE",
"240 60 OFFCURVE",
"197 117 OFFCURVE",
"197 177 CURVE SMOOTH",
"197 265 OFFCURVE",
"291 330 OFFCURVE",
"417 330 CURVE SMOOTH",
"524 330 OFFCURVE",
"605 283 OFFCURVE",
"605 221 CURVE SMOOTH",
"605 166 OFFCURVE",
"541 117 OFFCURVE",
"463 113 CURVE",
"425 371 LINE",
"335 361 LINE",
"417 -50 LINE",
"576 -50 OFFCURVE",
"685 48 OFFCURVE",
"685 192 CURVE SMOOTH",
"685 352 OFFCURVE",
"550 481 OFFCURVE",
"381 481 CURVE SMOOTH",
"225 481 OFFCURVE",
"115 369 OFFCURVE",
"115 211 CURVE SMOOTH"
);
},
{
closed = 1;
nodes = (
"115 568 OFFCURVE",
"156 467 OFFCURVE",
"225 392 CURVE",
"319 453 LINE",
"240 509 OFFCURVE",
"200 564 OFFCURVE",
"200 615 CURVE SMOOTH",
"200 663 OFFCURVE",
"236 700 OFFCURVE",
"284 700 CURVE SMOOTH",
"362 700 OFFCURVE",
"441 601 OFFCURVE",
"450 491 CURVE",
"520 515 LINE",
"499 714 OFFCURVE",
"397 850 OFFCURVE",
"268 850 CURVE SMOOTH",
"174 850 OFFCURVE",
"115 778 OFFCURVE",
"115 663 CURVE SMOOTH"
);
},
{
closed = 1;
nodes = (
"240 320 LINE",
"535 320 OFFCURVE",
"685 417 OFFCURVE",
"685 608 CURVE SMOOTH",
"685 685 OFFCURVE",
"661 753 OFFCURVE",
"600 850 CURVE",
"500 800 LINE",
"564 747 OFFCURVE",
"605 681 OFFCURVE",
"605 630 CURVE SMOOTH",
"605 537 OFFCURVE",
"467 480 OFFCURVE",
"240 480 CURVE"
);
}
);
vertWidth = 960;
width = 1000;
}
);
},
{
color = 3;
glyphname = b.rotat;
layers = (
{
layerId = "F446C85F-564E-4F2C-825C-C389DAA66B11";
paths = (
{
closed = 1;
nodes = (
"115 411 OFFCURVE",
"245 310 OFFCURVE",
"408 310 CURVE SMOOTH",
"567 310 OFFCURVE",
"685 405 OFFCURVE",
"685 532 CURVE SMOOTH",
"685 619 OFFCURVE",
"629 701 OFFCURVE",
"527 765 CURVE",
"487 694 LINE",
"559 667 OFFCURVE",
"603 623 OFFCURVE",
"603 578 CURVE SMOOTH",
"603 511 OFFCURVE",
"506 461 OFFCURVE",
"376 461 CURVE SMOOTH",
"262 461 OFFCURVE",
"195 498 OFFCURVE",
"195 561 CURVE SMOOTH",
"195 612 OFFCURVE",
"239 657 OFFCURVE",
"307 675 CURVE",
"233 770 LINE",
"160 701 OFFCURVE",
"115 612 OFFCURVE",
"115 538 CURVE SMOOTH"
);
},
{
closed = 1;
nodes = (
"226 661 OFFCURVE",
"670 658 OFFCURVE",
"873 658 CURVE",
"875 703 OFFCURVE",
"877 785 OFFCURVE",
"877 830 CURVE",
"675 830 OFFCURVE",
"237 827 OFFCURVE",
"122 825 CURVE",
"120 786 OFFCURVE",
"118 721 OFFCURVE",
"118 663 CURVE"
);
}
);
vertWidth = 600;
width = 1000;
}
);
},
{
color = 3;
glyphname = c.rotat;
layers = (
{
anchors = (
{
name = bottom;
position = "{120, 575}";
}
);
layerId = "F446C85F-564E-4F2C-825C-C389DAA66B11";
paths = (
{
closed = 1;
nodes = (
"115 470 OFFCURVE",
"156 382 OFFCURVE",
"233 305 CURVE",
"293 366 LINE",
"234 402 OFFCURVE",
"197 460 OFFCURVE",
"197 515 CURVE SMOOTH",
"197 610 OFFCURVE",
"309 689 OFFCURVE",
"443 689 CURVE SMOOTH",
"542 689 OFFCURVE",
"605 644 OFFCURVE",
"605 574 CURVE SMOOTH",
"605 510 OFFCURVE",
"552 438 OFFCURVE",
"473 395 CURVE",
"577 300 LINE",
"649 379 OFFCURVE",
"685 462 OFFCURVE",
"685 548 CURVE SMOOTH",
"685 713 OFFCURVE",
"554 850 OFFCURVE",
"398 850 CURVE SMOOTH",
"245 850 OFFCURVE",
"115 717 OFFCURVE",
"115 559 CURVE SMOOTH"
);
}
);
vertWidth = 590;
width = 1000;
}
);
},
{
color = 3;
glyphname = ccedilla.rotat;
layers = (
{
anchors = (
{
name = bottom;
position = "{120, 575}";
}
);
layerId = "F446C85F-564E-4F2C-825C-C389DAA66B11";
paths = (
{
closed = 1;
nodes = (
"115 470 OFFCURVE",
"156 382 OFFCURVE",
"233 305 CURVE",
"293 366 LINE",
"234 402 OFFCURVE",
"197 460 OFFCURVE",
"197 515 CURVE SMOOTH",
"197 610 OFFCURVE",
"309 689 OFFCURVE",
"443 689 CURVE SMOOTH",
"542 689 OFFCURVE",
"605 644 OFFCURVE",
"605 574 CURVE SMOOTH",
"605 510 OFFCURVE",
"552 438 OFFCURVE",
"473 395 CURVE",
"577 300 LINE",
"649 379 OFFCURVE",
"685 462 OFFCURVE",
"685 548 CURVE SMOOTH",
"685 713 OFFCURVE",
"554 850 OFFCURVE",
"398 850 CURVE SMOOTH",
"245 850 OFFCURVE",
"115 717 OFFCURVE",
"115 559 CURVE SMOOTH"
);
},
{
closed = 1;
nodes = (
"-86 518 OFFCURVE",
"-45 463 OFFCURVE",
"2 463 CURVE SMOOTH",
"39 463 OFFCURVE",
"76 497 OFFCURVE",
"101 553 CURVE",
"147 526 LINE",
"167 566 LINE",
"130 605 OFFCURVE",
"83 647 OFFCURVE",
"55 665 CURVE",
"43 605 OFFCURVE",
"15 558 OFFCURVE",
"-10 558 CURVE SMOOTH",
"-28 558 OFFCURVE",
"-50 584 OFFCURVE",
"-70 629 CURVE",
"-112 615 LINE"
);
}
);
vertWidth = 590;
width = 1000;
}
);
},
{
color = 3;
glyphname = d.rotat;
layers = (
{
layerId = "F446C85F-564E-4F2C-825C-C389DAA66B11";
paths = (
{
closed = 1;
nodes = (
"115 541 OFFCURVE",
"171 459 OFFCURVE",
"273 395 CURVE",
"313 466 LINE",
"241 493 OFFCURVE",
"197 537 OFFCURVE",
"197 582 CURVE SMOOTH",
"197 649 OFFCURVE",
"294 699 OFFCURVE",
"424 699 CURVE SMOOTH",
"538 699 OFFCURVE",
"605 662 OFFCURVE",
"605 599 CURVE SMOOTH",
"605 548 OFFCURVE",
"561 503 OFFCURVE",
"493 485 CURVE",
"567 390 LINE",
"640 459 OFFCURVE",
"685 548 OFFCURVE",
"685 622 CURVE SMOOTH",
"685 749 OFFCURVE",
"555 850 OFFCURVE",
"392 850 CURVE SMOOTH",
"233 850 OFFCURVE",
"115 755 OFFCURVE",
"115 628 CURVE SMOOTH"
);
},
{
closed = 1;
nodes = (
"226 333 OFFCURVE",
"670 330 OFFCURVE",
"873 330 CURVE",
"875 375 OFFCURVE",
"877 457 OFFCURVE",
"877 502 CURVE",
"675 502 OFFCURVE",
"237 499 OFFCURVE",
"122 497 CURVE",
"120 458 OFFCURVE",
"118 393 OFFCURVE",
"118 335 CURVE"
);
}
);
vertWidth = 600;
width = 1000;
}
);
},
{
color = 3;
glyphname = eth.rotat;
layers = (
{
layerId = "F446C85F-564E-4F2C-825C-C389DAA66B11";
paths = (
{
closed = 1;
nodes = (
"115 428 OFFCURVE",
"232 310 OFFCURVE",
"394 310 CURVE SMOOTH",
"539 310 OFFCURVE",
"717 404 OFFCURVE",
"895 575 CURVE",
"855 676 LINE",
"634 528 OFFCURVE",
"484 465 OFFCURVE",
"351 465 CURVE SMOOTH",
"253 465 OFFCURVE",
"197 499 OFFCURVE",
"197 557 CURVE SMOOTH",
"197 635 OFFCURVE",
"299 699 OFFCURVE",
"424 699 CURVE SMOOTH",
"516 699 OFFCURVE",
"565 664 OFFCURVE",
"565 600 CURVE SMOOTH",
"565 538 OFFCURVE",
"520 482 OFFCURVE",
"458 467 CURVE",
"532 372 LINE",
"606 437 OFFCURVE",
"645 517 OFFCURVE",
"645 603 CURVE SMOOTH",
"645 748 OFFCURVE",
"534 850 OFFCURVE",
"378 850 CURVE SMOOTH",
"220 850 OFFCURVE",
"115 746 OFFCURVE",
"115 591 CURVE SMOOTH"
);
},
{
closed = 1;
nodes = (
"738 352 LINE",
"849 389 LINE",
"747 827 LINE",
"687 816 LINE"
);
}
);
vertWidth = 600;
width = 1000;
}
);
},
{
color = 3;
glyphname = e.rotat;
layers = (
{
anchors = (
{
name = top;
position = "{800, 570}";
}
);
layerId = "F446C85F-564E-4F2C-825C-C389DAA66B11";
paths = (
{
closed = 1;
nodes = (
"115 461 OFFCURVE",
"165 365 OFFCURVE",
"253 300 CURVE",
"313 371 LINE",
"245 405 OFFCURVE",
"197 473 OFFCURVE",
"197 535 CURVE SMOOTH",
"197 627 OFFCURVE",
"304 700 OFFCURVE",
"441 700 CURVE SMOOTH",
"544 700 OFFCURVE",
"605 659 OFFCURVE",
"605 591 CURVE SMOOTH",
"605 526 OFFCURVE",
"548 476 OFFCURVE",
"463 467 CURVE",
"425 740 LINE",
"335 730 LINE",
"417 290 LINE",
"578 305 OFFCURVE",
"685 417 OFFCURVE",
"685 569 CURVE SMOOTH",
"685 730 OFFCURVE",
"564 850 OFFCURVE",
"401 850 CURVE SMOOTH",
"237 850 OFFCURVE",
"115 728 OFFCURVE",
"115 565 CURVE SMOOTH"
);
}
);
vertWidth = 620;
width = 1000;
}
);
},
{
color = 3;
glyphname = eacute.rotat;
layers = (
{
anchors = (
{
name = top;
position = "{800, 570}";
}
);
layerId = "F446C85F-564E-4F2C-825C-C389DAA66B11";
paths = (
{
closed = 1;
nodes = (
"115 461 OFFCURVE",
"165 365 OFFCURVE",
"253 300 CURVE",
"313 371 LINE",
"245 405 OFFCURVE",
"197 473 OFFCURVE",
"197 535 CURVE SMOOTH",
"197 627 OFFCURVE",
"304 700 OFFCURVE",
"441 700 CURVE SMOOTH",
"544 700 OFFCURVE",
"605 659 OFFCURVE",
"605 591 CURVE SMOOTH",
"605 526 OFFCURVE",
"548 476 OFFCURVE",
"463 467 CURVE",
"425 740 LINE",
"335 730 LINE",
"417 290 LINE",
"578 305 OFFCURVE",
"685 417 OFFCURVE",
"685 569 CURVE SMOOTH",
"685 730 OFFCURVE",
"564 850 OFFCURVE",
"401 850 CURVE SMOOTH",
"237 850 OFFCURVE",
"115 728 OFFCURVE",
"115 565 CURVE SMOOTH"
);
},
{
closed = 1;
nodes = (
"807 420 LINE",
"903 482 LINE",
"757 720 LINE",
"717 704 LINE"
);
}
);
vertWidth = 620;
width = 1000;
}
);
},
{
color = 3;
glyphname = ecircumflex.rotat;
layers = (
{
anchors = (
{
name = top;
position = "{800, 570}";
}
);
layerId = "F446C85F-564E-4F2C-825C-C389DAA66B11";
paths = (
{
closed = 1;
nodes = (
"115 461 OFFCURVE",
"165 365 OFFCURVE",
"253 300 CURVE",
"313 371 LINE",
"245 405 OFFCURVE",
"197 473 OFFCURVE",
"197 535 CURVE SMOOTH",
"197 627 OFFCURVE",
"304 700 OFFCURVE",
"441 700 CURVE SMOOTH",
"544 700 OFFCURVE",
"605 659 OFFCURVE",
"605 591 CURVE SMOOTH",
"605 526 OFFCURVE",
"548 476 OFFCURVE",
"463 467 CURVE",
"425 740 LINE",
"335 730 LINE",
"417 290 LINE",
"578 305 OFFCURVE",
"685 417 OFFCURVE",
"685 569 CURVE SMOOTH",
"685 730 OFFCURVE",
"564 850 OFFCURVE",
"401 850 CURVE SMOOTH",
"237 850 OFFCURVE",
"115 728 OFFCURVE",
"115 565 CURVE SMOOTH"
);
},
{
closed = 1;
nodes = (
"801.75 570.25 LINE",
"709.1 413 LINE",
"738.85 379 LINE",
"916.5 570.25 LINE",
"738.85 761.5 LINE",
"709.1 727.5 LINE"
);
}
);
vertWidth = 620;
width = 1000;
}
);
},
{
color = 3;
glyphname = edieresis.rotat;
layers = (
{
anchors = (
{
name = top;
position = "{800, 570}";
}
);
layerId = "F446C85F-564E-4F2C-825C-C389DAA66B11";
paths = (
{
closed = 1;
nodes = (
"115 461 OFFCURVE",
"165 365 OFFCURVE",
"253 300 CURVE",
"313 371 LINE",
"245 405 OFFCURVE",
"197 473 OFFCURVE",
"197 535 CURVE SMOOTH",
"197 627 OFFCURVE",
"304 700 OFFCURVE",
"441 700 CURVE SMOOTH",
"544 700 OFFCURVE",
"605 659 OFFCURVE",
"605 591 CURVE SMOOTH",
"605 526 OFFCURVE",
"548 476 OFFCURVE",
"463 467 CURVE",
"425 740 LINE",
"335 730 LINE",
"417 290 LINE",
"578 305 OFFCURVE",
"685 417 OFFCURVE",
"685 569 CURVE SMOOTH",
"685 730 OFFCURVE",
"564 850 OFFCURVE",
"401 850 CURVE SMOOTH",
"237 850 OFFCURVE",
"115 728 OFFCURVE",
"115 565 CURVE SMOOTH"
);
},
{
closed = 1;
nodes = (
"733 405 LINE",
"877 405 LINE",
"877 525 LINE",
"733 525 LINE"
);
},
{
closed = 1;
nodes = (
"733 615 LINE",
"877 615 LINE",
"877 735 LINE",
"733 735 LINE"
);
}
);
vertWidth = 620;
width = 1000;
}
);
},
{
color = 3;
glyphname = egrave.rotat;
layers = (
{
anchors = (
{
name = top;
position = "{800, 570}";
}
);
layerId = "F446C85F-564E-4F2C-825C-C389DAA66B11";
paths = (
{
closed = 1;
nodes = (
"115 461 OFFCURVE",
"165 365 OFFCURVE",
"253 300 CURVE",
"313 371 LINE",
"245 405 OFFCURVE",
"197 473 OFFCURVE",
"197 535 CURVE SMOOTH",
"197 627 OFFCURVE",
"304 700 OFFCURVE",
"441 700 CURVE SMOOTH",
"544 700 OFFCURVE",
"605 659 OFFCURVE",
"605 591 CURVE SMOOTH",
"605 526 OFFCURVE",
"548 476 OFFCURVE",
"463 467 CURVE",
"425 740 LINE",
"335 730 LINE",
"417 290 LINE",
"578 305 OFFCURVE",
"685 417 OFFCURVE",
"685 569 CURVE SMOOTH",
"685 730 OFFCURVE",
"564 850 OFFCURVE",
"401 850 CURVE SMOOTH",
"237 850 OFFCURVE",
"115 728 OFFCURVE",
"115 565 CURVE SMOOTH"
);
},
{
closed = 1;
nodes = (
"757 420 LINE",
"903 658 LINE",
"807 720 LINE",
"717 436 LINE"
);
}
);
vertWidth = 620;
width = 1000;
}
);
},
{
color = 3;
glyphname = f.rotat;
layers = (
{
layerId = "F446C85F-564E-4F2C-825C-C389DAA66B11";
paths = (
{
closed = 1;
nodes = (
"118 723 OFFCURVE",
"120 656 OFFCURVE",
"122 600 CURVE",
"197 603 OFFCURVE",
"274 604 OFFCURVE",
"360 604 CURVE SMOOTH",
"736 604 OFFCURVE",
"803 585 OFFCURVE",
"805 479 CURVE",
"890 475 LINE",
"877 743 OFFCURVE",
"795 775 OFFCURVE",
"118 775 CURVE"
);
},
{
closed = 1;
nodes = (
"596 476 LINE",
"684 470 LINE",
"686 850 LINE",
"594 844 LINE"
);
}
);
vertWidth = 440;
width = 1000;
}
);
},
{
color = 3;
glyphname = g.rotat;
layers = (
{
layerId = "F446C85F-564E-4F2C-825C-C389DAA66B11";
paths = (
{
closed = 1;
nodes = (
"-10 394 OFFCURVE",
"90 310 OFFCURVE",
"525 310 CURVE SMOOTH",
"571 310 OFFCURVE",
"620 311 OFFCURVE",
"677 313 CURVE",
"677 379 OFFCURVE",
"676 426 OFFCURVE",
"673 485 CURVE",
"535 474 OFFCURVE",
"454 470 OFFCURVE",
"386 470 CURVE SMOOTH",
"140 470 OFFCURVE",
"82 524 OFFCURVE",
"70 764 CURVE",
"-10 761 LINE"
);
},
{
closed = 1;
nodes = (
"155 535 OFFCURVE",
"214 445 OFFCURVE",
"313 395 CURVE",
"353 466 LINE",
"286 482 OFFCURVE",
"250 520 OFFCURVE",
"250 574 CURVE SMOOTH",
"250 650 OFFCURVE",
"322 699 OFFCURVE",
"435 699 CURVE SMOOTH",
"537 699 OFFCURVE",
"600 659 OFFCURVE",
"600 594 CURVE SMOOTH",
"600 539 OFFCURVE",
"556 486 OFFCURVE",
"493 465 CURVE",
"567 370 LINE",
"637 440 OFFCURVE",
"685 543 OFFCURVE",
"685 622 CURVE SMOOTH",
"685 749 OFFCURVE",
"559 850 OFFCURVE",
"401 850 CURVE SMOOTH",
"254 850 OFFCURVE",
"155 763 OFFCURVE",
"155 634 CURVE SMOOTH"
);
}
);
vertWidth = 620;
width = 1000;
}
);
},
{
color = 3;
glyphname = h.rotat;
layers = (
{
layerId = "F446C85F-564E-4F2C-825C-C389DAA66B11";
paths = (
{
closed = 1;
nodes = (
"118 360 OFFCURVE",
"119 314 OFFCURVE",
"122 280 CURVE",
"507 280 OFFCURVE",
"685 353 OFFCURVE",
"685 510 CURVE SMOOTH",
"685 603 OFFCURVE",
"622 706 OFFCURVE",
"528 764 CURVE",
"472 676 LINE",
"548 650 OFFCURVE",
"605 599 OFFCURVE",
"605 557 CURVE SMOOTH",
"605 487 OFFCURVE",
"443 452 OFFCURVE",
"118 452 CURVE"
);
},
{
closed = 1;
nodes = (
"228 661 OFFCURVE",
"666 658 OFFCURVE",
"877 658 CURVE",
"877 705 OFFCURVE",
"875 787 OFFCURVE",
"873 830 CURVE",
"663 830 OFFCURVE",
"227 827 OFFCURVE",
"122 825 CURVE",
"120 783 OFFCURVE",
"118 713 OFFCURVE",
"118 663 CURVE"
);
}
);
vertWidth = 630;
width = 1000;
}
);
},
{
color = 3;
glyphname = i.rotat;
layers = (
{
anchors = (
{
name = top;
position = "{800, 744}";
}
);
layerId = "F446C85F-564E-4F2C-825C-C389DAA66B11";
paths = (
{
closed = 1;
nodes = (
"745 659 LINE",
"880 659 LINE",
"880 829 LINE",
"745 829 LINE"
);
},
{
closed = 1;
nodes = (
"118 782 OFFCURVE",
"119 724 OFFCURVE",
"122 663 CURVE",
"218 660 OFFCURVE",
"468 658 OFFCURVE",
"663 658 CURVE",
"665 696 OFFCURVE",
"667 770 OFFCURVE",
"667 830 CURVE",
"432 830 OFFCURVE",
"206 828 OFFCURVE",
"118 825 CURVE"
);
}
);
vertWidth = 272;
width = 1000;
}
);
},
{
color = 3;
glyphname = idotless.rotat;
layers = (
{
anchors = (
{
name = top;
position = "{800, 744}";
}
);
layerId = "F446C85F-564E-4F2C-825C-C389DAA66B11";
paths = (
{
closed = 1;
nodes = (
"118 782 OFFCURVE",
"119 724 OFFCURVE",
"122 663 CURVE",
"218 660 OFFCURVE",
"468 658 OFFCURVE",
"663 658 CURVE",
"665 696 OFFCURVE",
"667 770 OFFCURVE",
"667 830 CURVE",
"432 830 OFFCURVE",
"206 828 OFFCURVE",
"118 825 CURVE"
);
}
);
vertWidth = 272;
width = 1000;
}
);
},
{
color = 3;
glyphname = iacute.rotat;
layers = (
{
anchors = (
{
name = top;
position = "{800, 744}";
}
);
layerId = "F446C85F-564E-4F2C-825C-C389DAA66B11";
paths = (
{
closed = 1;
nodes = (
"118 782 OFFCURVE",
"119 724 OFFCURVE",
"122 663 CURVE",
"218 660 OFFCURVE",
"468 658 OFFCURVE",
"663 658 CURVE",
"665 696 OFFCURVE",
"667 770 OFFCURVE",
"667 830 CURVE",
"432 830 OFFCURVE",
"206 828 OFFCURVE",
"118 825 CURVE"
);
},
{
closed = 1;
nodes = (
"807 594 LINE",
"903 656 LINE",
"757 894 LINE",
"717 878 LINE"
);
}
);
vertWidth = 272;
width = 1000;
}
);
},
{
color = 3;
glyphname = icircumflex.rotat;
layers = (
{
anchors = (
{
name = top;
position = "{800, 744}";
}
);
layerId = "F446C85F-564E-4F2C-825C-C389DAA66B11";
paths = (
{
closed = 1;
nodes = (
"118 782 OFFCURVE",
"119 724 OFFCURVE",
"122 663 CURVE",
"218 660 OFFCURVE",
"468 658 OFFCURVE",
"663 658 CURVE",
"665 696 OFFCURVE",
"667 770 OFFCURVE",
"667 830 CURVE",
"432 830 OFFCURVE",
"206 828 OFFCURVE",
"118 825 CURVE"
);
},
{
closed = 1;
nodes = (
"802 744 LINE",
"709 587 LINE",
"739 553 LINE",
"917 744 LINE",
"739 935 LINE",
"709 901 LINE"
);
}
);
vertWidth = 272;
width = 1000;
}
);
},
{
color = 3;
glyphname = idieresis.rotat;
layers = (
{
anchors = (
{
name = top;
position = "{800, 744}";
}
);
layerId = "F446C85F-564E-4F2C-825C-C389DAA66B11";
paths = (
{
closed = 1;
nodes = (
"118 782 OFFCURVE",
"119 724 OFFCURVE",
"122 663 CURVE",
"218 660 OFFCURVE",
"468 658 OFFCURVE",
"663 658 CURVE",
"665 696 OFFCURVE",
"667 770 OFFCURVE",
"667 830 CURVE",
"432 830 OFFCURVE",
"206 828 OFFCURVE",
"118 825 CURVE"
);
},
{
closed = 1;
nodes = (
"733 579 LINE",
"877 579 LINE",
"877 699 LINE",
"733 699 LINE"
);
},
{
closed = 1;
nodes = (
"733 789 LINE",
"877 789 LINE",
"877 909 LINE",
"733 909 LINE"
);
}
);
vertWidth = 272;
width = 1000;
}
);
},
{
color = 3;
glyphname = igrave.rotat;
layers = (
{
anchors = (
{
name = top;
position = "{800, 744}";
}
);
layerId = "F446C85F-564E-4F2C-825C-C389DAA66B11";
paths = (
{
closed = 1;
nodes = (
"118 782 OFFCURVE",
"119 724 OFFCURVE",
"122 663 CURVE",
"218 660 OFFCURVE",
"468 658 OFFCURVE",
"663 658 CURVE",
"665 696 OFFCURVE",
"667 770 OFFCURVE",
"667 830 CURVE",
"432 830 OFFCURVE",
"206 828 OFFCURVE",
"118 825 CURVE"
);
},
{
closed = 1;
nodes = (
"757 594 LINE",
"903 832 LINE",
"807 894 LINE",
"717 610 LINE"
);
}
);
vertWidth = 272;
width = 1000;
}
);
},
{
color = 3;
glyphname = j.rotat;
layers = (
{
layerId = "F446C85F-564E-4F2C-825C-C389DAA66B11";
paths = (
{
closed = 1;
nodes = (
"25 648 OFFCURVE",
"172 575 OFFCURVE",
"483 575 CURVE SMOOTH",
"534 575 OFFCURVE",
"596 577 OFFCURVE",
"667 581 CURVE",
"667 647 OFFCURVE",
"666 704 OFFCURVE",
"663 753 CURVE",
"563 746 OFFCURVE",
"483 743 OFFCURVE",
"427 743 CURVE SMOOTH",
"224 743 OFFCURVE",
"118 782 OFFCURVE",
"80 870 CURVE",
"-10 820 LINE"
);
},
{
closed = 1;
nodes = (
"745 584 LINE",
"880 584 LINE",
"880 754 LINE",
"745 754 LINE"
);
}
);
vertWidth = 355;
width = 1000;
}
);
},
{
color = 3;
glyphname = k.rotat;
layers = (
{
layerId = "F446C85F-564E-4F2C-825C-C389DAA66B11";
paths = (
{
closed = 1;
nodes = (
"456 531 OFFCURVE",
"570 383 OFFCURVE",
"655 293 CURVE",
"715 382 LINE",
"642 449 OFFCURVE",
"519 587 OFFCURVE",
"424 710 CURVE",
"360 675 LINE"
);
},
{
closed = 1;
nodes = (
"118 745 OFFCURVE",
"119 698 OFFCURVE",
"122 663 CURVE",
"251 661 OFFCURVE",
"697 658 OFFCURVE",
"873 658 CURVE",
"875 703 OFFCURVE",
"877 771 OFFCURVE",
"877 830 CURVE",
"707 830 OFFCURVE",
"256 827 OFFCURVE",
"118 825 CURVE"
);
},
{
closed = 1;
nodes = (
"130 260 LINE",
"250 314 OFFCURVE",
"433 406 OFFCURVE",
"526 459 CURVE",
"473 601 LINE",
"379 554 OFFCURVE",
"245 499 OFFCURVE",
"110 452 CURVE"
);
}
);
vertWidth = 630;
width = 1000;
}
);
},
{
color = 3;
glyphname = l.rotat;
layers = (
{
layerId = "F446C85F-564E-4F2C-825C-C389DAA66B11";
paths = (
{
closed = 1;
nodes = (
"877 735 OFFCURVE",
"876 786 OFFCURVE",
"873 825 CURVE",
"771 828 OFFCURVE",
"687 830 OFFCURVE",
"611 830 CURVE SMOOTH",
"245 830 OFFCURVE",
"117 783 OFFCURVE",
"100 640 CURVE",
"180 570 LINE",
"214 636 OFFCURVE",
"346 662 OFFCURVE",
"663 662 CURVE SMOOTH",
"725 662 OFFCURVE",
"801 661 OFFCURVE",
"877 658 CURVE"
);
}
);
vertWidth = 272;
width = 1000;
}
);
},
{
color = 3;
glyphname = m.rotat;
layers = (
{
layerId = "F446C85F-564E-4F2C-825C-C389DAA66B11";
paths = (
{
closed = 1;
nodes = (
"116 128 OFFCURVE",
"119 61 OFFCURVE",
"124 23 CURVE",
"164 21 OFFCURVE",
"196 20 OFFCURVE",
"232 20 CURVE SMOOTH",
"540 20 OFFCURVE",
"685 87 OFFCURVE",
"685 230 CURVE SMOOTH",
"685 319 OFFCURVE",
"629 404 OFFCURVE",
"528 466 CURVE",
"472 378 LINE",
"544 357 OFFCURVE",
"605 304 OFFCURVE",
"605 264 CURVE SMOOTH",
"605 213 OFFCURVE",
"508 189 OFFCURVE",
"301 189 CURVE SMOOTH",
"238 189 OFFCURVE",
"172 191 OFFCURVE",
"116 195 CURVE"
);
},
{
closed = 1;
nodes = (
"373 688 OFFCURVE",
"598 690 OFFCURVE",
"673 693 CURVE",
"675 739 OFFCURVE",
"677 803 OFFCURVE",
"677 845 CURVE",
"594 848 OFFCURVE",
"372 850 OFFCURVE",
"122 850 CURVE",
"120 817 OFFCURVE",
"118 733 OFFCURVE",
"118 688 CURVE"
);
},
{
closed = 1;
nodes = (
"118 478 OFFCURVE",
"120 397 OFFCURVE",
"122 357 CURVE",
"164 355 OFFCURVE",
"205 354 OFFCURVE",
"251 354 CURVE SMOOTH",
"570 354 OFFCURVE",
"685 400 OFFCURVE",
"685 527 CURVE SMOOTH",
"685 612 OFFCURVE",
"631 695 OFFCURVE",
"518 786 CURVE",
"472 698 LINE",
"546 673 OFFCURVE",
"605 621 OFFCURVE",
"605 581 CURVE SMOOTH",
"605 538 OFFCURVE",
"538 523 OFFCURVE",
"348 523 CURVE SMOOTH",
"274 523 OFFCURVE",
"189 525 OFFCURVE",
"118 529 CURVE"
);
}
);
vertWidth = 890;
width = 1000;
}
);
},
{
color = 3;
glyphname = n.rotat;
layers = (
{
anchors = (
{
name = top;
position = "{800, 565}";
}
);
layerId = "F446C85F-564E-4F2C-825C-C389DAA66B11";
paths = (
{
closed = 1;
nodes = (
"524 279 OFFCURVE",
"685 343 OFFCURVE",
"685 505 CURVE SMOOTH",
"685 604 OFFCURVE",
"624 703 OFFCURVE",
"508 790 CURVE",
"452 702 LINE",
"540 673 OFFCURVE",
"605 611 OFFCURVE",
"605 556 CURVE SMOOTH",
"605 479 OFFCURVE",
"476 451 OFFCURVE",
"122 451 CURVE",
"120 406 OFFCURVE",
"118 326 OFFCURVE",
"118 279 CURVE"
);
},
{
closed = 1;
nodes = (
"118 789 OFFCURVE",
"120 725 OFFCURVE",
"122 683 CURVE",
"205 680 OFFCURVE",
"444 678 OFFCURVE",
"673 678 CURVE",
"675 721 OFFCURVE",
"677 806 OFFCURVE",
"677 850 CURVE",
"432 850 OFFCURVE",
"203 848 OFFCURVE",
"118 845 CURVE"
);
}
);
vertWidth = 631;
width = 1000;
}
);
},
{
color = 3;
glyphname = ntilde.rotat;
layers = (
{
anchors = (
{
name = top;
position = "{800, 565}";
}
);
layerId = "F446C85F-564E-4F2C-825C-C389DAA66B11";
paths = (
{
closed = 1;
nodes = (
"524 279 OFFCURVE",
"685 343 OFFCURVE",
"685 505 CURVE SMOOTH",
"685 604 OFFCURVE",
"624 703 OFFCURVE",
"508 790 CURVE",
"452 702 LINE",
"540 673 OFFCURVE",
"605 611 OFFCURVE",
"605 556 CURVE SMOOTH",
"605 479 OFFCURVE",
"476 451 OFFCURVE",
"122 451 CURVE",
"120 406 OFFCURVE",
"118 326 OFFCURVE",
"118 279 CURVE"
);
},
{
closed = 1;
nodes = (
"118 789 OFFCURVE",
"120 725 OFFCURVE",
"122 683 CURVE",
"205 680 OFFCURVE",
"444 678 OFFCURVE",
"673 678 CURVE",
"675 721 OFFCURVE",
"677 806 OFFCURVE",
"677 850 CURVE",
"432 850 OFFCURVE",
"203 848 OFFCURVE",
"118 845 CURVE"
);
},
{
closed = 1;
nodes = (
"727.2 460.7 OFFCURVE",
"752.8 425.85 OFFCURVE",
"806.4 391 CURVE",
"849.6 416.5 LINE",
"816.8 447.1 OFFCURVE",
"808 459.85 OFFCURVE",
"808 476.85 CURVE SMOOTH",
"808 497.25 OFFCURVE",
"821.6 521.9 OFFCURVE",
"847.2 547.4 CURVE SMOOTH",
"876 576.3 OFFCURVE",
"888.8 602.65 OFFCURVE",
"888.8 630.7 CURVE SMOOTH",
"888.8 669.8 OFFCURVE",
"863.2 704.65 OFFCURVE",
"809.6 739.5 CURVE",
"766.4 714 LINE",
"799.2 683.4 OFFCURVE",
"808 670.65 OFFCURVE",
"808 653.65 CURVE SMOOTH",
"808 633.25 OFFCURVE",
"794.4 608.6 OFFCURVE",
"768.8 583.1 CURVE SMOOTH",
"740 554.2 OFFCURVE",
"727.2 527.85 OFFCURVE",
"727.2 499.8 CURVE SMOOTH"
);
}
);
vertWidth = 631;
width = 1000;
}
);
},
{
color = 3;
glyphname = o.rotat;
layers = (
{
anchors = (
{
name = top;
position = "{800, 560}";
}
);
layerId = "F446C85F-564E-4F2C-825C-C389DAA66B11";
paths = (
{
closed = 1;
nodes = (
"115 404 OFFCURVE",
"246 270 OFFCURVE",
"408 270 CURVE SMOOTH",
"563 270 OFFCURVE",
"685 394 OFFCURVE",
"685 552 CURVE SMOOTH",
"685 716 OFFCURVE",
"554 850 OFFCURVE",
"392 850 CURVE SMOOTH",
"237 850 OFFCURVE",
"115 726 OFFCURVE",
"115 568 CURVE SMOOTH"
);
},
{
closed = 1;
nodes = (
"196 628 OFFCURVE",
"297 694 OFFCURVE",
"432 694 CURVE SMOOTH",
"540 694 OFFCURVE",
"604 652 OFFCURVE",
"604 581 CURVE SMOOTH",
"604 492 OFFCURVE",
"503 426 OFFCURVE",
"368 426 CURVE SMOOTH",
"260 426 OFFCURVE",
"196 468 OFFCURVE",
"196 539 CURVE SMOOTH"
);
}
);
vertWidth = 640;
width = 1000;
}
);
},
{
color = 3;
glyphname = oacute.rotat;
layers = (
{
anchors = (
{
name = top;
position = "{800, 560}";
}
);
layerId = "F446C85F-564E-4F2C-825C-C389DAA66B11";
paths = (
{
closed = 1;
nodes = (
"115 404 OFFCURVE",
"246 270 OFFCURVE",
"408 270 CURVE SMOOTH",
"563 270 OFFCURVE",
"685 394 OFFCURVE",
"685 552 CURVE SMOOTH",
"685 716 OFFCURVE",
"554 850 OFFCURVE",
"392 850 CURVE SMOOTH",
"237 850 OFFCURVE",
"115 726 OFFCURVE",
"115 568 CURVE SMOOTH"
);
},
{
closed = 1;
nodes = (
"196 628 OFFCURVE",
"297 694 OFFCURVE",
"432 694 CURVE SMOOTH",
"540 694 OFFCURVE",
"604 652 OFFCURVE",
"604 581 CURVE SMOOTH",
"604 492 OFFCURVE",
"503 426 OFFCURVE",
"368 426 CURVE SMOOTH",
"260 426 OFFCURVE",
"196 468 OFFCURVE",
"196 539 CURVE SMOOTH"
);
},
{
closed = 1;
nodes = (
"807 410 LINE",
"903 472 LINE",
"757 710 LINE",
"717 694 LINE"
);
}
);
vertWidth = 640;
width = 1000;
}
);
},
{
color = 3;
glyphname = ocircumflex.rotat;
layers = (
{
anchors = (
{
name = top;
position = "{800, 560}";
}
);
layerId = "F446C85F-564E-4F2C-825C-C389DAA66B11";
paths = (
{
closed = 1;
nodes = (
"115 404 OFFCURVE",
"246 270 OFFCURVE",
"408 270 CURVE SMOOTH",
"563 270 OFFCURVE",
"685 394 OFFCURVE",
"685 552 CURVE SMOOTH",
"685 716 OFFCURVE",
"554 850 OFFCURVE",
"392 850 CURVE SMOOTH",
"237 850 OFFCURVE",
"115 726 OFFCURVE",
"115 568 CURVE SMOOTH"
);
},
{
closed = 1;
nodes = (
"196 628 OFFCURVE",
"297 694 OFFCURVE",
"432 694 CURVE SMOOTH",
"540 694 OFFCURVE",
"604 652 OFFCURVE",
"604 581 CURVE SMOOTH",
"604 492 OFFCURVE",
"503 426 OFFCURVE",
"368 426 CURVE SMOOTH",
"260 426 OFFCURVE",
"196 468 OFFCURVE",
"196 539 CURVE SMOOTH"
);
},
{
closed = 1;
nodes = (
"801.75 560.25 LINE",
"709.1 403 LINE",
"738.85 369 LINE",
"916.5 560.25 LINE",
"738.85 751.5 LINE",
"709.1 717.5 LINE"
);
}
);
vertWidth = 640;
width = 1000;
}
);
},
{
color = 3;
glyphname = odieresis.rotat;
layers = (
{
anchors = (
{
name = top;
position = "{800, 560}";
}
);
layerId = "F446C85F-564E-4F2C-825C-C389DAA66B11";
paths = (
{
closed = 1;
nodes = (
"115 404 OFFCURVE",
"246 270 OFFCURVE",
"408 270 CURVE SMOOTH",
"563 270 OFFCURVE",
"685 394 OFFCURVE",
"685 552 CURVE SMOOTH",
"685 716 OFFCURVE",
"554 850 OFFCURVE",
"392 850 CURVE SMOOTH",
"237 850 OFFCURVE",
"115 726 OFFCURVE",
"115 568 CURVE SMOOTH"
);
},
{
closed = 1;
nodes = (
"196 628 OFFCURVE",
"297 694 OFFCURVE",
"432 694 CURVE SMOOTH",
"540 694 OFFCURVE",
"604 652 OFFCURVE",
"604 581 CURVE SMOOTH",
"604 492 OFFCURVE",
"503 426 OFFCURVE",
"368 426 CURVE SMOOTH",
"260 426 OFFCURVE",
"196 468 OFFCURVE",
"196 539 CURVE SMOOTH"
);
},
{
closed = 1;
nodes = (
"733 395 LINE",
"877 395 LINE",
"877 515 LINE",
"733 515 LINE"
);
},
{
closed = 1;
nodes = (
"733 605 LINE",
"877 605 LINE",
"877 725 LINE",
"733 725 LINE"
);
}
);
vertWidth = 640;
width = 1000;
}
);
},
{
color = 3;
glyphname = ograve.rotat;
layers = (
{
anchors = (
{
name = top;
position = "{800, 560}";
}
);
layerId = "F446C85F-564E-4F2C-825C-C389DAA66B11";
paths = (
{
closed = 1;
nodes = (
"115 404 OFFCURVE",
"246 270 OFFCURVE",
"408 270 CURVE SMOOTH",
"563 270 OFFCURVE",
"685 394 OFFCURVE",
"685 552 CURVE SMOOTH",
"685 716 OFFCURVE",
"554 850 OFFCURVE",
"392 850 CURVE SMOOTH",
"237 850 OFFCURVE",
"115 726 OFFCURVE",
"115 568 CURVE SMOOTH"
);
},
{
closed = 1;
nodes = (
"196 628 OFFCURVE",
"297 694 OFFCURVE",
"432 694 CURVE SMOOTH",
"540 694 OFFCURVE",
"604 652 OFFCURVE",
"604 581 CURVE SMOOTH",
"604 492 OFFCURVE",
"503 426 OFFCURVE",
"368 426 CURVE SMOOTH",
"260 426 OFFCURVE",
"196 468 OFFCURVE",
"196 539 CURVE SMOOTH"
);
},
{
closed = 1;
nodes = (
"757 410 LINE",
"903 648 LINE",
"807 710 LINE",
"717 426 LINE"
);
}
);
vertWidth = 640;
width = 1000;
}
);
},
{
color = 3;
glyphname = oslash.rotat;
layers = (
{
anchors = (
{
name = top;
position = "{800, 560}";
}
);
layerId = "F446C85F-564E-4F2C-825C-C389DAA66B11";
paths = (
{
closed = 1;
nodes = (
"660 305 LINE",
"715 385 LINE",
"140 815 LINE",
"85 735 LINE"
);
},
{
closed = 1;
nodes = (
"115 404 OFFCURVE",
"246 270 OFFCURVE",
"408 270 CURVE SMOOTH",
"563 270 OFFCURVE",
"685 394 OFFCURVE",
"685 552 CURVE SMOOTH",
"685 716 OFFCURVE",
"554 850 OFFCURVE",
"392 850 CURVE SMOOTH",
"237 850 OFFCURVE",
"115 726 OFFCURVE",
"115 568 CURVE SMOOTH"
);
},
{
closed = 1;
nodes = (
"196 628 OFFCURVE",
"297 694 OFFCURVE",
"432 694 CURVE SMOOTH",
"540 694 OFFCURVE",
"604 652 OFFCURVE",
"604 581 CURVE SMOOTH",
"604 492 OFFCURVE",
"503 426 OFFCURVE",
"368 426 CURVE SMOOTH",
"260 426 OFFCURVE",
"196 468 OFFCURVE",
"196 539 CURVE SMOOTH"
);
}
);
vertWidth = 640;
width = 1000;
}
);
},
{
color = 3;
glyphname = otilde.rotat;
layers = (
{
anchors = (
{
name = top;
position = "{800, 560}";
}
);
layerId = "F446C85F-564E-4F2C-825C-C389DAA66B11";
paths = (
{
closed = 1;
nodes = (
"115 404 OFFCURVE",
"246 270 OFFCURVE",
"408 270 CURVE SMOOTH",
"563 270 OFFCURVE",
"685 394 OFFCURVE",
"685 552 CURVE SMOOTH",
"685 716 OFFCURVE",
"554 850 OFFCURVE",
"392 850 CURVE SMOOTH",
"237 850 OFFCURVE",
"115 726 OFFCURVE",
"115 568 CURVE SMOOTH"
);
},
{
closed = 1;
nodes = (
"196 628 OFFCURVE",
"297 694 OFFCURVE",
"432 694 CURVE SMOOTH",
"540 694 OFFCURVE",
"604 652 OFFCURVE",
"604 581 CURVE SMOOTH",
"604 492 OFFCURVE",
"503 426 OFFCURVE",
"368 426 CURVE SMOOTH",
"260 426 OFFCURVE",
"196 468 OFFCURVE",
"196 539 CURVE SMOOTH"
);
},
{
closed = 1;
nodes = (
"727.2 455.7 OFFCURVE",
"752.8 420.85 OFFCURVE",
"806.4 386 CURVE",
"849.6 411.5 LINE",
"816.8 442.1 OFFCURVE",
"808 454.85 OFFCURVE",
"808 471.85 CURVE SMOOTH",
"808 492.25 OFFCURVE",
"821.6 516.9 OFFCURVE",
"847.2 542.4 CURVE SMOOTH",
"876 571.3 OFFCURVE",
"888.8 597.65 OFFCURVE",
"888.8 625.7 CURVE SMOOTH",
"888.8 664.8 OFFCURVE",
"863.2 699.65 OFFCURVE",
"809.6 734.5 CURVE",
"766.4 709 LINE",
"799.2 678.4 OFFCURVE",
"808 665.65 OFFCURVE",
"808 648.65 CURVE SMOOTH",
"808 628.25 OFFCURVE",
"794.4 603.6 OFFCURVE",
"768.8 578.1 CURVE SMOOTH",
"740 549.2 OFFCURVE",
"727.2 522.85 OFFCURVE",
"727.2 494.8 CURVE SMOOTH"
);
}
);
vertWidth = 640;
width = 1000;
}
);
},
{
color = 3;
glyphname = oe.rotat;
layers = (
{
layerId = "F446C85F-564E-4F2C-825C-C389DAA66B11";
paths = (
{
closed = 1;
nodes = (
"115 422 OFFCURVE",
"251 290 OFFCURVE",
"422 290 CURVE SMOOTH",
"574 290 OFFCURVE",
"685 401 OFFCURVE",
"685 552 CURVE SMOOTH",
"685 717 OFFCURVE",
"549 850 OFFCURVE",
"379 850 CURVE SMOOTH",
"226 850 OFFCURVE",
"115 739 OFFCURVE",
"115 588 CURVE SMOOTH"
);
},
{
closed = 1;
nodes = (
"196 635 OFFCURVE",
"296 699 OFFCURVE",
"424 699 CURVE SMOOTH",
"532 699 OFFCURVE",
"604 654 OFFCURVE",
"604 586 CURVE SMOOTH",
"604 505 OFFCURVE",
"504 441 OFFCURVE",
"376 441 CURVE SMOOTH",
"268 441 OFFCURVE",
"196 486 OFFCURVE",
"196 554 CURVE SMOOTH"
);
},
{
closed = 1;
nodes = (
"115 73 OFFCURVE",
"161 -12 OFFCURVE",
"253 -80 CURVE",
"313 -8 LINE",
"239 30 OFFCURVE",
"197 84 OFFCURVE",
"197 142 CURVE SMOOTH",
"197 229 OFFCURVE",
"289 290 OFFCURVE",
"422 290 CURVE SMOOTH",
"531 290 OFFCURVE",
"605 250 OFFCURVE",
"605 191 CURVE SMOOTH",
"605 136 OFFCURVE",
"541 87 OFFCURVE",
"463 83 CURVE",
"425 341 LINE",
"335 331 LINE",
"417 -80 LINE",
"575 -80 OFFCURVE",
"685 16 OFFCURVE",
"685 154 CURVE SMOOTH",
"685 310 OFFCURVE",
"544 441 OFFCURVE",
"376 441 CURVE SMOOTH",
"222 441 OFFCURVE",
"115 333 OFFCURVE",
"115 176 CURVE SMOOTH"
);
}
);
vertWidth = 990;
width = 1000;
}
);
},
{
color = 3;
glyphname = p.rotat;
layers = (
{
layerId = "F446C85F-564E-4F2C-825C-C389DAA66B11";
paths = (
{
closed = 1;
nodes = (
"115 411 OFFCURVE",
"245 310 OFFCURVE",
"408 310 CURVE SMOOTH",
"567 310 OFFCURVE",
"685 405 OFFCURVE",
"685 532 CURVE SMOOTH",
"685 619 OFFCURVE",
"629 701 OFFCURVE",
"527 765 CURVE",
"487 694 LINE",
"559 667 OFFCURVE",
"603 623 OFFCURVE",
"603 578 CURVE SMOOTH",
"603 511 OFFCURVE",
"506 461 OFFCURVE",
"376 461 CURVE SMOOTH",
"262 461 OFFCURVE",
"195 498 OFFCURVE",
"195 561 CURVE SMOOTH",
"195 612 OFFCURVE",
"239 657 OFFCURVE",
"307 675 CURVE",
"233 770 LINE",
"160 701 OFFCURVE",
"115 612 OFFCURVE",
"115 538 CURVE SMOOTH"
);
},
{
closed = 1;
nodes = (
"113 661 OFFCURVE",
"466 658 OFFCURVE",
"677 658 CURVE",
"677 705 OFFCURVE",
"675 787 OFFCURVE",
"673 830 CURVE",
"463 830 OFFCURVE",
"112 827 OFFCURVE",
"7 825 CURVE",
"5 783 OFFCURVE",
"3 713 OFFCURVE",
"3 663 CURVE"
);
}
);
vertWidth = 600;
width = 1000;
}
);
},
{
color = 3;
glyphname = thorn.rotat;
layers = (
{
layerId = "F446C85F-564E-4F2C-825C-C389DAA66B11";
paths = (
{
closed = 1;
nodes = (
"115 411 OFFCURVE",
"245 310 OFFCURVE",
"408 310 CURVE SMOOTH",
"567 310 OFFCURVE",
"685 405 OFFCURVE",
"685 532 CURVE SMOOTH",
"685 619 OFFCURVE",
"629 701 OFFCURVE",
"527 765 CURVE",
"487 694 LINE",
"559 667 OFFCURVE",
"603 623 OFFCURVE",
"603 578 CURVE SMOOTH",
"603 511 OFFCURVE",
"506 461 OFFCURVE",
"376 461 CURVE SMOOTH",
"262 461 OFFCURVE",
"195 498 OFFCURVE",
"195 561 CURVE SMOOTH",
"195 612 OFFCURVE",
"239 657 OFFCURVE",
"307 675 CURVE",
"233 770 LINE",
"160 701 OFFCURVE",
"115 612 OFFCURVE",
"115 538 CURVE SMOOTH"
);
},
{
closed = 1;
nodes = (
"299 658 OFFCURVE",
"801 661 OFFCURVE",
"877 663 CURVE",
"877 732 OFFCURVE",
"876 785 OFFCURVE",
"873 825 CURVE",
"798 827 OFFCURVE",
"293 830 OFFCURVE",
"7 830 CURVE",
"5 774 OFFCURVE",
"3 700 OFFCURVE",
"3 658 CURVE"
);
}
);
vertWidth = 600;
width = 1000;
}
);
},
{
color = 3;
glyphname = q.rotat;
layers = (
{
layerId = "F446C85F-564E-4F2C-825C-C389DAA66B11";
paths = (
{
closed = 1;
nodes = (
"115 541 OFFCURVE",
"171 459 OFFCURVE",
"273 395 CURVE",
"313 466 LINE",
"241 493 OFFCURVE",
"197 537 OFFCURVE",
"197 582 CURVE SMOOTH",
"197 649 OFFCURVE",
"294 699 OFFCURVE",
"424 699 CURVE SMOOTH",
"538 699 OFFCURVE",
"605 662 OFFCURVE",
"605 599 CURVE SMOOTH",
"605 548 OFFCURVE",
"561 503 OFFCURVE",
"493 485 CURVE",
"567 390 LINE",
"640 459 OFFCURVE",
"685 548 OFFCURVE",
"685 622 CURVE SMOOTH",
"685 749 OFFCURVE",
"555 850 OFFCURVE",
"392 850 CURVE SMOOTH",
"233 850 OFFCURVE",
"115 755 OFFCURVE",
"115 628 CURVE SMOOTH"
);
},
{
closed = 1;
nodes = (
"3 457 OFFCURVE",
"5 375 OFFCURVE",
"7 330 CURVE",
"193 330 OFFCURVE",
"552 333 OFFCURVE",
"673 335 CURVE",
"675 383 OFFCURVE",
"677 452 OFFCURVE",
"677 497 CURVE",
"549 499 OFFCURVE",
"188 502 OFFCURVE",
"3 502 CURVE"
);
}
);
vertWidth = 600;
width = 1000;
}
);
},
{
color = 3;
glyphname = r.rotat;
layers = (
{
layerId = "F446C85F-564E-4F2C-825C-C389DAA66B11";
paths = (
{
closed = 1;
nodes = (
"446 433 OFFCURVE",
"460 378 OFFCURVE",
"477 325 CURVE",
"595 333 OFFCURVE",
"685 416 OFFCURVE",
"685 517 CURVE SMOOTH",
"685 606 OFFCURVE",
"614 709 OFFCURVE",
"508 774 CURVE",
"472 686 LINE",
"544 661 OFFCURVE",
"605 605 OFFCURVE",
"605 565 CURVE SMOOTH",
"605 520 OFFCURVE",
"528 481 OFFCURVE",
"438 481 CURVE"
);
},
{
closed = 1;
nodes = (
"202 680 OFFCURVE",
"429 678 OFFCURVE",
"677 678 CURVE",
"677 721 OFFCURVE",
"675 806 OFFCURVE",
"673 850 CURVE",
"435 850 OFFCURVE",
"202 848 OFFCURVE",
"122 845 CURVE",
"120 794 OFFCURVE",
"118 730 OFFCURVE",
"118 683 CURVE"
);
}
);
vertWidth = 585;
width = 1000;
}
);
},
{
color = 3;
glyphname = s.rotat;
layers = (
{
layerId = "F446C85F-564E-4F2C-825C-C389DAA66B11";
paths = (
{
closed = 1;
nodes = (
"115 411 OFFCURVE",
"193 300 OFFCURVE",
"301 300 CURVE SMOOTH",
"498 300 OFFCURVE",
"454 665 OFFCURVE",
"547 665 CURVE SMOOTH",
"574 665 OFFCURVE",
"605 634 OFFCURVE",
"605 575 CURVE SMOOTH",
"605 514 OFFCURVE",
"571 445 OFFCURVE",
"525 371 CURVE",
"620 315 LINE",
"661 390 OFFCURVE",
"685 484 OFFCURVE",
"685 572 CURVE SMOOTH",
"685 734 OFFCURVE",
"604 835 OFFCURVE",
"515 835 CURVE SMOOTH",
"346 835 OFFCURVE",
"372 470 OFFCURVE",
"258 470 CURVE SMOOTH",
"228 470 OFFCURVE",
"197 496 OFFCURVE",
"197 553 CURVE SMOOTH",
"197 618 OFFCURVE",
"237 731 OFFCURVE",
"282 806 CURVE",
"161 850 LINE",
"137 772 OFFCURVE",
"115 646 OFFCURVE",
"115 564 CURVE SMOOTH"
);
}
);
vertWidth = 610;
width = 1000;
}
);
},
{
color = 3;
glyphname = germandbls.rotat;
layers = (
{
layerId = "F446C85F-564E-4F2C-825C-C389DAA66B11";
paths = (
{
closed = 1;
nodes = (
"110 431 OFFCURVE",
"241 300 OFFCURVE",
"376 300 CURVE SMOOTH",
"479 300 OFFCURVE",
"563 377 OFFCURVE",
"580 485 CURVE",
"614 378 OFFCURVE",
"666 325 OFFCURVE",
"739 325 CURVE SMOOTH",
"830 325 OFFCURVE",
"885 408 OFFCURVE",
"885 545 CURVE SMOOTH",
"885 755 OFFCURVE",
"754 830 OFFCURVE",
"388 830 CURVE SMOOTH",
"315 830 OFFCURVE",
"232 827 OFFCURVE",
"117 820 CURVE",
"117 766 OFFCURVE",
"119 709 OFFCURVE",
"123 658 CURVE",
"251 665 OFFCURVE",
"393 670 OFFCURVE",
"496 670 CURVE SMOOTH",
"726 670 OFFCURVE",
"805 645 OFFCURVE",
"805 572 CURVE SMOOTH",
"805 518 OFFCURVE",
"761 470 OFFCURVE",
"713 470 CURVE SMOOTH",
"654 470 OFFCURVE",
"609 543 OFFCURVE",
"574 695 CURVE",
"506 695 LINE",
"506 542 OFFCURVE",
"443 455 OFFCURVE",
"332 455 CURVE SMOOTH",
"250 455 OFFCURVE",
"194 503 OFFCURVE",
"180 584 CURVE",
"110 567 LINE"
);
}
);
vertWidth = 610;
width = 1000;
}
);
},
{
color = 3;
glyphname = t.rotat;
layers = (
{
layerId = "F446C85F-564E-4F2C-825C-C389DAA66B11";
paths = (
{
closed = 1;
nodes = (
"118 670 OFFCURVE",
"119 614 OFFCURVE",
"122 569 CURVE",
"205 567 OFFCURVE",
"611 564 OFFCURVE",
"873 564 CURVE",
"875 612 OFFCURVE",
"877 687 OFFCURVE",
"877 736 CURVE",
"599 736 OFFCURVE",
"200 733 OFFCURVE",
"118 731 CURVE"
);
},
{
closed = 1;
nodes = (
"596 456 LINE",
"684 450 LINE",
"686 850 LINE",
"594 844 LINE"
);
}
);
vertWidth = 460;
width = 1000;
}
);
},
{
color = 3;
glyphname = u.rotat;
layers = (
{
anchors = (
{
name = top;
position = "{800, 562}";
}
);
layerId = "F446C85F-564E-4F2C-825C-C389DAA66B11";
paths = (
{
closed = 1;
nodes = (
"115 526 OFFCURVE",
"176 427 OFFCURVE",
"292 340 CURVE",
"348 428 LINE",
"260 457 OFFCURVE",
"195 521 OFFCURVE",
"195 578 CURVE SMOOTH",
"195 646 OFFCURVE",
"288 678 OFFCURVE",
"494 678 CURVE SMOOTH",
"546 678 OFFCURVE",
"605 676 OFFCURVE",
"672 672 CURVE",
"672 759 OFFCURVE",
"671 812 OFFCURVE",
"668 844 CURVE",
"616 848 OFFCURVE",
"567 850 OFFCURVE",
"522 850 CURVE SMOOTH",
"249 850 OFFCURVE",
"115 776 OFFCURVE",
"115 627 CURVE SMOOTH"
);
},
{
closed = 1;
nodes = (
"118 395 OFFCURVE",
"119 337 OFFCURVE",
"122 285 CURVE",
"210 282 OFFCURVE",
"458 280 OFFCURVE",
"673 280 CURVE",
"675 323 OFFCURVE",
"677 398 OFFCURVE",
"677 452 CURVE",
"436 452 OFFCURVE",
"204 450 OFFCURVE",
"118 447 CURVE"
);
}
);
vertWidth = 630;
width = 1000;
}
);
},
{
color = 3;
glyphname = uacute.rotat;
layers = (
{
anchors = (
{
name = top;
position = "{800, 562}";
}
);
layerId = "F446C85F-564E-4F2C-825C-C389DAA66B11";
paths = (
{
closed = 1;
nodes = (
"115 526 OFFCURVE",
"176 427 OFFCURVE",
"292 340 CURVE",
"348 428 LINE",
"260 457 OFFCURVE",
"195 521 OFFCURVE",
"195 578 CURVE SMOOTH",
"195 646 OFFCURVE",
"288 678 OFFCURVE",
"494 678 CURVE SMOOTH",
"546 678 OFFCURVE",
"605 676 OFFCURVE",
"672 672 CURVE",
"672 759 OFFCURVE",
"671 812 OFFCURVE",
"668 844 CURVE",
"616 848 OFFCURVE",
"567 850 OFFCURVE",
"522 850 CURVE SMOOTH",
"249 850 OFFCURVE",
"115 776 OFFCURVE",
"115 627 CURVE SMOOTH"
);
},
{
closed = 1;
nodes = (
"118 395 OFFCURVE",
"119 337 OFFCURVE",
"122 285 CURVE",
"210 282 OFFCURVE",
"458 280 OFFCURVE",
"673 280 CURVE",
"675 323 OFFCURVE",
"677 398 OFFCURVE",
"677 452 CURVE",
"436 452 OFFCURVE",
"204 450 OFFCURVE",
"118 447 CURVE"
);
},
{
closed = 1;
nodes = (
"807 412 LINE",
"903 474 LINE",
"757 712 LINE",
"717 696 LINE"
);
}
);
vertWidth = 630;
width = 1000;
}
);
},
{
color = 3;
glyphname = ucircumflex.rotat;
layers = (
{
anchors = (
{
name = top;
position = "{800, 562}";
}
);
layerId = "F446C85F-564E-4F2C-825C-C389DAA66B11";
paths = (
{
closed = 1;
nodes = (
"115 526 OFFCURVE",
"176 427 OFFCURVE",
"292 340 CURVE",
"348 428 LINE",
"260 457 OFFCURVE",
"195 521 OFFCURVE",
"195 578 CURVE SMOOTH",
"195 646 OFFCURVE",
"288 678 OFFCURVE",
"494 678 CURVE SMOOTH",
"546 678 OFFCURVE",
"605 676 OFFCURVE",
"672 672 CURVE",
"672 759 OFFCURVE",
"671 812 OFFCURVE",
"668 844 CURVE",
"616 848 OFFCURVE",
"567 850 OFFCURVE",
"522 850 CURVE SMOOTH",
"249 850 OFFCURVE",
"115 776 OFFCURVE",
"115 627 CURVE SMOOTH"
);
},
{
closed = 1;
nodes = (
"118 395 OFFCURVE",
"119 337 OFFCURVE",
"122 285 CURVE",
"210 282 OFFCURVE",
"458 280 OFFCURVE",
"673 280 CURVE",
"675 323 OFFCURVE",
"677 398 OFFCURVE",
"677 452 CURVE",
"436 452 OFFCURVE",
"204 450 OFFCURVE",
"118 447 CURVE"
);
},
{
closed = 1;
nodes = (
"801.75 562.25 LINE",
"709.1 405 LINE",
"738.85 371 LINE",
"916.5 562.25 LINE",
"738.85 753.5 LINE",
"709.1 719.5 LINE"
);
}
);
vertWidth = 630;
width = 1000;
}
);
},
{
color = 3;
glyphname = udieresis.rotat;
layers = (
{
anchors = (
{
name = top;
position = "{800, 562}";
}
);
layerId = "F446C85F-564E-4F2C-825C-C389DAA66B11";
paths = (
{
closed = 1;
nodes = (
"115 526 OFFCURVE",
"176 427 OFFCURVE",
"292 340 CURVE",
"348 428 LINE",
"260 457 OFFCURVE",
"195 521 OFFCURVE",
"195 578 CURVE SMOOTH",
"195 646 OFFCURVE",
"288 678 OFFCURVE",
"494 678 CURVE SMOOTH",
"546 678 OFFCURVE",
"605 676 OFFCURVE",
"672 672 CURVE",
"672 759 OFFCURVE",
"671 812 OFFCURVE",
"668 844 CURVE",
"616 848 OFFCURVE",
"567 850 OFFCURVE",
"522 850 CURVE SMOOTH",
"249 850 OFFCURVE",
"115 776 OFFCURVE",
"115 627 CURVE SMOOTH"
);
},
{
closed = 1;
nodes = (
"118 395 OFFCURVE",
"119 337 OFFCURVE",
"122 285 CURVE",
"210 282 OFFCURVE",
"458 280 OFFCURVE",
"673 280 CURVE",
"675 323 OFFCURVE",
"677 398 OFFCURVE",
"677 452 CURVE",
"436 452 OFFCURVE",
"204 450 OFFCURVE",
"118 447 CURVE"
);
},
{
closed = 1;
nodes = (
"733 397 LINE",
"877 397 LINE",
"877 517 LINE",
"733 517 LINE"
);
},
{
closed = 1;
nodes = (
"733 607 LINE",
"877 607 LINE",
"877 727 LINE",
"733 727 LINE"
);
}
);
vertWidth = 630;
width = 1000;
}
);
},
{
color = 3;
glyphname = ugrave.rotat;
layers = (
{
anchors = (
{
name = top;
position = "{800, 562}";
}
);
layerId = "F446C85F-564E-4F2C-825C-C389DAA66B11";
paths = (
{
closed = 1;
nodes = (
"115 526 OFFCURVE",
"176 427 OFFCURVE",
"292 340 CURVE",
"348 428 LINE",
"260 457 OFFCURVE",
"195 521 OFFCURVE",
"195 578 CURVE SMOOTH",
"195 646 OFFCURVE",
"288 678 OFFCURVE",
"494 678 CURVE SMOOTH",
"546 678 OFFCURVE",
"605 676 OFFCURVE",
"672 672 CURVE",
"672 759 OFFCURVE",
"671 812 OFFCURVE",
"668 844 CURVE",
"616 848 OFFCURVE",
"567 850 OFFCURVE",
"522 850 CURVE SMOOTH",
"249 850 OFFCURVE",
"115 776 OFFCURVE",
"115 627 CURVE SMOOTH"
);
},
{
closed = 1;
nodes = (
"118 395 OFFCURVE",
"119 337 OFFCURVE",
"122 285 CURVE",
"210 282 OFFCURVE",
"458 280 OFFCURVE",
"673 280 CURVE",
"675 323 OFFCURVE",
"677 398 OFFCURVE",
"677 452 CURVE",
"436 452 OFFCURVE",
"204 450 OFFCURVE",
"118 447 CURVE"
);
},
{
closed = 1;
nodes = (
"757 412 LINE",
"903 650 LINE",
"807 712 LINE",
"717 428 LINE"
);
}
);
vertWidth = 630;
width = 1000;
}
);
},
{
color = 3;
glyphname = v.rotat;
layers = (
{
layerId = "F446C85F-564E-4F2C-825C-C389DAA66B11";
paths = (
{
closed = 1;
nodes = (
"111 600 OFFCURVE",
"114 542 OFFCURVE",
"119 491 CURVE",
"286 415 OFFCURVE",
"475 339 OFFCURVE",
"668 270 CURVE",
"682 376 LINE",
"538 413 OFFCURVE",
"381 465 OFFCURVE",
"234 525 CURVE",
"385 584 OFFCURVE",
"542 636 OFFCURVE",
"686 674 CURVE",
"683 722 OFFCURVE",
"676 790 OFFCURVE",
"664 870 CURVE",
"487 805 OFFCURVE",
"287 725 OFFCURVE",
"111 649 CURVE"
);
}
);
vertWidth = 620;
width = 1000;
}
);
},
{
color = 3;
glyphname = w.rotat;
layers = (
{
layerId = "F446C85F-564E-4F2C-825C-C389DAA66B11";
paths = (
{
closed = 1;
nodes = (
"256 523 OFFCURVE",
"460 467 OFFCURVE",
"667 420 CURVE",
"673 516 LINE",
"557 537 OFFCURVE",
"414 566 OFFCURVE",
"244 605 CURVE",
"376 637 OFFCURVE",
"537 670 OFFCURVE",
"681 694 CURVE",
"681 733 OFFCURVE",
"677 791 OFFCURVE",
"669 870 CURVE",
"500 832 OFFCURVE",
"269 768 OFFCURVE",
"123 719 CURVE",
"119 671 OFFCURVE",
"117 621 OFFCURVE",
"117 571 CURVE"
);
},
{
closed = 1;
nodes = (
"117 299 OFFCURVE",
"119 250 OFFCURVE",
"123 217 CURVE",
"264 170 OFFCURVE",
"471 113 OFFCURVE",
"672 66 CURVE",
"678 162 LINE",
"553 184 OFFCURVE",
"403 215 OFFCURVE",
"244 251 CURVE",
"374 283 OFFCURVE",
"530 315 OFFCURVE",
"677 340 CURVE",
"677 379 OFFCURVE",
"675 467 OFFCURVE",
"673 516 CURVE",
"505 479 OFFCURVE",
"273 416 OFFCURVE",
"117 365 CURVE"
);
}
);
vertWidth = 824;
width = 1000;
}
);
},
{
color = 3;
glyphname = x.rotat;
layers = (
{
layerId = "F446C85F-564E-4F2C-825C-C389DAA66B11";
paths = (
{
closed = 1;
nodes = (
"112 388 OFFCURVE",
"118 313 OFFCURVE",
"128 260 CURVE",
"222 315 OFFCURVE",
"550 553 OFFCURVE",
"686 664 CURVE",
"685 713 OFFCURVE",
"674 813 OFFCURVE",
"664 870 CURVE",
"500 733 OFFCURVE",
"295 576 OFFCURVE",
"112 449 CURVE"
);
},
{
closed = 1;
nodes = (
"272 623 OFFCURVE",
"541 404 OFFCURVE",
"669 290 CURVE",
"681 409 LINE",
"524 544 OFFCURVE",
"249 762 OFFCURVE",
"123 850 CURVE",
"117 740 LINE"
);
}
);
vertWidth = 630;
width = 1000;
}
);
},
{
color = 3;
glyphname = y.rotat;
layers = (
{
anchors = (
{
name = top;
position = "{800, 530}";
}
);
layerId = "F446C85F-564E-4F2C-825C-C389DAA66B11";
paths = (
{
closed = 1;
nodes = (
"0 546 OFFCURVE",
"187 400 OFFCURVE",
"668 270 CURVE",
"682 391 LINE",
"195 510 OFFCURVE",
"97 578 OFFCURVE",
"82 810 CURVE",
"-12 800 LINE"
);
},
{
closed = 1;
nodes = (
"194 486 LINE",
"382 564 OFFCURVE",
"567 635 OFFCURVE",
"686 674 CURVE",
"681 744 OFFCURVE",
"672 822 OFFCURVE",
"664 870 CURVE",
"505 812 OFFCURVE",
"282 714 OFFCURVE",
"111 629 CURVE"
);
}
);
vertWidth = 620;
width = 1000;
}
);
},
{
color = 3;
glyphname = yacute.rotat;
layers = (
{
anchors = (
{
name = top;
position = "{800, 530}";
}
);
layerId = "F446C85F-564E-4F2C-825C-C389DAA66B11";
paths = (
{
closed = 1;
nodes = (
"0 546 OFFCURVE",
"187 400 OFFCURVE",
"668 270 CURVE",
"682 391 LINE",
"195 510 OFFCURVE",
"97 578 OFFCURVE",
"82 810 CURVE",
"-12 800 LINE"
);
},
{
closed = 1;
nodes = (
"194 486 LINE",
"382 564 OFFCURVE",
"567 635 OFFCURVE",
"686 674 CURVE",
"681 744 OFFCURVE",
"672 822 OFFCURVE",
"664 870 CURVE",
"505 812 OFFCURVE",
"282 714 OFFCURVE",
"111 629 CURVE"
);
},
{
closed = 1;
nodes = (
"807 380 LINE",
"903 442 LINE",
"757 680 LINE",
"717 664 LINE"
);
}
);
vertWidth = 620;
width = 1000;
}
);
},
{
color = 3;
glyphname = ydieresis.rotat;
layers = (
{
anchors = (
{
name = top;
position = "{800, 530}";
}
);
layerId = "F446C85F-564E-4F2C-825C-C389DAA66B11";
paths = (
{
closed = 1;
nodes = (
"0 546 OFFCURVE",
"187 400 OFFCURVE",
"668 270 CURVE",
"682 391 LINE",
"195 510 OFFCURVE",
"97 578 OFFCURVE",
"82 810 CURVE",
"-12 800 LINE"
);
},
{
closed = 1;
nodes = (
"194 486 LINE",
"382 564 OFFCURVE",
"567 635 OFFCURVE",
"686 674 CURVE",
"681 744 OFFCURVE",
"672 822 OFFCURVE",
"664 870 CURVE",
"505 812 OFFCURVE",
"282 714 OFFCURVE",
"111 629 CURVE"
);
},
{
closed = 1;
nodes = (
"733 365 LINE",
"877 365 LINE",
"877 485 LINE",
"733 485 LINE"
);
},
{
closed = 1;
nodes = (
"733 575 LINE",
"877 575 LINE",
"877 695 LINE",
"733 695 LINE"
);
}
);
vertWidth = 620;
width = 1000;
}
);
},
{
color = 3;
glyphname = z.rotat;
layers = (
{
layerId = "F446C85F-564E-4F2C-825C-C389DAA66B11";
paths = (
{
closed = 1;
nodes = (
"211 306 LINE",
"202 397 OFFCURVE",
"195 529 OFFCURVE",
"194 653 CURVE",
"311 538 OFFCURVE",
"465 398 OFFCURVE",
"573 308 CURVE",
"670 329 LINE",
"676 402 OFFCURVE",
"680 619 OFFCURVE",
"680 842 CURVE",
"585 835 LINE",
"593 756 OFFCURVE",
"600 617 OFFCURVE",
"602 507 CURVE",
"476 604 OFFCURVE",
"306 758 OFFCURVE",
"223 850 CURVE",
"124 831 LINE",
"119 751 OFFCURVE",
"116 539 OFFCURVE",
"116 300 CURVE"
);
}
);
vertWidth = 610;
width = 1000;
}
);
},
{
glyphname = s.full;
layers = (
{
layerId = "F446C85F-564E-4F2C-825C-C389DAA66B11";
paths = (
{
closed = 1;
nodes = (
"511.45 -16.15 OFFCURVE",
"628 64.19 OFFCURVE",
"628 175.43 CURVE SMOOTH",
"628 378.34 OFFCURVE",
"244.75 333.02 OFFCURVE",
"244.75 428.81 CURVE SMOOTH",
"244.75 456.62 OFFCURVE",
"277.3 488.55 OFFCURVE",
"339.25 488.55 CURVE SMOOTH",
"403.3 488.55 OFFCURVE",
"475.75 453.53 OFFCURVE",
"553.45 406.15 CURVE",
"612.25 504 LINE",
"533.5 546.23 OFFCURVE",
"434.8 570.95 OFFCURVE",
"342.4 570.95 CURVE SMOOTH",
"172.3 570.95 OFFCURVE",
"66.25 487.52 OFFCURVE",
"66.25 395.85 CURVE SMOOTH",
"66.25 221.78 OFFCURVE",
"449.5 248.56 OFFCURVE",
"449.5 131.14 CURVE SMOOTH",
"449.5 100.24 OFFCURVE",
"422.2 68.31 OFFCURVE",
"362.35 68.31 CURVE SMOOTH",
"294.1 68.31 OFFCURVE",
"175.45 109.51 OFFCURVE",
"96.7 155.86 CURVE",
"50.5 31.23 LINE",
"132.4 6.51 OFFCURVE",
"264.7 -16.15 OFFCURVE",
"350.8 -16.15 CURVE SMOOTH"
);
}
);
width = 678;
}
);
leftKerningGroup = s;
rightKerningGroup = s;
unicode = FF53;
},
{
glyphname = t.full;
layers = (
{
layerId = "F446C85F-564E-4F2C-825C-C389DAA66B11";
paths = (
{
closed = 1;
nodes = (
"238.5 -13.06 OFFCURVE",
"297.3 -12.03 OFFCURVE",
"344.55 -8.94 CURVE",
"346.65 76.55 OFFCURVE",
"349.8 494.73 OFFCURVE",
"349.8 764.59 CURVE",
"299.4 766.65 OFFCURVE",
"220.65 768.71 OFFCURVE",
"169.2 768.71 CURVE",
"169.2 482.37 OFFCURVE",
"172.35 71.4 OFFCURVE",
"174.45 -13.06 CURVE"
);
},
{
closed = 1;
nodes = (
"463.2 479.28 LINE",
"469.5 569.92 LINE",
"49.5 571.98 LINE",
"55.8 477.22 LINE"
);
}
);
width = 519;
}
);
leftKerningGroup = t;
rightKerningGroup = t;
unicode = FF54;
},
{
glyphname = u.full;
layers = (
{
anchors = (
{
name = top;
position = "{351.9, 689.4}";
}
);
layerId = "F446C85F-564E-4F2C-825C-C389DAA66B11";
paths = (
{
closed = 1;
nodes = (
"389.7 -16.15 OFFCURVE",
"493.65 46.68 OFFCURVE",
"585 166.16 CURVE",
"492.6 223.84 LINE",
"462.15 133.2 OFFCURVE",
"394.95 66.25 OFFCURVE",
"335.1 66.25 CURVE SMOOTH",
"263.7 66.25 OFFCURVE",
"230.1 162.04 OFFCURVE",
"230.1 374.22 CURVE SMOOTH",
"230.1 427.78 OFFCURVE",
"232.2 488.55 OFFCURVE",
"236.4 557.56 CURVE",
"145.05 557.56 OFFCURVE",
"89.4 556.53 OFFCURVE",
"55.8 553.44 CURVE",
"51.6 499.88 OFFCURVE",
"49.5 449.41 OFFCURVE",
"49.5 403.06 CURVE SMOOTH",
"49.5 121.87 OFFCURVE",
"127.2 -16.15 OFFCURVE",
"283.65 -16.15 CURVE SMOOTH"
);
},
{
closed = 1;
nodes = (
"527.25 -13.06 OFFCURVE",
"588.15 -12.03 OFFCURVE",
"642.75 -8.94 CURVE",
"645.9 81.7 OFFCURVE",
"648 337.14 OFFCURVE",
"648 558.59 CURVE",
"602.85 560.65 OFFCURVE",
"524.1 562.71 OFFCURVE",
"467.4 562.71 CURVE",
"467.4 314.48 OFFCURVE",
"469.5 75.52 OFFCURVE",
"472.65 -13.06 CURVE"
);
}
);
width = 698;
}
);
leftKerningGroup = u;
rightKerningGroup = u;
unicode = FF55;
},
{
glyphname = v.full;
layers = (
{
layerId = "F446C85F-564E-4F2C-825C-C389DAA66B11";
paths = (
{
closed = 1;
nodes = (
"314 -20.27 OFFCURVE",
"374.9 -17.18 OFFCURVE",
"428.45 -12.03 CURVE",
"508.25 159.98 OFFCURVE",
"588.05 354.65 OFFCURVE",
"660.5 553.44 CURVE",
"549.2 567.86 LINE",
"510.35 419.54 OFFCURVE",
"455.75 257.83 OFFCURVE",
"392.75 106.42 CURVE",
"330.8 261.95 OFFCURVE",
"276.2 423.66 OFFCURVE",
"236.3 571.98 CURVE",
"185.9 568.89 OFFCURVE",
"114.5 561.68 OFFCURVE",
"30.5 549.32 CURVE",
"98.75 367.01 OFFCURVE",
"182.75 161.01 OFFCURVE",
"262.55 -20.27 CURVE"
);
}
);
width = 690;
}
);
leftKerningGroup = v;
rightKerningGroup = v;
unicode = FF56;
},
